<svg id="Layer_1" data-name="Layer 1" xmlns="http://www.w3.org/2000/svg" viewBox="0 0 501.29 624.09"><defs><style>.cls-1{fill:#db6230}.cls-3{fill:#5184f8}.cls-5{fill:#fff}</style></defs><path class="cls-1" d="M3.13 269.42 0 263.14l23.43-11.22v15.34l-20.3 2.16zM498.16 269.42l3.13-6.28-23.43-11.22v15.34l20.3 2.16z"/><path d="M28.46 618.82h383.59a60.78 60.78 0 0 0 60.78-60.78V5.26Z" style="fill:#f0f6ff"/><path class="cls-3" d="M412.06 624.09H23.2V66a66.11 66.11 0 0 1 66-66h388.89v558.05a66.11 66.11 0 0 1-66.03 66.04ZM33.72 613.57h378.34a55.58 55.58 0 0 0 55.52-55.52V10.51H89.24A55.58 55.58 0 0 0 33.72 66Z"/><path style="fill:#f57b42" d="M0 263.14h501.29v154.05H0z"/><path class="cls-5" d="M125 325.74h-7.75v-37h15.29c8.52 0 13.39 4.49 13.39 11.8 0 4.75-2.46 8.85-6.72 10.52l7.8 14.7h-8.77l-6.9-13.55H125Zm0-19.16h6.8c3.9 0 6.18-2.24 6.18-5.9s-2.41-5.9-6.26-5.9H125ZM175.57 325.74h-24.52v-37h24.52v6.39h-16.78V304h15.83v6h-15.83v9.33h16.78ZM187.24 315.19c.35 3.06 3.54 5.06 7.64 5.06s7-2 7-4.7c0-2.41-1.77-3.74-6.23-4.74l-4.82-1.05c-6.83-1.47-10.19-4.93-10.19-10.34 0-6.82 5.9-11.34 14.16-11.34 8.62 0 14 4.44 14.16 11.13h-7.26c-.26-3.13-3-5-6.87-5s-6.39 1.82-6.39 4.56c0 2.29 1.8 3.57 6.05 4.54l4.49.95c7.41 1.59 10.65 4.77 10.65 10.42 0 7.18-5.83 11.72-15 11.72-8.9 0-14.57-4.23-14.8-11.19ZM238.84 325.74h-24.52v-37h24.52v6.39h-16.78V304h15.83v6h-15.83v9.33h16.78ZM265.85 316.76h-13l-2.82 9h-8l12.85-37H264l12.87 37h-8.23ZM254.51 311h9.67l-4.75-15.16h-.18ZM288.41 325.74h-7.74v-37H296c8.51 0 13.39 4.49 13.39 11.8 0 4.75-2.47 8.85-6.73 10.52l7.8 14.7h-8.77l-6.9-13.55h-6.34Zm0-19.16h6.8c3.9 0 6.18-2.24 6.18-5.9s-2.41-5.9-6.25-5.9h-6.73ZM313.27 307.22c0-11.93 6.79-19.14 17.52-19.14 8.9 0 15.67 5.65 16.26 13.93h-7.54a8.58 8.58 0 0 0-8.72-7.52c-5.85 0-9.62 4.9-9.62 12.7s3.72 12.81 9.64 12.81c4.59 0 7.9-2.69 8.72-7.07h7.54c-.87 8.25-7.2 13.49-16.28 13.49-10.79-.04-17.52-7.25-17.52-19.2ZM376.26 325.74v-15.6h-16.67v15.6h-7.75v-37h7.75v15h16.67v-15H384v37ZM152.87 351.81c7.59 0 12.82 5.05 12.82 12.67s-5.41 12.67-13.21 12.67h-7.31v11.67h-7.74v-37Zm-7.7 19.29h5.62c4.44 0 7-2.36 7-6.6s-2.57-6.56-7-6.56h-5.65ZM188.21 379.84h-13l-2.82 9h-8l12.85-37h9.11l12.88 37H191Zm-11.34-5.79h9.67l-4.74-15.16h-.18ZM210.78 388.82H203v-37h15.29c8.52 0 13.39 4.49 13.39 11.8 0 4.74-2.46 8.85-6.72 10.51l7.8 14.7H224l-6.9-13.54h-6.34Zm0-19.16h6.8c3.9 0 6.18-2.23 6.18-5.9s-2.41-5.9-6.26-5.9h-6.72ZM245.76 388.82V358.2h-10.82v-6.39h29.42v6.39h-10.85v30.62ZM268.64 388.82v-37h6.46l17.29 24.11h.21v-24.12h7.4v37h-6.4l-17.32-24.24h-.23v24.24ZM330.68 388.82h-24.52v-37h24.52v6.39h-16.77v8.92h15.83v5.95h-15.83v9.34h16.77ZM344 388.82h-7.75v-37h15.29c8.52 0 13.39 4.49 13.39 11.8 0 4.74-2.46 8.85-6.72 10.51l7.8 14.7h-8.78l-6.89-13.54H344Zm0-19.16h6.8c3.9 0 6.18-2.23 6.18-5.9s-2.41-5.9-6.26-5.9H344Z"/><path class="cls-3" d="M288.11 75.45h-50.23s-4.26.75-4.26 5V131h-21.28V75.53s.42-16.42 20.43-21.13h55.34Zm-44.28 5.89s-4.25-.42-4.25 3.37v16.84h28.09v5a2.41 2.41 0 0 1-2.55 2.52h-25.54V131h30.65s18.56-2.87 18.73-21.9V81.34ZM159.58 170.16a15.68 15.68 0 0 0-12 5.26 17.72 17.72 0 0 0-4.9 12.44 17.28 17.28 0 0 0 29.65 12.24 17.49 17.49 0 0 0-12.75-29.94Zm8.12 25.59a10.24 10.24 0 0 1-7.61 3.3 10.48 10.48 0 0 1-7.89-3.35 11.08 11.08 0 0 1-3.17-7.94 11.33 11.33 0 0 1 3.13-7.89 9.9 9.9 0 0 1 7.61-3.44 10.6 10.6 0 0 1 8 3.34 11.22 11.22 0 0 1 3.22 8.14 10.71 10.71 0 0 1-3.29 7.84Zm32.5-25.59a15.68 15.68 0 0 0-12 5.26 17.68 17.68 0 0 0-4.9 12.44 17.28 17.28 0 0 0 29.64 12.24 17.49 17.49 0 0 0-12.74-29.94Zm8.12 25.59a10.27 10.27 0 0 1-7.61 3.3 10.48 10.48 0 0 1-7.89-3.35 11.08 11.08 0 0 1-3.17-7.94 11.32 11.32 0 0 1 3.12-7.89 9.93 9.93 0 0 1 7.61-3.44 10.61 10.61 0 0 1 8 3.34 11.22 11.22 0 0 1 3.22 8.14 10.71 10.71 0 0 1-3.28 7.84Zm-90.25-16.07h18.12v20.09c-1.07.71-1.87 1.24-2.43 1.57a42.42 42.42 0 0 1-5.69 3 18.51 18.51 0 0 1-6.91 1.58c-7 0-12.89-2.15-17.61-6.51a21.33 21.33 0 0 1-7-16.4 23.79 23.79 0 0 1 6.35-16.55 20 20 0 0 1 15.45-7 26.07 26.07 0 0 1 8 1.34 22.28 22.28 0 0 1 8.92 5.12l-4.07 4.49a15.57 15.57 0 0 0-6.58-3.68 23.12 23.12 0 0 0-6.49-.86 13.44 13.44 0 0 0-10.7 5.13 18.59 18.59 0 0 0-4.29 12.29A15.43 15.43 0 0 0 108 195a17.36 17.36 0 0 0 12.46 4.69 12.76 12.76 0 0 0 6.45-2c1.82-1.39 2.75-2.06 2.8-2.11v-9.8h-13.6Zm286.72 14.59a9.82 9.82 0 0 1-3.22 7.55 11.41 11.41 0 0 1-8.13 3 13.15 13.15 0 0 1-6.68-1.73 12.53 12.53 0 0 1-4.48-4l4.39-3.93a9.12 9.12 0 0 0 .89 1.15 8 8 0 0 0 5.88 2.54 5.34 5.34 0 0 0 3.74-1.25 4.3 4.3 0 0 0 1.35-3.44q0-2.5-3.22-3.44-6.37-1.93-6.86-2.16a11.83 11.83 0 0 1-4.25-3.25 10.18 10.18 0 0 1 1.68-12.72 10.77 10.77 0 0 1 7.51-2.82 12.79 12.79 0 0 1 6.12 1.48 10.59 10.59 0 0 1 4 3.3l-3.74 4.07a12.61 12.61 0 0 0-1.77-1.52 7.49 7.49 0 0 0-4.29-1.58 5.64 5.64 0 0 0-3.23.86 3.68 3.68 0 0 0-1.49 3.15 3.26 3.26 0 0 0 1.45 3 19.93 19.93 0 0 0 5.41 1.72 12.73 12.73 0 0 1 6.49 3.45 8.75 8.75 0 0 1 2.45 6.57Zm-75.17-23.58-2.94 6.79a9.24 9.24 0 0 0-1.17-.1 11.17 11.17 0 0 0-1.82.15 6.91 6.91 0 0 0-2 .67 7.58 7.58 0 0 0-3.41 3.68 14.9 14.9 0 0 0-1.64 6.84v15.59l-6.25 1V172l5.79-1v6.93c.74-1.2 1.54-2.39 2.28-3.63a9.28 9.28 0 0 1 3.74-2.68 17.57 17.57 0 0 1 4.15-.72 17.8 17.8 0 0 1 3.27-.21Zm-80.21 4.59c-.33-.43-.66-.91-1-1.34a11.51 11.51 0 0 0-3.5-2.44 16.6 16.6 0 0 0-6.82-1.29 15 15 0 0 0-11.53 5.16 17.91 17.91 0 0 0-4.72 12.44 17.13 17.13 0 0 0 4.76 12.1 15.42 15.42 0 0 0 11.7 5.09 15 15 0 0 0 6.39-1.39 15.3 15.3 0 0 0 3.74-2.58l1.26-1.44v5.69l5.88-.9.09-44.91-6.25.91Zm.65 13a10 10 0 0 1-3.59 7.7 11.6 11.6 0 0 1-7.94 3.06 9.55 9.55 0 0 1-7.47-3.3 12.21 12.21 0 0 1-2.94-8.42 11.26 11.26 0 0 1 2.85-7.7 10.16 10.16 0 0 1 7.89-3.3 10.54 10.54 0 0 1 7.79 3.49 11.51 11.51 0 0 1 3.41 8.47Zm123.86-14.11c1.54 2 2.29 5 2.29 8.85v21.38l-6.26.9v-22.85c0-2.1-.46-3.63-1.4-4.59a6.26 6.26 0 0 0-9.15 1.29 7.6 7.6 0 0 0-1.17 3.92v21.24l-6.23 1.15V182.6a6.93 6.93 0 0 0-1.36-4.59 4.66 4.66 0 0 0-3.73-1.58h-.61a5 5 0 0 0-4.76 2.77 11.12 11.12 0 0 0-1.12 5.31v19.8l-6.49 1.15V172l5.83-1v4.25a13.18 13.18 0 0 1 1.92-2.39 8.26 8.26 0 0 1 5.83-2.35 8 8 0 0 1 8.69 5.12 10.27 10.27 0 0 1 9.2-5.12c3.8-.02 6.65 1.18 8.52 3.62Zm-75.26-16.31 4 5.26-4.2 5.31-4-5.31ZM295.12 172l6.25-1v33.34l-6.25.86Zm-24.05-5.4v11.9h13.58v6.12h-13.58v19.71l-6.82 1V160.4h23l1.36 6.18ZM212.56 469l-5.56-5.57a4.88 4.88 0 0 0-6.91 0l-31.4 31.4a4.88 4.88 0 0 0 0 6.91l5.33 5.33 34.86-34.86a38.37 38.37 0 0 1 3.68-3.21ZM242.8 527.29a36.61 36.61 0 0 1-26.07-10.79 14.72 14.72 0 0 1 0-20.73l23.55-23.56.42-.4a27 27 0 0 0-24.91 7.31L180.93 514l53.43 53.43a23.6 23.6 0 0 0 32.16 1.16 18 18 0 0 0 15.77-14 18 18 0 0 0 11.45-8.14l-27.51-27.55a36.62 36.62 0 0 1-23.43 8.39ZM332.61 494.83l-31.4-31.4a4.88 4.88 0 0 0-6.91 0l-5.57 5.57a36.09 36.09 0 0 1 3.68 3.22l34.86 34.86 5.34-5.33a4.88 4.88 0 0 0 0-6.91Z"/><path class="cls-3" d="m247.19 479.12-23.55 23.56a4.88 4.88 0 0 0 0 6.91 27.12 27.12 0 0 0 38.31 0l4.4-4.4 31.4 31.41 22.61-22.6-34.86-34.88a27.09 27.09 0 0 0-38.31 0Z"/></svg>