<svg width="58" height="46" viewBox="0 0 58 46" fill="none" xmlns="http://www.w3.org/2000/svg">
<path d="M50.0256 13.3201C49.975 13.1888 49.8857 13.0759 49.7697 12.9964C49.6536 12.9168 49.5161 12.8742 49.3754 12.8742H48.4465V11.8896C48.682 10.5987 48.6501 9.27314 48.353 7.99498C48.0558 6.71683 47.4996 5.51322 46.7188 4.45855C44.6102 1.81123 40.904 0.464355 35.7115 0.464355C35.6122 0.467044 35.5144 0.489139 35.4235 0.529384C34.6848 0.86337 34.1028 1.46865 33.798 2.21993C32.8943 2.13048 31.9819 2.22423 31.1152 2.49555C30.2486 2.76688 29.4455 3.21022 28.7542 3.79905C26.8964 5.53606 26.144 8.5085 26.5805 12.6327L25.7632 12.9393C25.651 12.9786 25.551 13.0464 25.4728 13.1359C25.3947 13.2254 25.3411 13.3337 25.3173 13.4502C25.2244 13.9332 24.3884 18.2153 26.2462 19.9524C26.5138 20.2147 26.835 20.4161 27.1877 20.5427C27.5404 20.6694 27.9163 20.7183 28.2897 20.6862C28.6888 22.9792 29.8111 25.0844 31.4925 26.6939C33.1738 28.3034 35.326 29.3327 37.6343 29.6313H37.8387C40.0485 29.1865 42.0897 28.1321 43.7313 26.5874C45.3729 25.0426 46.5493 23.0692 47.1275 20.8905H48.0564C48.2335 20.889 48.4032 20.8191 48.5301 20.6954C49.4496 19.7323 50.0779 18.5287 50.3426 17.2237C50.6072 15.9186 50.4973 14.5654 50.0256 13.3201ZM27.9832 12.9764C27.4816 9.04725 28.0482 6.29773 29.6552 4.80223C30.2851 4.29525 31.0169 3.92997 31.8008 3.73121C32.5846 3.53245 33.402 3.50489 34.1974 3.65042C34.3014 3.66874 34.4081 3.66497 34.5105 3.63937C34.6129 3.61376 34.7088 3.56689 34.7919 3.5018C34.8746 3.43362 34.9397 3.34656 34.9818 3.24795C35.0238 3.14934 35.0415 3.04208 35.0334 2.93519C35.0334 2.36857 35.5908 2.0063 35.8415 1.82982C40.486 1.82982 43.7742 3.02808 45.5855 5.28527C46.2449 6.19087 46.7134 7.22104 46.9625 8.31324C47.2116 9.40543 47.2361 10.5369 47.0346 11.6388C47.0295 11.6913 47.0295 11.7442 47.0346 11.7967V13.5709C47.0346 13.7557 47.108 13.9329 47.2386 14.0635C47.3693 14.1942 47.5465 14.2676 47.7313 14.2676H48.9017C49.166 15.1646 49.1964 16.1144 48.9899 17.0266C48.7834 17.9387 48.3469 18.7828 47.722 19.4786H46.6352C46.4808 19.4793 46.331 19.5305 46.2085 19.6244C46.086 19.7184 45.9977 19.8499 45.9571 19.9988C44.1737 26.9004 38.526 28.0801 37.7458 28.2194C35.639 27.9525 33.6843 26.9815 32.1988 25.4639C30.7133 23.9464 29.7842 21.9714 29.5623 19.8595C29.5537 19.7597 29.5245 19.6627 29.4765 19.5748C29.4285 19.4869 29.3629 19.4098 29.2836 19.3486C29.1613 19.2614 29.0157 19.2129 28.8656 19.2092H28.7077C28.4418 19.3127 28.1519 19.338 27.8721 19.282C27.5922 19.2261 27.3343 19.0912 27.1286 18.8934C26.1997 17.9645 26.3205 15.4751 26.5434 14.0261L27.4723 13.6731C27.6276 13.6323 27.7637 13.5384 27.857 13.4078C27.9503 13.2771 27.9949 13.1179 27.9832 12.9578V12.9764Z" fill="#0066B3"/>
<path d="M29.3302 27.021C29.3302 27.021 27.0637 24.5038 26.8408 22.7296C26.8291 22.6206 26.7907 22.5162 26.7292 22.4255C26.6676 22.3348 26.5847 22.2606 26.4878 22.2094C25.5021 21.5734 24.6777 20.7171 24.0797 19.708C23.4816 18.6989 23.1262 17.5646 23.0416 16.3946C22.605 12.5026 24.5 11.8338 24.5743 11.8152C24.7182 11.7717 24.8445 11.6833 24.9347 11.563C25.025 11.4427 25.0744 11.2968 25.0759 11.1464V7.62594C25.1551 6.2369 25.6431 4.90226 26.4785 3.78965C26.5526 3.70722 26.6063 3.60849 26.6352 3.50144C26.6641 3.39439 26.6674 3.28204 26.6448 3.17349C26.6222 3.06494 26.5743 2.96324 26.5051 2.87664C26.4358 2.79003 26.3472 2.72095 26.2463 2.675C25.2053 2.23943 24.0863 2.02132 22.958 2.03407C22.345 1.25381 20.8401 0.120558 17.3011 0.42709C15.3495 0.478133 13.4656 1.15338 11.9259 2.35371C10.3862 3.55405 9.27175 5.21626 8.74611 7.09647C8.69967 7.21722 7.69648 10.0596 7.18559 17.9551C6.92551 21.9772 5.94084 23.6027 5.16058 24.253C4.89322 24.506 4.54372 24.6544 4.17596 24.671C4.01609 24.6483 3.8533 24.6811 3.71469 24.7639C3.57609 24.8467 3.47003 24.9746 3.41427 25.1261C3.35954 25.2769 3.3593 25.4422 3.41359 25.5932C3.46788 25.7441 3.57328 25.8714 3.71152 25.9528C6.84789 27.7608 10.3848 28.7599 14.0036 28.8602H14.1243L14.3658 31.2382L15.8613 36.4585C15.8987 36.5997 15.98 36.7254 16.0936 36.8172C16.2072 36.9091 16.3471 36.9624 16.493 36.9694C16.6334 36.9682 16.7703 36.9251 16.8861 36.8457C17.002 36.7663 17.0915 36.6541 17.1432 36.5235C17.1432 36.5235 18.23 33.9227 23.6454 31.5819C23.7707 31.5285 23.8774 31.439 23.9518 31.3249C24.0262 31.2108 24.0651 31.0772 24.0634 30.9409V28.8324C25.7692 28.831 27.4666 28.5934 29.1072 28.1264C29.208 28.0818 29.2967 28.0139 29.3662 27.9283C29.4356 27.8427 29.4838 27.7419 29.5066 27.6341C29.5298 27.5253 29.5258 27.4124 29.495 27.3055C29.4642 27.1986 29.4076 27.1009 29.3302 27.021ZM14.7281 27.4576C11.6642 27.4905 8.63423 26.8133 5.87583 25.4791L6.02449 25.3676C7.50141 24.1879 8.36524 21.7171 8.59746 18.0387C9.08977 10.4869 10.0465 7.6724 10.0929 7.55164C10.5157 5.9373 11.4521 4.50424 12.7607 3.46873C14.0693 2.43321 15.6792 1.85141 17.3475 1.81112C21.2024 1.4953 21.9919 3.01868 21.9919 3.01868C22.0527 3.1675 22.1619 3.29152 22.3017 3.37073C22.4416 3.44994 22.6041 3.47971 22.7629 3.45526C23.4761 3.37558 24.198 3.44838 24.8808 3.66889C24.2024 4.87034 23.8084 6.2113 23.729 7.58878V10.7098C22.8837 11.2022 21.2674 12.6791 21.704 16.5525C21.8183 17.8837 22.2236 19.1735 22.8914 20.3308C23.5591 21.4881 24.4729 22.4846 25.5682 23.2498C25.9867 24.6633 26.6918 25.9755 27.6396 27.1046C26.234 27.3169 24.8159 27.4348 23.3946 27.4576C23.2114 27.4601 23.0366 27.5345 22.908 27.6649C22.7793 27.7953 22.7072 27.9711 22.7072 28.1543V30.4858C20.4525 31.4023 18.4332 32.8152 16.7995 34.6193L15.7127 30.9688L15.4248 28.0707C15.4043 27.9008 15.3219 27.7443 15.1934 27.6313C15.0649 27.5182 14.8993 27.4564 14.7281 27.4576Z" fill="black"/>
<path d="M16.4929 44.4098C16.116 43.2799 16.0109 42.0769 16.1864 40.8987C16.1956 40.803 16.1847 40.7064 16.1543 40.6152C16.1239 40.524 16.0748 40.4402 16.01 40.3692L13.2233 37.3225C13.1577 37.2526 13.0786 37.1968 12.9908 37.1584C12.9029 37.1201 12.8082 37.1001 12.7124 37.0995H8.99685L13.2512 31.359C13.3334 31.2485 13.3811 31.1161 13.3881 30.9785C13.3952 30.8409 13.3612 30.7043 13.2906 30.586C13.22 30.4677 13.116 30.373 12.9915 30.3138C12.8671 30.2547 12.7279 30.2337 12.5916 30.2537C0.209601 32.1114 0.107422 39.0223 0.107422 39.3195V43.3323C0.107584 43.517 0.181119 43.6941 0.311806 43.8246L1.88162 45.3945C2.01215 45.5251 2.1892 45.5986 2.3739 45.5988H15.9821C16.1194 45.5997 16.2538 45.5595 16.368 45.4834C16.4822 45.4072 16.5711 45.2986 16.623 45.1715C16.6789 45.0459 16.6964 44.9066 16.6732 44.771C16.6501 44.6355 16.5874 44.5098 16.4929 44.4098ZM7.06481 37.3782C6.98842 37.4831 6.94201 37.6068 6.93056 37.7361C6.9191 37.8654 6.94303 37.9953 6.99978 38.112C7.059 38.2261 7.14823 38.322 7.25791 38.3891C7.36759 38.4562 7.49353 38.4921 7.62212 38.4929H12.3966L14.7745 41.0937C14.6993 42.1342 14.7586 43.1801 14.951 44.2055H2.67115L1.51005 43.0444V39.3288C1.51005 39.1059 1.6401 33.9042 11.0961 31.9442L7.06481 37.3782Z" fill="black"/>
<path d="M53.7402 34.0897L46.3741 31.5539C46.2859 31.5183 46.1914 31.501 46.0963 31.5029C46.0012 31.5048 45.9074 31.5259 45.8206 31.5649C45.7339 31.604 45.6559 31.6601 45.5914 31.7301C45.5269 31.8 45.4772 31.8823 45.4452 31.9719L42.3614 40.3318L39.9091 36.7928V36.5884C40.643 36.0125 42.092 34.6564 41.9062 33.1144C41.6833 31.331 40.1042 30.2163 37.7262 30.2163C35.3483 30.2163 33.8249 31.331 33.602 33.1144C33.4162 34.6564 34.8653 36.0125 35.5991 36.5884V36.7928L33.1468 40.3318L30.0629 31.9719C30.031 31.8823 29.9813 31.8 29.9168 31.7301C29.8523 31.6601 29.7744 31.604 29.6876 31.5649C29.6009 31.5259 29.5071 31.5048 29.412 31.5029C29.3168 31.501 29.2223 31.5183 29.134 31.5539L21.703 34.1083C21.5451 34.1826 17.7645 35.8454 17.4766 39.5702V43.0442C17.6172 43.6447 17.9123 44.1981 18.3327 44.6494C18.7531 45.1007 19.2841 45.4343 19.8731 45.6172C19.9409 45.6263 20.0096 45.6263 20.0774 45.6172H55.2822C55.35 45.6263 55.4187 45.6263 55.4865 45.6172C56.0967 45.4302 56.6437 45.0793 57.068 44.6026C57.4922 44.1259 57.7774 43.5418 57.8923 42.9141V39.5144C57.7251 35.8175 53.9167 34.164 53.7402 34.0897ZM36.9089 37.4709C36.9917 37.354 37.037 37.2147 37.0389 37.0715V36.3098C37.0406 36.198 37.0144 36.0876 36.9624 35.9886C36.9105 35.8896 36.8346 35.8053 36.7416 35.7432C36.0264 35.2416 34.8839 34.1455 35.0325 33.3466C35.1625 32.297 36.1843 31.6747 37.8191 31.6747C39.454 31.6747 40.4293 32.297 40.6058 33.3466C40.708 34.1455 39.6119 35.2044 38.9059 35.7339C38.8111 35.797 38.7335 35.8826 38.68 35.9831C38.6265 36.0837 38.5988 36.1959 38.5994 36.3098V37.0715C38.6012 37.2147 38.6466 37.354 38.7294 37.4709L42.0642 42.2918C42.1369 42.3965 42.237 42.4792 42.3536 42.5309C42.4701 42.5827 42.5987 42.6014 42.7252 42.5851C42.8516 42.5688 42.9712 42.5181 43.0708 42.4386C43.1705 42.359 43.2464 42.2536 43.2903 42.1339L46.6064 33.133L53.2758 35.4273C53.2758 35.4273 56.4432 36.8207 56.6569 39.6073V42.7748C56.5739 43.1115 56.4081 43.4222 56.1745 43.6785C55.9409 43.9348 55.6469 44.1287 55.3193 44.2425H20.3189C20.005 44.1321 19.7208 43.9506 19.4888 43.7121C19.2567 43.4736 19.083 43.1846 18.9814 42.8677V39.663C19.1857 36.9786 21.9817 35.6038 22.3254 35.4366L29.0319 33.133L32.348 42.1339C32.3956 42.2536 32.4739 42.3587 32.575 42.4386C32.6761 42.5185 32.7964 42.5704 32.9239 42.5891C33.0501 42.5998 33.1769 42.5781 33.2923 42.5261C33.4077 42.4741 33.5079 42.3934 33.5834 42.2918L36.9089 37.4709Z" fill="#0066B3"/>
</svg>
