<svg width="52" height="57" viewBox="0 0 52 57" fill="none" xmlns="http://www.w3.org/2000/svg">
<path d="M43.3195 26.0494H36.8971C36.7877 26.0494 36.6827 26.006 36.6053 25.9286C36.5279 25.8511 36.4844 25.7461 36.4844 25.6367V23.4656C36.4844 23.3561 36.5279 23.2512 36.6053 23.1738C36.6827 23.0963 36.7877 23.0529 36.8971 23.0529H43.2865C43.396 23.0529 43.501 23.0963 43.5784 23.1738C43.6558 23.2512 43.6992 23.3561 43.6992 23.4656V25.6367C43.6996 25.7407 43.6607 25.8409 43.5903 25.9175C43.5199 25.994 43.4232 26.0411 43.3195 26.0494ZM37.3429 25.2239H42.9068V23.8784H37.3429V25.2239Z" fill="black"/>
<path d="M43.3195 29.6407H36.8971C36.7877 29.6407 36.6827 29.5972 36.6053 29.5198C36.5279 29.4424 36.4844 29.3374 36.4844 29.2279V27.3128C36.4865 27.204 36.5307 27.1002 36.6076 27.0233C36.6846 26.9463 36.7883 26.9021 36.8971 26.9H43.2865C43.396 26.9 43.501 26.9435 43.5784 27.0209C43.6558 27.0983 43.6992 27.2033 43.6992 27.3128V29.2279C43.6996 29.3319 43.6607 29.4322 43.5903 29.5087C43.5199 29.5852 43.4232 29.6324 43.3195 29.6407ZM37.3429 28.8152H42.9068V27.7255H37.3429V28.8152Z" fill="black"/>
<path d="M42.2698 33.2315H37.9772C37.8677 33.2315 37.7628 33.188 37.6854 33.1106C37.6079 33.0332 37.5645 32.9282 37.5645 32.8188V30.9036C37.5666 30.7948 37.6107 30.691 37.6877 30.6141C37.7646 30.5371 37.8684 30.493 37.9772 30.4908H42.2698C42.3793 30.4908 42.4843 30.5343 42.5617 30.6117C42.6391 30.6891 42.6826 30.7941 42.6826 30.9036V32.8188C42.6826 32.9282 42.6391 33.0332 42.5617 33.1106C42.4843 33.188 42.3793 33.2315 42.2698 33.2315ZM38.39 32.406H41.8488V31.3163H38.3817L38.39 32.406Z" fill="black"/>
<path d="M35.9619 20.5105C35.8908 20.5222 35.8183 20.5222 35.7473 20.5105C33.5814 19.5926 31.7875 17.9724 30.6545 15.9109C29.5215 13.8494 29.1154 11.4665 29.5014 9.14609C29.8875 6.82564 31.0434 4.70266 32.7829 3.11907C34.5223 1.53547 36.7442 0.583427 39.0906 0.416264C41.437 0.249101 43.7714 0.876556 45.7178 2.19756C47.6642 3.51856 49.1093 5.45624 49.8204 7.69852C50.5316 9.9408 50.4673 12.3572 49.638 14.5585C48.8087 16.7598 47.2626 18.6179 45.2488 19.8336L44.9516 19.3961L44.5719 19.0164C44.6094 18.9789 44.6509 18.9457 44.6957 18.9173C46.4968 17.8283 47.8792 16.165 48.6205 14.1951C49.3617 12.2251 49.4187 10.0631 48.7823 8.05688C48.1459 6.05063 46.853 4.31682 45.1118 3.13441C43.3705 1.952 41.2821 1.38976 39.1826 1.53813C37.083 1.6865 35.0944 2.53684 33.5368 3.95238C31.9791 5.36791 30.9429 7.26633 30.595 9.34214C30.247 11.4179 30.6075 13.5505 31.6184 15.3966C32.6293 17.2427 34.2319 18.695 36.1683 19.5199C36.2828 19.5676 36.3772 19.6535 36.4355 19.763C36.4938 19.8725 36.5124 19.9988 36.4881 20.1204C36.4637 20.2421 36.398 20.3515 36.3021 20.4302C36.2062 20.5088 36.0859 20.5518 35.9619 20.5518V20.5105Z" fill="#0066B3"/>
<path d="M43.8969 21.6084H41.0242C40.9517 21.6085 40.88 21.5939 40.8133 21.5655C40.7466 21.5371 40.6864 21.4956 40.6362 21.4433C40.5857 21.3926 40.5464 21.3319 40.5208 21.265C40.4952 21.1982 40.4839 21.1267 40.4876 21.0553L40.5784 17.5552C40.5808 17.4182 40.6372 17.2876 40.7353 17.1919L43.9465 13.9807C44.0118 13.9176 44.0637 13.8419 44.0992 13.7582C44.1346 13.6745 44.1529 13.5846 44.1528 13.4937C44.1515 13.308 44.0774 13.1301 43.9465 12.9984C43.8153 12.8698 43.639 12.7978 43.4553 12.7978C43.2716 12.7978 43.0953 12.8698 42.9641 12.9984L40.3308 15.6235C40.2809 15.6734 40.2218 15.713 40.1566 15.74C40.0914 15.7671 40.0216 15.781 39.9511 15.781C39.8805 15.781 39.8107 15.7671 39.7455 15.74C39.6804 15.713 39.6211 15.6734 39.5713 15.6235L36.8967 12.9736C36.774 12.8575 36.6116 12.7928 36.4427 12.7928C36.2738 12.7928 36.1113 12.8575 35.9886 12.9736C35.9297 13.032 35.883 13.1014 35.8511 13.1779C35.8192 13.2544 35.8027 13.3365 35.8027 13.4194C35.8027 13.5023 35.8192 13.5844 35.8511 13.6609C35.883 13.7374 35.9297 13.8068 35.9886 13.8652L39.2246 17.0929C39.3244 17.1941 39.3807 17.3304 39.3815 17.4726V21.0635C39.3815 21.2059 39.3249 21.3423 39.2243 21.4429C39.1237 21.5436 38.9872 21.6001 38.8449 21.6001H36.3684C36.295 21.6012 36.2222 21.5863 36.1552 21.5564C36.0882 21.5264 36.0285 21.4822 35.9804 21.4267C35.9282 21.3741 35.8886 21.3104 35.8643 21.2404C35.84 21.1704 35.8317 21.0959 35.8401 21.0223C35.8003 20.7597 35.6824 20.5151 35.5016 20.3206C35.4408 20.2098 35.4211 20.0812 35.4458 19.9574C35.4706 19.8335 35.5382 19.7224 35.6368 19.6435C35.7354 19.5646 35.8587 19.523 35.985 19.526C36.1113 19.5291 36.2324 19.5766 36.3271 19.6602C36.531 19.9072 36.6928 20.1861 36.8059 20.4857H38.2835V17.7038L35.2457 14.6329C35.0867 14.4742 34.9606 14.2857 34.8745 14.0782C34.7884 13.8706 34.7441 13.6482 34.7441 13.4235C34.7441 13.1989 34.7884 12.9764 34.8745 12.7689C34.9606 12.5614 35.0867 12.3729 35.2457 12.2142C35.57 11.9034 36.0018 11.7299 36.4509 11.7299C36.9001 11.7299 37.3319 11.9034 37.6562 12.2142L39.9345 14.4925L42.1882 12.2472C42.5225 11.9302 42.9657 11.7535 43.4264 11.7535C43.8871 11.7535 44.3303 11.9302 44.6647 12.2472C44.8274 12.4097 44.9565 12.6027 45.0446 12.8152C45.1327 13.0277 45.178 13.2554 45.178 13.4854C45.178 13.7154 45.1327 13.9432 45.0446 14.1557C44.9565 14.3681 44.8274 14.5611 44.6647 14.7237L41.6103 17.778L41.5443 20.5104H43.3191V20.3288C43.3195 20.2485 43.3375 20.1692 43.3717 20.0965C43.4059 20.0238 43.4556 19.9594 43.5172 19.9078C43.878 19.6102 44.2225 19.2933 44.5491 18.9585C44.5983 18.9076 44.6574 18.8671 44.7226 18.8394C44.7878 18.8118 44.858 18.7975 44.9288 18.7975C44.9997 18.7975 45.0698 18.8118 45.135 18.8394C45.2003 18.8671 45.2593 18.9076 45.3085 18.9585C45.3592 19.007 45.3996 19.0654 45.4271 19.1299C45.4547 19.1945 45.4689 19.2639 45.4689 19.3341C45.4689 19.4043 45.4547 19.4738 45.4271 19.5383C45.3996 19.6029 45.3592 19.6612 45.3085 19.7097C44.9123 20.1142 44.5903 20.4031 44.3922 20.5765V21.047C44.3991 21.1867 44.3512 21.3235 44.2587 21.4283C44.1661 21.5332 44.0364 21.5978 43.8969 21.6084Z" fill="#0066B3"/>
<path d="M51.6727 55.1321C51.6727 55.3292 51.5944 55.5181 51.4551 55.6574C51.3158 55.7968 51.1268 55.8751 50.9298 55.8751C50.7327 55.8751 50.5438 55.7968 50.4044 55.6574C50.2651 55.5181 50.1868 55.3292 50.1868 55.1321L48.8495 46.5717C48.7422 46.1919 47.7846 42.8734 45.919 42.081L34.4198 36.6574L28.3441 48.8088C28.2816 48.9326 28.1861 49.0367 28.068 49.1095C27.95 49.1824 27.8141 49.2212 27.6754 49.2215H24.3074C24.1695 49.2225 24.0342 49.1842 23.9172 49.1111C23.8003 49.038 23.7066 48.9332 23.647 48.8088L17.5218 36.6491L7.09571 41.404L6.9141 41.4618C6.87282 41.4618 1.8703 42.7496 1.80426 55.6109C1.80426 55.8079 1.72598 55.9969 1.58665 56.1362C1.44732 56.2756 1.25835 56.3539 1.0613 56.3539C0.864262 56.3539 0.675288 56.2756 0.535958 56.1362C0.396627 55.9969 0.318359 55.8079 0.318359 55.6109C0.384399 42.1883 5.53553 40.2649 6.5674 40.0172L17.5548 34.9981C17.7289 34.9163 17.9284 34.9068 18.1094 34.9718C18.2905 35.0368 18.4384 35.171 18.5206 35.3449L24.7614 47.7274H27.2379L33.4374 35.3449C33.5244 35.1713 33.676 35.0386 33.8596 34.9754C34.0432 34.9121 34.2443 34.9232 34.4198 35.0064L46.5464 40.7271C49.188 41.8663 50.2776 46.0929 50.3189 46.2745L51.681 55.0248C51.6823 55.0608 51.6796 55.0968 51.6727 55.1321Z" fill="#0066B3"/>
<path d="M35.1191 31.1098C35.1158 31.2069 35.093 31.3023 35.0518 31.3903C35.0107 31.4782 34.9521 31.5569 34.8797 31.6216C33.3088 33.0698 31.4082 34.1127 29.3428 34.6596C27.2774 35.2066 25.1097 35.241 23.028 34.7601C20.9463 34.2791 19.0135 33.2971 17.3974 31.8996C15.7813 30.502 14.5308 28.7311 13.7545 26.7405C12.9782 24.75 12.6995 22.6001 12.9427 20.4774C13.186 18.3547 13.9437 16.3235 15.1501 14.5601C16.3566 12.7968 17.9752 11.3546 19.8656 10.3588C21.7559 9.36299 23.8607 8.84373 25.9973 8.84608H26.7403C26.8373 8.8493 26.9327 8.87219 27.0207 8.91334C27.1086 8.95449 27.1874 9.01304 27.2521 9.08548C27.3197 9.15686 27.3721 9.24121 27.4061 9.33345C27.4402 9.42568 27.4552 9.52386 27.4502 9.62205C27.4395 9.81989 27.3511 10.0055 27.2042 10.1385C27.0573 10.2714 26.8639 10.341 26.6659 10.332C26.4513 10.332 26.2202 10.332 25.9973 10.332C24.1028 10.3302 22.2366 10.7908 20.5605 11.6738C18.8845 12.5569 17.4493 13.8357 16.3796 15.3992C15.3098 16.9628 14.6379 18.7638 14.4222 20.6459C14.2064 22.528 14.4533 24.4344 15.1415 26.1994C15.8296 27.9645 16.9382 29.5349 18.3709 30.7743C19.8036 32.0138 21.5173 32.8848 23.363 33.3117C25.2087 33.7386 27.1308 33.7085 28.9622 33.2241C30.7937 32.7397 32.4793 31.8156 33.8726 30.532C33.9437 30.465 34.0274 30.4128 34.1189 30.3785C34.2104 30.3443 34.3078 30.3286 34.4054 30.3325C34.503 30.3363 34.5989 30.3596 34.6875 30.4009C34.776 30.4423 34.8553 30.5009 34.9209 30.5732C35.0544 30.7195 35.1255 30.912 35.1191 31.1098Z" fill="black"/>
</svg>
