<svg width="48" height="60" viewBox="0 0 48 60" fill="none" xmlns="http://www.w3.org/2000/svg">
<path d="M36.7438 24.53C36.5228 24.5293 36.3083 24.4555 36.1338 24.32L28.9338 18.53H27.4438C27.1786 18.53 26.9242 18.4247 26.7367 18.2371C26.5491 18.0496 26.4438 17.7952 26.4438 17.53C26.4438 17.2648 26.5491 17.0104 26.7367 16.8229C26.9242 16.6354 27.1786 16.53 27.4438 16.53H29.2838C29.5093 16.5313 29.7279 16.6088 29.9038 16.75L34.8138 20.75L33.8138 17.7C33.7689 17.5517 33.7591 17.3951 33.7851 17.2423C33.8112 17.0896 33.8723 16.945 33.9638 16.82C34.0549 16.6953 34.1736 16.5934 34.3107 16.5222C34.4477 16.4511 34.5994 16.4127 34.7538 16.41H38.3038V2H12.8838V4.42999C12.8838 4.69521 12.7784 4.94958 12.5909 5.13712C12.4034 5.32465 12.149 5.42999 11.8838 5.42999C11.6186 5.42999 11.3642 5.32465 11.1767 5.13712C10.9891 4.94958 10.8838 4.69521 10.8838 4.42999V1C10.8838 0.734784 10.9891 0.480444 11.1767 0.292908C11.3642 0.105371 11.6186 0 11.8838 0H39.2738C39.539 0 39.7934 0.105371 39.9809 0.292908C40.1684 0.480444 40.2738 0.734784 40.2738 1V17.4C40.2738 17.6652 40.1684 17.9196 39.9809 18.1071C39.7934 18.2947 39.539 18.4 39.2738 18.4H36.0938L37.6538 23.29C37.7155 23.4915 37.7119 23.7073 37.6437 23.9066C37.5754 24.1059 37.446 24.2786 37.2738 24.4C37.1126 24.4916 36.9291 24.5366 36.7438 24.53Z" fill="#232323"/>
<path d="M6.70364 25C6.5042 25.0005 6.30917 24.9413 6.14363 24.83C5.96915 24.7061 5.83905 24.5294 5.77245 24.326C5.70584 24.1226 5.70626 23.9032 5.77364 23.7L6.90364 20.39H4.72363C4.45842 20.39 4.20406 20.2847 4.01653 20.0971C3.82899 19.9096 3.72363 19.6553 3.72363 19.39V7.54004C3.72363 7.27482 3.82899 7.02045 4.01653 6.83292C4.20406 6.64538 4.45842 6.54004 4.72363 6.54004H24.3336C24.5988 6.54004 24.8532 6.64538 25.0407 6.83292C25.2283 7.02045 25.3336 7.27482 25.3336 7.54004V19.3C25.3336 19.5652 25.2283 19.8196 25.0407 20.0071C24.8532 20.1947 24.5988 20.3 24.3336 20.3H12.5736L7.33363 24.75C7.16203 24.9088 6.93743 24.9979 6.70364 25ZM5.70364 18.42H8.28363C8.44058 18.4224 8.5948 18.4616 8.73378 18.5345C8.87276 18.6075 8.99261 18.7121 9.08363 18.84C9.17796 18.9657 9.23928 19.113 9.26199 19.2685C9.2847 19.4239 9.26808 19.5826 9.21364 19.73L8.79364 20.95L11.5736 18.59C11.7522 18.4373 11.9787 18.3524 12.2136 18.35H23.3536V8.56003H5.70364V18.42Z" fill="#0066B3"/>
<path d="M16.2832 41.4701C14.661 41.472 13.0746 40.9928 11.7248 40.093C10.375 39.1932 9.32248 37.9132 8.70031 36.415C8.07814 34.9168 7.91432 33.2678 8.22959 31.6765C8.54486 30.0852 9.32503 28.6231 10.4714 27.4753C11.6178 26.3276 13.0789 25.5456 14.6698 25.2284C16.2607 24.9112 17.91 25.073 19.4089 25.6933C20.9079 26.3136 22.1891 27.3647 23.0906 28.7134C23.9921 30.0621 24.4732 31.6478 24.4732 33.2701C24.4732 35.4431 23.6107 37.5273 22.0751 39.0648C20.5394 40.6023 18.4563 41.4674 16.2832 41.4701ZM16.2832 27.0501C15.0502 27.0481 13.8443 27.412 12.8183 28.0958C11.7922 28.7796 10.9922 29.7525 10.5194 30.8913C10.0466 32.0301 9.92241 33.2836 10.1625 34.493C10.4025 35.7024 10.9961 36.8135 11.868 37.6853C12.7399 38.5572 13.8509 39.1508 15.0603 39.3908C16.2697 39.6309 17.5232 39.5067 18.662 39.0339C19.8008 38.5611 20.7737 37.7611 21.4575 36.735C22.1413 35.709 22.5052 34.5031 22.5032 33.2701C22.5006 31.6212 21.8444 30.0407 20.6785 28.8748C19.5126 27.7089 17.9321 27.0527 16.2832 27.0501Z" fill="#232323"/>
<path d="M31.7138 60H1.88379C1.63187 60.0008 1.38892 59.9065 1.20352 59.736C1.01812 59.5654 0.903942 59.3311 0.883789 59.08C0.883789 58.88 0.883789 58.7 0.883789 58.5C0.98787 54.3482 2.7103 50.4014 5.68359 47.5017C8.65689 44.602 12.6456 42.979 16.7988 42.979C20.9519 42.979 24.9407 44.602 27.914 47.5017C30.8873 50.4014 32.6097 54.3482 32.7138 58.5C32.7138 58.7 32.7138 58.88 32.7138 59.08C32.6936 59.3311 32.5794 59.5654 32.394 59.736C32.2086 59.9065 31.9657 60.0008 31.7138 60ZM2.88379 58H30.7638C30.6272 54.3943 29.0987 50.9817 26.4994 48.479C23.9001 45.9763 20.4321 44.5782 16.8238 44.5782C13.2155 44.5782 9.74749 45.9763 7.14816 48.479C4.54884 50.9817 3.02039 54.3943 2.88379 58Z" fill="#232323"/>
<path d="M34.6943 39.0499C33.4423 39.0499 32.2185 38.6787 31.1775 37.9831C30.1365 37.2876 29.3252 36.2989 28.8461 35.1423C28.367 33.9856 28.2416 32.7129 28.4859 31.485C28.7301 30.2571 29.333 29.1292 30.2183 28.2439C31.1035 27.3586 32.2314 26.7558 33.4593 26.5115C34.6872 26.2673 35.96 26.3926 37.1167 26.8717C38.2733 27.3509 39.2619 28.1622 39.9575 29.2031C40.653 30.2441 41.0243 31.4679 41.0243 32.7199C41.0216 34.3979 40.3539 36.0064 39.1673 37.1929C37.9808 38.3795 36.3723 39.0472 34.6943 39.0499ZM34.6943 28.3599C33.8319 28.3599 32.989 28.6156 32.272 29.0947C31.555 29.5738 30.9962 30.2547 30.6662 31.0514C30.3362 31.8481 30.2498 32.7247 30.418 33.5705C30.5863 34.4162 31.0015 35.1931 31.6113 35.8029C32.221 36.4126 32.9979 36.8279 33.8437 36.9961C34.6894 37.1643 35.5661 37.078 36.3628 36.748C37.1595 36.418 37.8404 35.8592 38.3195 35.1422C38.7986 34.4252 39.0543 33.5822 39.0543 32.7199C39.0516 31.5644 38.5914 30.4569 37.7743 29.6398C36.9572 28.8227 35.8498 28.3625 34.6943 28.3599Z" fill="#0066B3"/>
<path d="M46.1341 52.8H32.8841C32.6189 52.8 32.3645 52.6946 32.177 52.5071C31.9894 52.3196 31.8841 52.0652 31.8841 51.8C31.8841 51.5348 31.9894 51.2804 32.177 51.0929C32.3645 50.9054 32.6189 50.8 32.8841 50.8H45.1141C44.9636 48.231 43.8372 45.8165 41.9653 44.0506C40.0934 42.2847 37.6175 41.3007 35.0441 41.3C33.5285 41.2948 32.0316 41.6343 30.6665 42.2926C29.3014 42.9509 28.1037 43.9109 27.1641 45.1C26.9891 45.2592 26.7633 45.3512 26.5268 45.3596C26.2904 45.368 26.0586 45.2924 25.8727 45.146C25.6868 44.9997 25.5588 44.7922 25.5115 44.5604C25.4641 44.3286 25.5005 44.0875 25.6141 43.88C27.1726 41.9251 29.3001 40.5029 31.7022 39.8101C34.1044 39.1174 36.6625 39.1883 39.0227 40.0131C41.3828 40.8378 43.4282 42.3757 44.876 44.4139C46.3238 46.4521 47.1024 48.8899 47.1041 51.39C47.1193 51.5664 47.1193 51.7437 47.1041 51.92C47.0753 52.1588 46.9613 52.3793 46.7832 52.5409C46.605 52.7025 46.3746 52.7945 46.1341 52.8Z" fill="#0066B3"/>
</svg>
