<svg width="59" height="39" viewBox="0 0 59 39" fill="none" xmlns="http://www.w3.org/2000/svg">
<path d="M12.251 25.4549C12.1476 25.4544 12.0466 25.4231 11.9611 25.3649L9.27105 23.485C9.16525 23.4135 9.09075 23.3043 9.06286 23.1797C9.03497 23.0552 9.05578 22.9247 9.12103 22.8149L16.231 10.9049C16.2706 10.8324 16.3281 10.7712 16.3982 10.7274C16.4683 10.6836 16.5485 10.6587 16.631 10.6549C20.281 10.4449 27.531 9.56493 27.631 9.55493H27.791C28.7029 9.6901 29.5345 10.1521 30.131 10.8549C30.2117 10.9598 30.2475 11.0923 30.2306 11.2235C30.2138 11.3547 30.1456 11.4739 30.041 11.5549C29.9353 11.6331 29.8034 11.6673 29.673 11.6506C29.5425 11.6338 29.4236 11.5673 29.341 11.4649C28.9178 10.9841 28.3425 10.6629 27.7111 10.5549C26.9711 10.6449 20.561 11.4149 17.001 11.6449L10.2711 22.9249L12.5811 24.545C12.6356 24.5811 12.6823 24.6279 12.7185 24.6824C12.7546 24.7369 12.7795 24.7982 12.7917 24.8625C12.8038 24.9268 12.8029 24.9929 12.789 25.0569C12.7752 25.1209 12.7487 25.1814 12.7111 25.235C12.6612 25.3095 12.5921 25.3693 12.5112 25.408C12.4303 25.4467 12.3404 25.4629 12.251 25.4549Z" fill="#0066B3"/>
<path d="M12.2504 25.7049C12.096 25.7043 11.9456 25.6553 11.8204 25.5649L9.12038 23.6849C8.96547 23.5757 8.85771 23.4118 8.81875 23.2262C8.77978 23.0407 8.81253 22.8473 8.91039 22.6849L16.0104 10.7749C16.0737 10.6699 16.1612 10.5816 16.2656 10.5172C16.3699 10.4529 16.4882 10.4144 16.6104 10.4049C20.1804 10.2049 27.2704 9.34493 27.6104 9.30493H27.8104C28.7916 9.44453 29.6861 9.94342 30.3204 10.7049C30.3862 10.7825 30.4355 10.8726 30.4654 10.9698C30.4953 11.067 30.5051 11.1693 30.4942 11.2704C30.4833 11.3715 30.452 11.4694 30.4022 11.558C30.3523 11.6466 30.2849 11.7242 30.2041 11.7859C30.1233 11.8477 30.0308 11.8924 29.9322 11.9174C29.8336 11.9423 29.731 11.9468 29.6305 11.9308C29.5301 11.9149 29.434 11.8786 29.348 11.8243C29.262 11.77 29.188 11.6987 29.1304 11.6149C28.7512 11.1955 28.2457 10.9112 27.6904 10.8049C26.4404 10.9649 20.5604 11.6549 17.1404 11.8849L10.5904 22.8849L12.7204 24.3649C12.8535 24.4555 12.954 24.5866 13.0069 24.7387C13.0597 24.8908 13.0623 25.0559 13.014 25.2096C12.9658 25.3632 12.8694 25.4973 12.7391 25.5919C12.6087 25.6865 12.4514 25.7367 12.2904 25.735L12.2504 25.7049ZM27.6704 9.80493C27.3704 9.80493 20.2604 10.6949 16.6704 10.9049C16.6304 10.9094 16.5918 10.9224 16.5573 10.9431C16.5228 10.9638 16.4931 10.9917 16.4704 11.0249L9.37038 22.9449C9.33629 22.9981 9.32453 23.0625 9.33764 23.1243C9.35074 23.1861 9.38765 23.2402 9.44039 23.2749L12.1304 25.1549C12.1573 25.174 12.1877 25.1875 12.2199 25.1948C12.252 25.2021 12.2853 25.203 12.3178 25.1974C12.3503 25.1918 12.3814 25.1799 12.4093 25.1624C12.4372 25.1448 12.4614 25.1219 12.4804 25.0949C12.4994 25.068 12.513 25.0376 12.5203 25.0055C12.5276 24.9733 12.5284 24.94 12.5229 24.9075C12.5173 24.875 12.5054 24.8439 12.4878 24.816C12.4702 24.7881 12.4473 24.764 12.4204 24.7449L9.9204 23.0049L16.7904 11.3949H16.9304C20.3504 11.1749 26.4304 10.4549 27.6204 10.3049H27.6904C28.3821 10.4286 29.0124 10.7807 29.4804 11.3049C29.5001 11.3312 29.5248 11.3533 29.553 11.3701C29.5813 11.3868 29.6125 11.3978 29.645 11.4024C29.6775 11.4071 29.7106 11.4053 29.7425 11.3971C29.7743 11.389 29.8041 11.3746 29.8304 11.3549C29.8567 11.3353 29.8788 11.3106 29.8955 11.2823C29.9123 11.2541 29.9232 11.2228 29.9279 11.1903C29.9325 11.1578 29.9307 11.1247 29.9226 11.0929C29.9144 11.0611 29.9001 11.0312 29.8804 11.0049C29.3198 10.3529 28.5416 9.9265 27.6904 9.80493H27.6704Z" fill="#0066B3"/>
<path d="M53.5718 23.025C53.4894 23.0242 53.4083 23.0039 53.3353 22.9656C53.2623 22.9274 53.1994 22.8723 53.1518 22.805L43.8718 8.88499C43.8025 8.77997 43.7753 8.65265 43.7957 8.52845C43.8161 8.40426 43.8825 8.29231 43.9818 8.21498L53.2618 0.754986C53.3259 0.700948 53.4033 0.665018 53.4859 0.650951C53.5686 0.636885 53.6535 0.645177 53.7318 0.674969C53.8118 0.700855 53.884 0.746513 53.9417 0.80769C53.9993 0.868867 54.0407 0.943594 54.0618 1.02497L58.7018 20.095C58.7266 20.2051 58.7135 20.3204 58.6644 20.422C58.6154 20.5237 58.5334 20.6058 58.4318 20.655L53.7918 22.975C53.7244 23.0114 53.6483 23.0287 53.5718 23.025ZM44.9618 8.71498L53.7918 21.885L57.6818 19.945L53.3218 2.02497L44.9618 8.71498Z" fill="black"/>
<path d="M53.5716 23.275C53.449 23.2757 53.3282 23.2459 53.22 23.1883C53.1118 23.1307 53.0196 23.0471 52.9516 22.945L43.6716 9.02502C43.5651 8.87041 43.5214 8.6811 43.5492 8.49542C43.5771 8.30974 43.6744 8.14157 43.8216 8.02502L53.1016 0.565029C53.1995 0.485389 53.3159 0.431716 53.44 0.408992C53.5641 0.386269 53.6919 0.395223 53.8116 0.435024C53.9322 0.473321 54.0408 0.542304 54.1267 0.635219C54.2126 0.728134 54.2729 0.841788 54.3016 0.965023L58.9416 20.035C58.9807 20.1999 58.9635 20.3731 58.8929 20.5271C58.8222 20.6811 58.7021 20.8071 58.5516 20.885L53.9116 23.195C53.8072 23.2508 53.69 23.2784 53.5716 23.275ZM53.5716 0.895015C53.5129 0.895602 53.4563 0.916841 53.4116 0.955013L44.1316 8.41504C44.0916 8.46066 44.0694 8.51929 44.0694 8.58001C44.0694 8.64074 44.0916 8.6994 44.1316 8.74502L53.4116 22.665C53.4473 22.7136 53.4981 22.7488 53.5561 22.7651C53.6141 22.7814 53.6759 22.7779 53.7316 22.755L58.3716 20.435C58.4228 20.4111 58.4638 20.3699 58.4876 20.3187C58.5114 20.2675 58.5164 20.2095 58.5016 20.155L53.7916 1.08502C53.7815 1.04434 53.7616 1.00674 53.7337 0.975399C53.7059 0.944056 53.6708 0.919901 53.6316 0.905025L53.5716 0.895015ZM53.6616 22.205L44.6616 8.66504L53.4617 1.58502L57.9617 20.075L53.6616 22.205ZM45.2916 8.76504L53.8316 21.565L57.3416 19.805L53.1216 2.47503L45.2916 8.76504Z" fill="black"/>
<path d="M6.01049 25.345C5.88003 25.3458 5.75442 25.2955 5.66049 25.205L1.0205 20.565C0.956275 20.5008 0.910361 20.4206 0.887506 20.3327C0.864652 20.2448 0.865682 20.1524 0.890497 20.065L6.69049 1.005C6.7131 0.922213 6.7575 0.846993 6.81906 0.787195C6.88061 0.727396 6.95708 0.685211 7.04049 0.665002C7.12182 0.6431 7.20732 0.641688 7.28933 0.660882C7.37135 0.680077 7.44733 0.719266 7.51049 0.774988L15.6305 8.24499C15.7131 8.32098 15.7671 8.42302 15.7835 8.53405C15.7999 8.64508 15.7776 8.7584 15.7205 8.855L6.44049 25.095C6.4053 25.1628 6.35413 25.221 6.29141 25.2645C6.22868 25.3081 6.1563 25.3357 6.0805 25.345H6.01049ZM1.94048 20.065L5.94049 24.065L14.7005 8.73501L7.4605 2.08499L1.94048 20.065Z" fill="#0066B3"/>
<path d="M6.01162 25.595C5.81277 25.5948 5.62214 25.5157 5.48162 25.375L0.841605 20.735C0.744673 20.6412 0.675619 20.5225 0.642081 20.3918C0.608543 20.2612 0.61183 20.1238 0.651603 19.995L6.45162 0.924981C6.48928 0.804647 6.55665 0.695755 6.64754 0.608361C6.73843 0.520968 6.84989 0.457893 6.97161 0.424981C7.09455 0.389514 7.22461 0.386549 7.34905 0.416345C7.47349 0.44614 7.58808 0.507691 7.68163 0.594995L15.8016 8.05499C15.9275 8.1708 16.01 8.32617 16.0355 8.49532C16.0609 8.66448 16.0278 8.83727 15.9416 8.98501L6.66161 25.225C6.60502 25.3252 6.52583 25.4108 6.43035 25.475C6.33487 25.5393 6.22576 25.5803 6.11162 25.595H6.01162ZM7.17162 0.894982H7.10161C7.06169 0.907542 7.02538 0.929564 6.99578 0.959161C6.96618 0.988758 6.94419 1.02507 6.93163 1.065L1.13161 20.125C1.11804 20.1682 1.11644 20.2143 1.12701 20.2583C1.13757 20.3023 1.15991 20.3427 1.19161 20.375L5.83163 25.015C5.85514 25.0385 5.88328 25.0569 5.91427 25.0689C5.94525 25.081 5.9784 25.0864 6.01162 25.085C6.05046 25.0812 6.08788 25.0684 6.12087 25.0475C6.15386 25.0267 6.18151 24.9984 6.20162 24.965L15.4816 8.725C15.51 8.67539 15.5204 8.61755 15.5113 8.56115C15.5022 8.50475 15.4741 8.45318 15.4316 8.415L7.31161 0.95498C7.27311 0.91966 7.22375 0.898501 7.17162 0.894982ZM5.96163 24.445L1.6516 20.135L7.29162 1.59499L14.9716 8.65499L14.8816 8.83498L5.96163 24.445ZM2.22161 19.995L5.85161 23.625L14.3416 8.755L7.54162 2.505L2.22161 19.995Z" fill="#0066B3"/>
<path d="M46.4602 25.555C46.6078 26.0516 46.6157 26.5793 46.4831 27.0801C46.3505 27.5809 46.0824 28.0355 45.7084 28.394C45.3345 28.7525 44.8689 29.0011 44.363 29.1124C43.857 29.2237 43.3301 29.1935 42.8402 29.025C42.8451 29.0481 42.8451 29.072 42.8402 29.095C42.9056 29.5778 42.8483 30.0692 42.6737 30.5239C42.4991 30.9787 42.2127 31.3821 41.841 31.697C41.4694 32.0119 41.0243 32.2281 40.5471 32.3256C40.0698 32.4232 39.5757 32.3989 39.1102 32.255C39.1503 32.7041 39.0742 33.1559 38.8894 33.5671C38.7045 33.9783 38.417 34.335 38.0545 34.6031C37.6921 34.8712 37.2668 35.0416 36.8195 35.098C36.3722 35.1544 35.9179 35.0948 35.5002 34.925C35.5512 35.3224 35.5172 35.726 35.4006 36.1093C35.2839 36.4925 35.0872 36.8466 34.8234 37.1482C34.5597 37.4497 34.2349 37.6919 33.8706 37.8585C33.5064 38.0252 33.1108 38.1126 32.7102 38.115C32.1847 38.1126 31.6697 37.9675 31.2202 37.695L28.2202 35.855C28.1075 35.7848 28.0273 35.6726 27.9973 35.5432C27.9673 35.4138 27.9899 35.2778 28.0602 35.165C28.1305 35.0523 28.2427 34.9721 28.3721 34.9421C28.5015 34.9121 28.6375 34.9348 28.7502 35.005L31.7502 36.835C32.153 37.0873 32.6389 37.1711 33.1029 37.0681C33.5669 36.9652 33.9719 36.684 34.2302 36.285C34.4848 35.8876 34.577 35.4076 34.4877 34.9442C34.3983 34.4807 34.1343 34.0693 33.7502 33.795L28.2202 29.915C28.119 29.8366 28.0517 29.7222 28.0323 29.5956C28.0129 29.4689 28.0429 29.3397 28.116 29.2345C28.1891 29.1293 28.2998 29.0562 28.4253 29.0302C28.5508 29.0043 28.6814 29.0275 28.7902 29.095L35.5702 33.825C35.8943 34.0504 36.2894 34.1497 36.6815 34.1043C37.0736 34.0589 37.4356 33.8719 37.6995 33.5785C37.9635 33.285 38.1113 32.9053 38.1151 32.5107C38.1189 32.116 37.9785 31.7335 37.7202 31.435L30.6602 26.215C30.5541 26.1355 30.484 26.017 30.4652 25.8857C30.4465 25.7545 30.4807 25.6211 30.5602 25.515C30.6399 25.4096 30.7574 25.3391 30.888 25.3186C31.0186 25.2981 31.152 25.3291 31.2602 25.405L38.0502 30.405C38.1727 30.4942 38.2865 30.5946 38.3902 30.705L38.8302 31.035C39.226 31.3307 39.7219 31.4596 40.2116 31.3942C40.7013 31.3288 41.1459 31.0742 41.4502 30.685C41.6115 30.484 41.7303 30.2523 41.7992 30.004C41.8681 29.7557 41.8858 29.496 41.8512 29.2406C41.8166 28.9852 41.7304 28.7396 41.5979 28.5186C41.4653 28.2976 41.2892 28.1058 41.0802 27.955L32.7902 21.875C32.737 21.8363 32.692 21.7875 32.6577 21.7313C32.6234 21.6752 32.6005 21.6128 32.5902 21.5478C32.58 21.4828 32.5827 21.4164 32.5982 21.3525C32.6136 21.2885 32.6415 21.2282 32.6802 21.175C32.719 21.1218 32.7678 21.0768 32.824 21.0425C32.8801 21.0082 32.9425 20.9853 33.0075 20.9751C33.0725 20.9649 33.1388 20.9675 33.2028 20.983C33.2668 20.9984 33.327 21.0263 33.3802 21.065L42.7302 27.835C43.1169 28.0928 43.587 28.1938 44.0454 28.1176C44.5037 28.0414 44.9159 27.7937 45.1984 27.4247C45.4808 27.0558 45.6123 26.5932 45.5663 26.1308C45.5202 25.6685 45.2999 25.241 44.9502 24.935" fill="#0066B3"/>
<path d="M32.7214 38.3451C32.1493 38.3442 31.5886 38.185 31.1014 37.8851L28.1014 36.0551C27.9434 35.9488 27.8311 35.787 27.7866 35.6019C27.7422 35.4167 27.7689 35.2215 27.8614 35.0551C27.9114 34.9715 27.978 34.899 28.0571 34.8423C28.1363 34.7855 28.2262 34.7456 28.3214 34.7251C28.4174 34.6994 28.5178 34.6941 28.616 34.7096C28.7142 34.7251 28.808 34.761 28.8914 34.8151L31.8914 36.6451C32.2384 36.8437 32.6481 36.9024 33.0369 36.8093C33.4257 36.7162 33.7643 36.4783 33.9837 36.1441C34.2031 35.8099 34.2868 35.4046 34.2176 35.0108C34.1484 34.6171 33.9316 34.2645 33.6114 34.0251L28.0814 30.1351C27.9314 30.0214 27.8296 29.8555 27.7963 29.6702C27.7629 29.485 27.8005 29.294 27.9014 29.1351C28.0164 28.9748 28.188 28.864 28.3814 28.8251C28.5797 28.794 28.7825 28.8367 28.9514 28.9451L35.7314 33.6851C36.0041 33.8557 36.3281 33.9249 36.6466 33.8806C36.9652 33.8364 37.258 33.6814 37.4738 33.443C37.6896 33.2045 37.8147 32.8977 37.827 32.5763C37.8394 32.2549 37.7383 31.9394 37.5414 31.6851L30.5414 26.5051C30.3823 26.3858 30.2771 26.2081 30.249 26.0112C30.2209 25.8143 30.2721 25.6142 30.3914 25.4551C30.5066 25.3063 30.674 25.207 30.8598 25.1773C31.0455 25.1475 31.2356 25.1897 31.3914 25.2951L38.1914 30.2951C38.3218 30.3969 38.4454 30.5072 38.5614 30.6251L38.9714 30.9151C39.2323 31.1094 39.5448 31.2223 39.8697 31.2395C40.1945 31.2568 40.5172 31.1776 40.7972 31.0119C41.0772 30.8463 41.302 30.6016 41.4433 30.3086C41.5846 30.0156 41.6361 29.6873 41.5914 29.3651C41.5617 29.1452 41.4879 28.9336 41.3745 28.7428C41.2611 28.5521 41.1104 28.3862 40.9314 28.2551L32.5814 22.1851C32.4235 22.0652 32.3164 21.8903 32.2814 21.6951C32.2526 21.4973 32.3029 21.2961 32.4214 21.1351C32.5392 20.9749 32.7151 20.8671 32.9114 20.8351C33.0078 20.8205 33.1061 20.8254 33.2006 20.8495C33.295 20.8735 33.3838 20.9162 33.4614 20.9751L42.8114 27.7351C43.1416 27.9897 43.5594 28.1027 43.973 28.0493C44.3865 27.9958 44.7618 27.7803 45.0164 27.4501C45.271 27.1199 45.3841 26.7021 45.3306 26.2886C45.2772 25.8751 45.0616 25.4997 44.7314 25.2451L45.0414 24.8551C45.4777 25.1893 45.7634 25.6831 45.8356 26.2279C45.9078 26.7727 45.7606 27.3238 45.4264 27.7601C45.0923 28.1964 44.5985 28.482 44.0537 28.5542C43.5089 28.6264 42.9577 28.4793 42.5214 28.1451L33.1714 21.3751C33.1106 21.3501 33.0423 21.3501 32.9814 21.3751C32.933 21.3839 32.8882 21.4068 32.8527 21.4409C32.8172 21.475 32.7926 21.5188 32.7819 21.5669C32.7712 21.6149 32.775 21.6651 32.7927 21.711C32.8104 21.757 32.8413 21.7967 32.8814 21.8251L41.2214 27.8851C41.458 28.0566 41.6572 28.2745 41.8068 28.5255C41.9564 28.7765 42.0532 29.0554 42.0914 29.3451C42.1323 29.6331 42.1134 29.9265 42.036 30.2069C41.9586 30.4873 41.8243 30.7488 41.6414 30.9751C41.2921 31.42 40.7821 31.7101 40.2211 31.783C39.6602 31.8559 39.093 31.7059 38.6414 31.3651L38.2014 31.0351C38.0934 30.9292 37.98 30.8291 37.8614 30.7351L31.0714 25.7351C31.0184 25.6953 30.9517 25.6782 30.8861 25.6876C30.8204 25.697 30.7612 25.7321 30.7214 25.7851C30.6816 25.8382 30.6646 25.9048 30.6739 25.9705C30.6833 26.0361 30.7184 26.0953 30.7714 26.1351L37.8314 31.3651C38.1388 31.7044 38.3109 32.1447 38.3153 32.6025C38.3197 33.0603 38.156 33.5038 37.8552 33.849C37.5544 34.1941 37.1375 34.4169 36.6834 34.4752C36.2293 34.5335 35.7696 34.4232 35.3914 34.1651L28.6614 29.3451C28.6004 29.3211 28.5325 29.3211 28.4714 29.3451C28.407 29.3623 28.3505 29.4011 28.3114 29.4551C28.2925 29.4812 28.279 29.5108 28.2718 29.5422C28.2645 29.5736 28.2637 29.6061 28.2693 29.6378C28.2749 29.6696 28.2868 29.6998 28.3044 29.7269C28.3219 29.7539 28.3447 29.7771 28.3714 29.7951L33.9014 33.6851C34.3426 33.9937 34.6462 34.4619 34.7479 34.9906C34.8495 35.5193 34.7411 36.0668 34.4458 36.5169C34.1505 36.967 33.6914 37.2844 33.166 37.4017C32.6406 37.519 32.0901 37.4269 31.6314 37.1451L28.6314 35.3051C28.5696 35.2859 28.5033 35.2859 28.4414 35.3051C28.3751 35.324 28.3182 35.3668 28.2814 35.4251C28.2502 35.4816 28.2411 35.5477 28.2558 35.6105C28.2706 35.6734 28.3083 35.7285 28.3614 35.7651L31.3614 37.5951C31.7685 37.8518 32.2402 37.9871 32.7214 37.9851C33.0865 37.9825 33.4469 37.9023 33.7787 37.75C34.1105 37.5978 34.4063 37.3768 34.6464 37.1018C34.8864 36.8267 35.0654 36.5038 35.1714 36.1545C35.2775 35.8051 35.3081 35.4372 35.2614 35.0751L35.2114 34.6451L35.6114 34.8051C36.1031 35.0074 36.6485 35.0385 37.1599 34.8934C37.6714 34.7483 38.1192 34.4354 38.4314 34.0051C38.7686 33.5434 38.9251 32.9743 38.8714 32.4051V32.0251L39.2314 32.1351C39.657 32.267 40.109 32.2894 40.5456 32.2004C40.9822 32.1113 41.3893 31.9136 41.7292 31.6255C42.0691 31.3374 42.3309 30.9683 42.4903 30.5522C42.6498 30.1361 42.7018 29.6866 42.6414 29.2451L42.5914 28.8451L42.9614 28.9051C43.4077 29.0586 43.8877 29.0862 44.3487 28.9849C44.8096 28.8837 45.2338 28.6574 45.5747 28.331C45.9155 28.0046 46.1599 27.5906 46.2811 27.1345C46.4022 26.6783 46.3954 26.1976 46.2614 25.7451L46.7414 25.6051C46.8929 26.1145 46.9094 26.6544 46.7896 27.1721C46.6698 27.6898 46.4177 28.1675 46.0579 28.5585C45.6981 28.9496 45.2429 29.2406 44.737 29.403C44.231 29.5654 43.6916 29.5937 43.1714 29.4851C43.1889 29.9597 43.0991 30.4322 42.9088 30.8673C42.7185 31.3025 42.4325 31.6891 42.0722 31.9985C41.7118 32.3079 41.2864 32.5321 40.8275 32.6545C40.3686 32.7768 39.888 32.7941 39.4214 32.7051C39.3984 33.2791 39.2109 33.8345 38.8814 34.3051C38.5358 34.7684 38.0608 35.119 37.5163 35.313C36.9718 35.5069 36.3821 35.5355 35.8214 35.3951C35.8242 35.9939 35.6541 36.5807 35.3314 37.0851C35.0338 37.4938 34.6398 37.8227 34.1845 38.0425C33.7291 38.2623 33.2266 38.3662 32.7214 38.3451Z" fill="#0066B3"/>
<path d="M50.4518 21.3451L43.0918 10.0151C43.0117 9.9046 42.8946 9.82654 42.7618 9.79507C42.6935 9.7838 42.6235 9.78686 42.5563 9.80408C42.4892 9.82129 42.4264 9.85226 42.3718 9.89505C41.217 10.5523 39.9106 10.897 38.5818 10.8951L32.4218 9.21506C32.3632 9.19058 32.3004 9.17798 32.2368 9.17798C32.1733 9.17798 32.1105 9.19058 32.0519 9.21506L24.6318 13.2151C24.4238 13.3262 24.246 13.4865 24.114 13.6819C23.9819 13.8773 23.8994 14.102 23.8738 14.3365C23.8482 14.5709 23.8802 14.8081 23.967 15.0274C24.0537 15.2468 24.1927 15.4416 24.3718 15.5951C27.4818 18.2651 31.8018 15.9551 33.0118 15.2151L44.5519 24.5751L44.9218 24.8751L46.5718 26.2151C46.5704 25.9644 46.5333 25.7153 46.4619 25.4751C46.5835 25.4709 46.7 25.425 46.7918 25.3451L50.3718 21.9451C50.4504 21.8685 50.5011 21.7677 50.5156 21.6589C50.5301 21.5501 50.5076 21.4396 50.4518 21.3451ZM46.1018 24.6451C45.9556 24.432 45.7807 24.2402 45.5819 24.0751L33.4018 14.205C33.313 14.1291 33.1986 14.0897 33.0818 14.0951C32.9834 14.0983 32.8872 14.1258 32.8019 14.175C32.7519 14.175 28.0418 17.3851 25.0618 14.8251C25.0065 14.7776 24.9638 14.7171 24.9376 14.649C24.9114 14.5809 24.9026 14.5074 24.9118 14.4351C24.9172 14.362 24.9411 14.2914 24.9814 14.2302C25.0216 14.1689 25.0769 14.119 25.1418 14.0851L32.3918 10.2151L38.3918 11.8651H38.5219C39.9087 11.8545 41.2755 11.5333 42.5219 10.925L49.3818 21.4751L46.1018 24.6451Z" fill="black" stroke="black" stroke-width="0.5" stroke-miterlimit="10"/>
<path d="M24.6103 37.9549H24.5403C24.3509 37.9463 24.165 37.9003 23.9934 37.8197C23.8218 37.739 23.6678 37.6253 23.5403 37.485L21.7903 35.6149C21.5444 35.3407 21.4121 34.9832 21.4203 34.6149C21.4267 34.4251 21.4716 34.2385 21.5524 34.0666C21.6332 33.8947 21.7482 33.741 21.8903 33.6149L25.5203 30.3049C25.6609 30.1744 25.8263 30.0735 26.0066 30.0082C26.187 29.9429 26.3787 29.9146 26.5703 29.9249C26.7601 29.9313 26.9467 29.9763 27.1186 30.0571C27.2905 30.1379 27.4442 30.2528 27.5703 30.3949L29.2803 32.265C29.41 32.4063 29.5104 32.5719 29.5756 32.7523C29.6409 32.9327 29.6697 33.1242 29.6604 33.3158C29.6511 33.5074 29.6039 33.6953 29.5215 33.8685C29.4391 34.0417 29.3231 34.1969 29.1803 34.3249L25.5503 37.6349C25.2848 37.8497 24.9516 37.9631 24.6103 37.9549ZM26.5403 30.8549C26.4259 30.8567 26.316 30.8993 26.2303 30.9749L22.5903 34.2849C22.503 34.3698 22.4496 34.4836 22.4403 34.6049C22.4372 34.7262 22.48 34.844 22.5603 34.9349L24.2703 36.8049C24.3095 36.8517 24.3585 36.8893 24.4137 36.9152C24.469 36.9411 24.5292 36.9547 24.5903 36.9549C24.6507 36.9606 24.7117 36.9528 24.7688 36.9321C24.8258 36.9113 24.8776 36.8781 24.9203 36.8349L28.5503 33.5249C28.6385 33.4449 28.6923 33.3338 28.7003 33.2149C28.704 33.1546 28.6953 33.0942 28.6746 33.0374C28.654 32.9807 28.6219 32.9288 28.5803 32.8849L26.8703 31.0049C26.8316 30.9608 26.784 30.9254 26.7305 30.9013C26.677 30.8771 26.6189 30.8647 26.5603 30.8649L26.5403 30.8549Z" fill="black"/>
<path d="M24.612 38.205H24.532C24.3087 38.1959 24.0895 38.1426 23.8869 38.0482C23.6844 37.9538 23.5026 37.8202 23.352 37.655L21.642 35.7851C21.3387 35.4414 21.1841 34.9915 21.2122 34.534C21.2404 34.0765 21.4489 33.6489 21.792 33.345L25.422 30.0351C25.7595 29.7329 26.202 29.5752 26.6545 29.5958C27.107 29.6163 27.5333 29.8135 27.842 30.145L29.542 32.0151C29.6953 32.1804 29.8142 32.3745 29.8917 32.5862C29.9692 32.7979 30.0039 33.0229 29.9936 33.2481C29.9834 33.4733 29.9285 33.6942 29.8321 33.898C29.7356 34.1017 29.5997 34.2843 29.432 34.435L25.792 37.7651C25.4701 38.0583 25.0474 38.2159 24.612 38.205ZM26.552 30.115C26.2466 30.1126 25.9511 30.223 25.722 30.425L22.092 33.7351C21.9742 33.8419 21.8789 33.9713 21.8119 34.1156C21.745 34.2598 21.7076 34.4161 21.702 34.5751C21.692 34.7335 21.7142 34.8923 21.7675 35.0419C21.8208 35.1915 21.904 35.3287 22.012 35.4451L23.712 37.315C23.8189 37.4329 23.9482 37.5281 24.0925 37.5951C24.2368 37.6621 24.3931 37.6995 24.552 37.705H24.612C24.9112 37.7063 25.2001 37.5957 25.422 37.395L29.052 34.085C29.2893 33.8676 29.4328 33.5663 29.452 33.245C29.464 32.9242 29.349 32.6116 29.132 32.375L27.432 30.5051C27.3252 30.3872 27.1958 30.292 27.0515 30.225C26.9072 30.158 26.751 30.1206 26.592 30.115H26.552ZM24.612 37.205C24.4253 37.194 24.2498 37.1117 24.122 36.9751L22.422 35.1051C22.2962 34.9654 22.2283 34.783 22.232 34.595C22.2446 34.4066 22.3308 34.2306 22.472 34.1051L26.102 30.7951C26.2325 30.6737 26.4039 30.6059 26.582 30.6051C26.6752 30.6072 26.7669 30.6287 26.8513 30.6684C26.9357 30.708 27.0108 30.7647 27.072 30.835L28.772 32.705C28.8366 32.7727 28.8868 32.8529 28.9194 32.9405C28.9521 33.0282 28.9666 33.1216 28.962 33.215C28.9531 33.4023 28.8704 33.5785 28.732 33.705L25.102 37.0151C24.9685 37.1379 24.7935 37.2057 24.612 37.205ZM26.542 30.8551V31.1051C26.5142 31.1041 26.4865 31.1089 26.4607 31.1192C26.4349 31.1295 26.4115 31.1452 26.392 31.1651L22.792 34.4751C22.7554 34.5138 22.731 34.5625 22.722 34.615C22.721 34.6428 22.7259 34.6705 22.7362 34.6964C22.7465 34.7222 22.7621 34.7456 22.782 34.7651L24.482 36.645C24.5015 36.6649 24.5249 36.6805 24.5507 36.6909C24.5765 36.7012 24.6042 36.706 24.632 36.705C24.6592 36.7095 24.6871 36.7072 24.7132 36.6985C24.7393 36.6898 24.7629 36.6749 24.782 36.655L28.412 33.345C28.4332 33.3261 28.4504 33.303 28.4624 33.2772C28.4745 33.2515 28.4811 33.2235 28.482 33.1951C28.4818 33.1393 28.4603 33.0856 28.422 33.0451L26.722 31.175C26.6833 31.1384 26.6346 31.1141 26.582 31.1051L26.542 30.8551Z" fill="black"/>
<path d="M20.041 36.0249C19.8381 36.0265 19.6371 35.9854 19.4511 35.9045C19.2651 35.8235 19.0981 35.7044 18.961 35.5549L17.251 33.6849C17.1212 33.5436 17.0209 33.3779 16.9556 33.1975C16.8904 33.0172 16.8615 32.8256 16.8708 32.634C16.8801 32.4424 16.9274 32.2546 17.0098 32.0813C17.0922 31.9081 17.2082 31.753 17.351 31.6249L22.961 26.5049C23.2476 26.2454 23.6255 26.1102 24.0117 26.1289C24.3978 26.1477 24.7608 26.3189 25.021 26.6049L26.721 28.4749C26.9817 28.7602 27.1187 29.1373 27.1018 29.5235C27.0849 29.9096 26.9156 30.2734 26.631 30.5349L21.021 35.6449C20.7544 35.8914 20.404 36.0272 20.041 36.0249ZM23.941 27.1249C23.8266 27.1267 23.7167 27.1692 23.631 27.2449L18.021 32.3449C17.9337 32.4297 17.8803 32.5435 17.871 32.6649C17.8679 32.7861 17.9107 32.904 17.991 32.9949L19.701 34.8649C19.7428 34.9072 19.7927 34.9408 19.8476 34.9638C19.9025 34.9867 19.9615 34.9985 20.021 34.9985C20.0805 34.9985 20.1394 34.9867 20.1944 34.9638C20.2493 34.9408 20.2991 34.9072 20.341 34.8649L25.951 29.7549C26.0371 29.6686 26.0854 29.5517 26.0854 29.4299C26.0854 29.308 26.0371 29.1911 25.951 29.1049L24.251 27.2349C24.1661 27.1476 24.0524 27.0943 23.931 27.0849L23.941 27.1249Z" fill="black"/>
<path d="M20.0417 36.275C19.8036 36.2756 19.5679 36.2271 19.3493 36.1325C19.1308 36.0379 18.9341 35.8991 18.7717 35.725L17.0717 33.845C16.9187 33.6805 16.8 33.4872 16.7226 33.2763C16.6452 33.0654 16.6107 32.8413 16.6209 32.6169C16.6311 32.3925 16.686 32.1724 16.7823 31.9694C16.8786 31.7665 17.0144 31.5848 17.1817 31.435L22.7917 26.345C23.1275 26.0435 23.5684 25.886 24.0192 25.9066C24.4701 25.9272 24.8948 26.1241 25.2017 26.4549L26.9117 28.325C27.215 28.6626 27.3726 29.1064 27.3501 29.5597C27.3277 30.013 27.1269 30.439 26.7917 30.745L21.1917 35.855C20.871 36.1281 20.4629 36.2771 20.0417 36.275ZM23.9417 26.375C23.6384 26.3778 23.3467 26.4916 23.1217 26.695L17.5217 31.805C17.403 31.9112 17.3065 32.0401 17.2381 32.184C17.1697 32.3279 17.1306 32.484 17.1232 32.6432C17.1157 32.8024 17.14 32.9614 17.1947 33.1111C17.2494 33.2608 17.3334 33.3981 17.4417 33.515L19.1417 35.385C19.3631 35.6133 19.6631 35.7487 19.9809 35.7636C20.2986 35.7785 20.61 35.6717 20.8517 35.465L26.4617 30.355C26.5796 30.2481 26.6748 30.1187 26.7418 29.9744C26.8088 29.8302 26.8461 29.6739 26.8517 29.515C26.8675 29.1954 26.756 28.8826 26.5417 28.6449L24.7917 26.775C24.6856 26.6562 24.5564 26.5604 24.4119 26.4933C24.2675 26.4262 24.1109 26.3894 23.9517 26.385L23.9417 26.375ZM20.0417 35.275C19.8544 35.266 19.6783 35.1833 19.5517 35.045L17.8517 33.1749C17.7871 33.1073 17.737 33.0271 17.7043 32.9395C17.6716 32.8518 17.6571 32.7584 17.6617 32.665C17.6707 32.4777 17.7533 32.3015 17.8917 32.1749L23.5017 27.065C23.6322 26.9436 23.8035 26.8758 23.9817 26.875C24.0768 26.8799 24.1699 26.9037 24.2558 26.9449C24.3416 26.9861 24.4184 27.0439 24.4817 27.1149L26.1917 28.985C26.3148 29.1257 26.3792 29.3082 26.3717 29.495C26.3627 29.6823 26.2801 29.8584 26.1417 29.985L20.5317 35.095C20.3982 35.2168 20.2223 35.2814 20.0417 35.275ZM23.9417 27.125V27.345C23.8889 27.3457 23.8386 27.3673 23.8017 27.405L18.1917 32.515C18.1512 32.5509 18.1261 32.601 18.1217 32.655C18.1217 32.7091 18.1393 32.7617 18.1717 32.805L19.8817 34.685C19.9186 34.7226 19.969 34.7442 20.0217 34.745C20.0793 34.7481 20.1361 34.7303 20.1817 34.695L25.7817 29.585C25.8045 29.5674 25.8228 29.5446 25.835 29.5185C25.8472 29.4924 25.8529 29.4637 25.8517 29.435C25.838 29.4012 25.8176 29.3706 25.7917 29.345L24.0817 27.475C24.043 27.4383 23.9943 27.414 23.9417 27.405V27.125Z" fill="black"/>
<path d="M16.4514 33.3451H16.3813C16.1915 33.3387 16.0049 33.2937 15.833 33.2129C15.6611 33.1321 15.5074 33.0172 15.3813 32.8751L13.6814 31.0051C13.5499 30.8652 13.4483 30.6999 13.383 30.5193C13.3176 30.3388 13.2899 30.1468 13.3014 29.9551C13.31 29.7657 13.356 29.5799 13.4366 29.4082C13.5173 29.2366 13.631 29.0826 13.7714 28.9551L19.7714 23.4951C20.058 23.2356 20.4358 23.1004 20.822 23.1192C21.2082 23.1379 21.5712 23.3091 21.8314 23.5951L23.5313 25.4651C23.6628 25.605 23.7644 25.7703 23.8297 25.9509C23.8951 26.1314 23.9228 26.3234 23.9113 26.5151C23.9027 26.7045 23.8567 26.8904 23.7761 27.062C23.6954 27.2336 23.5817 27.3876 23.4413 27.5151L17.4413 32.9651C17.1722 33.214 16.8179 33.35 16.4514 33.3451ZM20.7313 24.0951C20.6168 24.096 20.5066 24.1387 20.4214 24.2151L14.4214 29.6751C14.3759 29.7132 14.339 29.7606 14.3131 29.814C14.2873 29.8675 14.273 29.9258 14.2714 29.9851C14.2649 30.0456 14.2724 30.1068 14.2932 30.164C14.314 30.2212 14.3476 30.2728 14.3914 30.3151L16.0913 32.1951C16.1319 32.2395 16.1814 32.2749 16.2365 32.2991C16.2916 32.3232 16.3512 32.3354 16.4113 32.3351C16.4709 32.3401 16.5309 32.333 16.5877 32.3141C16.6444 32.2952 16.6967 32.2649 16.7414 32.2251L22.7414 26.7651C22.7881 26.7259 22.8257 26.6769 22.8517 26.6217C22.8776 26.5664 22.8911 26.5061 22.8914 26.4451C22.897 26.3846 22.8892 26.3237 22.8685 26.2666C22.8477 26.2095 22.8146 26.1578 22.7714 26.1151L21.0713 24.2451C21.0257 24.2032 20.972 24.171 20.9136 24.1504C20.8552 24.1298 20.7932 24.1212 20.7313 24.1251V24.0951Z" fill="black"/>
<path d="M16.4513 33.6251H16.3712C16.148 33.616 15.9287 33.5627 15.7262 33.4683C15.5236 33.3739 15.3418 33.2402 15.1913 33.0751L13.4813 31.205C13.3304 31.0392 13.2139 30.8451 13.1384 30.634C13.0629 30.4229 13.0299 30.199 13.0413 29.9751C13.0614 29.5216 13.2589 29.0942 13.5912 28.7851L19.5912 23.3351C19.7563 23.1833 19.9498 23.0657 20.1606 22.9891C20.3713 22.9125 20.5951 22.8783 20.8192 22.8885C21.0432 22.8987 21.2629 22.9532 21.4658 23.0487C21.6687 23.1442 21.8507 23.2789 22.0012 23.4451L23.7113 25.3151C23.8626 25.4806 23.9794 25.6747 24.0549 25.8858C24.1304 26.097 24.1632 26.3211 24.1512 26.5451C24.1311 26.9985 23.9336 27.4259 23.6013 27.7351L17.6013 33.1851C17.2874 33.472 16.8765 33.6292 16.4513 33.6251ZM20.7313 23.3451C20.4307 23.3465 20.1417 23.4607 19.9213 23.6651L13.9213 29.115C13.8034 29.2219 13.7082 29.3513 13.6412 29.4956C13.5742 29.6399 13.5368 29.7961 13.5312 29.955C13.5212 30.1135 13.5435 30.2724 13.5968 30.4219C13.6501 30.5715 13.7332 30.7087 13.8412 30.8251L15.5513 32.6951C15.6555 32.8135 15.7829 32.9093 15.9257 32.9764C16.0685 33.0435 16.2236 33.0805 16.3813 33.0851H16.4413C16.7416 33.0826 17.0303 32.9686 17.2512 32.7651L23.2512 27.3151C23.3691 27.2082 23.4644 27.0788 23.5313 26.9346C23.5983 26.7903 23.6357 26.634 23.6413 26.4751C23.6513 26.3166 23.629 26.1577 23.5757 26.0082C23.5224 25.8586 23.4393 25.7215 23.3313 25.6051L21.6212 23.7351C21.5087 23.6111 21.3712 23.5123 21.2179 23.4451C21.0645 23.3779 20.8987 23.3438 20.7313 23.3451ZM16.4613 32.5951H16.4113C16.3195 32.5928 16.2294 32.5711 16.1466 32.5314C16.0639 32.4918 15.9905 32.4351 15.9313 32.365L14.2212 30.4951C14.158 30.4269 14.1093 30.3464 14.0784 30.2587C14.0474 30.171 14.0348 30.0779 14.0413 29.9851C14.0434 29.8919 14.065 29.8002 14.1046 29.7158C14.1442 29.6314 14.201 29.5562 14.2713 29.4951L20.2713 24.0451C20.4066 23.9178 20.5855 23.847 20.7713 23.847C20.9571 23.847 21.1359 23.9178 21.2713 24.0451L22.9813 25.9151C23.0444 25.9854 23.0928 26.0676 23.1237 26.1569C23.1546 26.2462 23.1674 26.3408 23.1613 26.4351C23.1579 26.528 23.1358 26.6193 23.0963 26.7036C23.0568 26.7878 23.0007 26.8631 22.9313 26.925L16.9313 32.3751C16.8136 32.517 16.6447 32.6069 16.4613 32.6251V32.5951ZM20.7313 24.3451C20.6785 24.3458 20.6282 24.3674 20.5912 24.4051L14.5912 29.8551C14.5536 29.892 14.532 29.9423 14.5312 29.9951C14.5268 30.0238 14.529 30.0531 14.5377 30.0809C14.5463 30.1086 14.5613 30.134 14.5813 30.1551L16.2913 32.0251C16.3083 32.0453 16.3299 32.0612 16.3542 32.0716C16.3785 32.082 16.4049 32.0866 16.4313 32.0851C16.4546 32.0965 16.4802 32.1025 16.5063 32.1025C16.5323 32.1025 16.5579 32.0965 16.5813 32.0851L22.5813 26.6351C22.6011 26.6156 22.6167 26.5922 22.6271 26.5664C22.6374 26.5405 22.6422 26.5129 22.6413 26.4851C22.6457 26.4579 22.6435 26.43 22.6348 26.4039C22.6261 26.3778 22.6111 26.3541 22.5912 26.3351L20.8813 24.4651C20.8676 24.4346 20.8469 24.4078 20.8208 24.3869C20.7947 24.366 20.764 24.3517 20.7313 24.3451Z" fill="black"/>
<path d="M13.6714 29.845H13.6014C13.2176 29.8238 12.8579 29.6512 12.6014 29.365L10.8914 27.495C10.6319 27.2083 10.4966 26.8305 10.5154 26.4443C10.5341 26.0581 10.7053 25.6951 10.9914 25.435L14.6213 22.125C14.7613 21.9935 14.9266 21.8919 15.1071 21.8266C15.2877 21.7613 15.4797 21.7335 15.6714 21.745C16.0551 21.7661 16.4148 21.9388 16.6714 22.225L18.3713 24.095C18.6321 24.3803 18.769 24.7574 18.7522 25.1436C18.7353 25.5297 18.566 25.8934 18.2814 26.155L14.6513 29.465C14.3842 29.7106 14.0342 29.8463 13.6714 29.845ZM15.5913 22.745C15.4768 22.7459 15.3666 22.7885 15.2814 22.865L11.6513 26.175C11.5652 26.2612 11.5169 26.3781 11.5169 26.5C11.5169 26.6218 11.5652 26.7387 11.6513 26.825L13.3514 28.695C13.4362 28.7823 13.55 28.8356 13.6714 28.845C13.7317 28.8487 13.7921 28.8399 13.8489 28.8193C13.9056 28.7987 13.9575 28.7666 14.0014 28.725L17.6414 25.415C17.7251 25.3275 17.7718 25.2111 17.7718 25.09C17.7718 24.9689 17.7251 24.8525 17.6414 24.765L15.9314 22.895C15.8477 22.8061 15.7332 22.7524 15.6114 22.745H15.5913Z" fill="black"/>
<path d="M13.6703 30.095H13.5903C13.3647 30.0854 13.1433 30.0309 12.939 29.9348C12.7346 29.8386 12.5515 29.7027 12.4003 29.535L10.7003 27.665C10.5486 27.4999 10.431 27.3064 10.3543 27.0957C10.2777 26.885 10.2435 26.6611 10.2537 26.4371C10.2639 26.2131 10.3184 25.9933 10.4139 25.7905C10.5094 25.5876 10.6441 25.4056 10.8103 25.255L14.4403 21.945C14.6042 21.7878 14.7992 21.6665 15.0128 21.589C15.2263 21.5115 15.4537 21.4795 15.6803 21.495C15.9031 21.5045 16.1216 21.559 16.3227 21.6552C16.5238 21.7515 16.7032 21.8875 16.8503 22.055L18.5603 23.925C18.8618 24.2608 19.0193 24.7017 18.9987 25.1526C18.9781 25.6034 18.7812 26.0281 18.4503 26.335L14.7903 29.645C14.4861 29.9294 14.0867 30.0899 13.6703 30.095ZM15.5603 21.995C15.2688 21.9971 14.9893 22.1117 14.7803 22.315L11.1403 25.625C10.9058 25.8408 10.7659 26.1403 10.7509 26.4586C10.736 26.7769 10.8471 27.0882 11.0603 27.325L12.7703 29.195C12.9865 29.4341 13.2885 29.5779 13.6103 29.595H13.6703C13.9711 29.5946 14.2604 29.4802 14.4803 29.275L18.1103 25.965C18.3448 25.7493 18.4847 25.4498 18.4997 25.1315C18.5147 24.8132 18.4035 24.5019 18.1903 24.265L16.4803 22.345C16.2643 22.1129 15.9669 21.9732 15.6503 21.955L15.5603 21.995ZM13.6703 29.095C13.483 29.0861 13.3069 29.0034 13.1803 28.865L11.4803 26.995C11.4138 26.9299 11.3609 26.8521 11.3249 26.7662C11.2888 26.6804 11.2702 26.5882 11.2702 26.495C11.2702 26.4019 11.2888 26.3097 11.3249 26.2238C11.3609 26.138 11.4138 26.0602 11.4803 25.995L15.1103 22.685C15.2408 22.5637 15.4121 22.4959 15.5903 22.495C15.7838 22.502 15.967 22.5846 16.1003 22.725L17.8003 24.595C17.8636 24.6632 17.9122 24.7436 17.9432 24.8314C17.9742 24.9191 17.9868 25.0122 17.9803 25.105C17.9794 25.1985 17.9584 25.2906 17.9187 25.3751C17.879 25.4597 17.8216 25.5347 17.7503 25.595L14.1203 28.905C14.0001 29.0236 13.8391 29.0916 13.6703 29.095ZM15.5903 22.745V22.995C15.5375 22.9958 15.4872 23.0173 15.4503 23.055L11.7903 26.345C11.7683 26.3611 11.7504 26.3821 11.7382 26.4065C11.7261 26.4309 11.7199 26.4578 11.7203 26.485C11.7203 26.5391 11.7379 26.5918 11.7703 26.635L13.4803 28.505C13.5162 28.5455 13.5664 28.5706 13.6203 28.575C13.6746 28.5766 13.7278 28.5589 13.7703 28.525L17.4103 25.215C17.4302 25.1956 17.4458 25.1722 17.4561 25.1464C17.4665 25.1205 17.4713 25.0928 17.4703 25.065C17.4818 25.0417 17.4878 25.016 17.4878 24.99C17.4878 24.964 17.4818 24.9384 17.4703 24.915L15.7703 23.045C15.7514 23.0238 15.7283 23.0067 15.7025 22.9946C15.6767 22.9826 15.6487 22.9759 15.6203 22.975L15.5903 22.745Z" fill="black"/>
</svg>
