<svg width="60" height="61" viewBox="0 0 60 61" fill="none" xmlns="http://www.w3.org/2000/svg">
<path d="M32.8626 0.371826C30.1487 0.371826 27.4957 1.1766 25.2391 2.6844C22.9825 4.1922 21.2237 6.33531 20.1851 8.84269C19.1465 11.3501 18.8748 14.1091 19.4043 16.7709C19.9338 19.4327 21.2407 21.8778 23.1597 23.7968C25.0788 25.7159 27.5238 27.0228 30.1856 27.5523C32.8475 28.0817 35.6065 27.81 38.1139 26.7714C40.6212 25.7328 42.7643 23.974 44.2721 21.7175C45.7799 19.4609 46.5848 16.8078 46.5848 14.0939C46.5822 10.4554 45.1356 6.9666 42.5628 4.39377C39.99 1.82094 36.5012 0.3744 32.8626 0.371826ZM32.8626 26.1444C30.4793 26.1444 28.1495 25.4377 26.1678 24.1135C24.1861 22.7894 22.6415 20.9074 21.7295 18.7054C20.8174 16.5035 20.5787 14.0805 21.0437 11.7429C21.5087 9.40535 22.6563 7.25816 24.3416 5.57286C26.0269 3.88757 28.1742 2.73986 30.5118 2.27489C32.8493 1.80992 35.2723 2.04855 37.4742 2.96063C39.6762 3.87271 41.5582 5.41726 42.8823 7.39896C44.2064 9.38066 44.9132 11.7105 44.9132 14.0939C44.9106 17.2891 43.6402 20.3527 41.3808 22.612C39.1215 24.8714 36.0579 26.1418 32.8626 26.1444Z" fill="black"/>
<path d="M12.5147 35.3378C12.3969 35.4195 12.2652 35.4788 12.126 35.5127L12.5147 35.3378Z" fill="black"/>
<path d="M23.5927 49.5847C23.5108 49.4445 23.4015 49.3223 23.2712 49.2255C23.141 49.1286 22.9925 49.0591 22.8347 49.021L21.4644 48.6809C21.4253 47.8995 21.2646 47.129 20.9882 46.3971L22.1252 45.5322C22.2568 45.44 22.3678 45.3216 22.4514 45.1845C22.535 45.0474 22.5894 44.8944 22.6112 44.7353C22.6491 44.4185 22.5658 44.0991 22.3779 43.8413L20.4343 41.2271C20.3425 41.0952 20.2243 40.9838 20.0871 40.9002C19.9499 40.8165 19.7967 40.7623 19.6374 40.7412C19.3241 40.7094 19.01 40.7923 18.7531 40.9744L17.6063 41.8393C16.8923 41.3243 16.102 40.9243 15.2642 40.6537V39.2446C15.2644 39.0809 15.2314 38.9188 15.1674 38.7682C15.1033 38.6175 15.0094 38.4814 14.8914 38.3679C14.7734 38.2545 14.6337 38.166 14.4807 38.1079C14.3276 38.0498 14.1644 38.0232 14.0009 38.0298H10.7161C10.3956 38.0323 10.0891 38.1615 9.86341 38.389C9.6377 38.6165 9.51107 38.9241 9.51108 39.2446V40.6537C8.76612 40.8959 8.05931 41.2428 7.41192 41.6838L6.29437 40.7703C6.03882 40.5765 5.71953 40.4862 5.40032 40.5176C5.2416 40.5309 5.08725 40.5766 4.94685 40.6518C4.80645 40.727 4.68295 40.8302 4.58396 40.955L2.53344 43.5011C2.33316 43.7532 2.24021 44.0741 2.27477 44.3942C2.30933 44.7143 2.46862 45.008 2.71809 45.2115L3.83564 46.125C3.55676 46.8502 3.37064 47.6078 3.2817 48.3796L1.89201 48.6809C1.58482 48.7551 1.31822 48.9452 1.14796 49.2115C0.977709 49.4777 0.91699 49.7995 0.9785 50.1095L1.68797 53.3262C1.71718 53.4811 1.77909 53.6279 1.86959 53.757C1.96009 53.886 2.07706 53.9943 2.21273 54.0745C2.39602 54.2166 2.62228 54.292 2.85416 54.2883C2.94619 54.2807 3.03726 54.2644 3.12624 54.2397L4.51593 53.9384C4.89486 54.626 5.38028 55.2492 5.9542 55.7849L5.31283 57.0677C5.2345 57.2054 5.18775 57.3588 5.17599 57.5168C5.16422 57.6748 5.18773 57.8334 5.24479 57.9812C5.29122 58.1346 5.36983 58.2764 5.47541 58.3971C5.58099 58.5178 5.7111 58.6145 5.85704 58.6809L8.77249 60.1386C8.94303 60.2291 9.13338 60.2759 9.32644 60.2747C9.45907 60.2759 9.59084 60.2528 9.71519 60.2067C9.86565 60.159 10.0042 60.0796 10.1215 59.974C10.2388 59.8685 10.3322 59.739 10.3954 59.5944L11.0368 58.3213C11.4727 58.4015 11.9155 58.4373 12.3585 58.4282C12.6836 58.4275 13.0083 58.4048 13.3303 58.3602L13.9231 59.6624C13.9882 59.8108 14.083 59.9443 14.2017 60.0546C14.3203 60.1649 14.4604 60.2498 14.6131 60.3038C14.7454 60.3453 14.8827 60.3682 15.0213 60.3718C15.1929 60.369 15.362 60.3292 15.5169 60.2552L18.5101 58.885C18.7978 58.7497 19.021 58.5071 19.1319 58.2091C19.2427 57.9111 19.2323 57.5816 19.1029 57.2912L18.5101 55.989C19.0818 55.4704 19.5789 54.8752 19.9872 54.2203L21.377 54.5604C21.4772 54.57 21.5781 54.57 21.6783 54.5604C21.8926 54.5644 22.1041 54.5107 22.2905 54.4049C22.4281 54.3224 22.5474 54.2125 22.641 54.0822C22.7346 53.9518 22.8005 53.8037 22.8347 53.6469L23.6607 50.4788C23.7455 50.1822 23.7213 49.8651 23.5927 49.5847ZM21.7171 53.472L20.6287 53.1998L19.5111 52.8986C19.3332 53.2631 19.1183 53.6083 18.8697 53.9287C18.4054 54.6149 17.8268 55.2164 17.1593 55.7071L17.616 56.7956L18.0922 57.8937L15.0213 59.2154L14.5354 58.1853L14.0592 57.1357C13.6696 57.2255 13.2729 57.2808 12.8736 57.3009C12.7085 57.3106 12.543 57.3106 12.378 57.3009C12.1116 57.2992 11.8456 57.283 11.5811 57.2523C11.1855 57.2321 10.7938 57.1636 10.4149 57.0482L9.87065 58.0784L9.31671 59.1279L6.33322 57.573L6.83859 56.5526L7.36335 55.5225C7.05603 55.2781 6.77291 55.0047 6.51787 54.7062C6.21684 54.4129 5.94954 54.087 5.72097 53.7343C5.49595 53.4041 5.30393 53.0526 5.14763 52.6848L3.99117 52.8889L2.80552 53.1124L2.16415 49.8374L3.2817 49.6041L4.39931 49.3709C4.39381 48.9739 4.42311 48.5772 4.4868 48.1853C4.55382 47.7601 4.65455 47.3409 4.78807 46.9316C4.90224 46.5401 5.05863 46.1621 5.25452 45.8043L4.36046 45.0366L3.44695 44.2786L5.61409 41.7032L6.47902 42.4127L7.39253 43.1415C7.69379 42.918 8.03393 42.6848 8.36435 42.4807C8.72969 42.2529 9.12128 42.0702 9.53054 41.9365C9.903 41.7758 10.2903 41.6521 10.687 41.5672V40.4107V39.2251L14.0397 39.2931V41.5672C14.4285 41.6579 14.8089 41.7814 15.1768 41.9365C15.6624 42.0998 16.1234 42.3287 16.547 42.6168C16.8904 42.8254 17.2155 43.0627 17.5188 43.3262L19.4625 41.9559L21.4061 44.6673L20.4926 45.3573L19.5791 46.057C19.7595 46.4128 19.8997 46.7877 19.997 47.1746C20.1249 47.5825 20.2096 48.0027 20.2497 48.4282C20.2933 48.7504 20.316 49.075 20.3177 49.4001C20.3326 49.4836 20.3326 49.5691 20.3177 49.6527L22.6014 50.2941L21.7171 53.472Z" fill="black"/>
<path d="M12.3762 44.7546C11.4748 44.7546 10.5935 45.0219 9.84399 45.5228C9.09446 46.0236 8.51029 46.7354 8.16532 47.5682C7.82035 48.4011 7.73007 49.3175 7.90593 50.2016C8.0818 51.0858 8.51591 51.8979 9.15333 52.5353C9.79075 53.1727 10.6029 53.6068 11.487 53.7827C12.3711 53.9585 13.2875 53.8683 14.1204 53.5233C14.9532 53.1784 15.6651 52.5942 16.1659 51.8447C16.6667 51.0951 16.934 50.2139 16.934 49.3124C16.9315 48.1044 16.4504 46.9466 15.5962 46.0924C14.742 45.2382 13.5842 44.7572 12.3762 44.7546ZM12.3762 52.7332C11.6992 52.7352 11.0369 52.5362 10.4731 52.1615C9.90926 51.7867 9.46925 51.2532 9.20885 50.6283C8.94844 50.0034 8.87931 49.3153 9.0102 48.6511C9.14109 47.9869 9.46616 47.3764 9.94418 46.897C10.4222 46.4177 11.0317 46.0909 11.6955 45.9581C12.3593 45.8253 13.0477 45.8925 13.6733 46.1511C14.2989 46.4097 14.8338 46.8482 15.2101 47.4109C15.5864 47.9737 15.7873 48.6355 15.7873 49.3124C15.7886 49.7612 15.7013 50.2058 15.5304 50.6208C15.3596 51.0358 15.1085 51.413 14.7916 51.7307C14.4748 52.0485 14.0983 52.3006 13.6838 52.4727C13.2693 52.6447 12.825 52.7333 12.3762 52.7332Z" fill="#0066B3"/>
<path d="M59.5486 49.4583C59.5057 49.5641 59.4414 49.6599 59.3597 49.7395C59.278 49.8192 59.1806 49.8811 59.0738 49.9213C58.9669 49.9615 58.853 49.9791 58.739 49.973C58.625 49.9669 58.5135 49.9372 58.4116 49.8859C58.2873 49.7791 58.1881 49.6462 58.1209 49.4967C58.0538 49.3473 58.0203 49.1848 58.0228 49.021C57.7313 47.0774 57.4494 45.1337 57.1579 43.1901C56.8178 40.7605 56.361 38.1269 54.5826 36.4457C53.671 35.6781 52.6446 35.0583 51.5408 34.609L41.7449 30.0511C39.7235 34.1133 37.7021 38.1463 35.6808 42.2085C35.5583 42.5255 35.3411 42.797 35.0588 42.986C34.8176 43.0921 34.5535 43.1356 34.2911 43.1124H31.6186C31.3593 43.1356 31.0983 43.0921 30.8605 42.986C30.5754 42.7975 30.355 42.5262 30.2289 42.2085C28.2853 38.2435 26.2444 34.2883 24.2619 30.3232V30.2358L12.6001 35.3475L12.2114 35.5225H12.1434L10.7051 36.1736C10.5981 36.2223 10.4824 36.2488 10.3649 36.2513C10.2344 36.2524 10.1057 36.2209 9.99031 36.1599C9.87496 36.0988 9.77663 36.01 9.70412 35.9015C9.70412 35.9015 9.70411 35.8432 9.63608 35.814V35.746C9.63955 35.7202 9.63955 35.694 9.63608 35.6682C9.6318 35.636 9.6318 35.6033 9.63608 35.571C9.58796 35.3777 9.61046 35.1736 9.69955 34.9954C9.78864 34.8172 9.93847 34.6767 10.122 34.5992L11.0841 34.1425L11.6963 33.8704C12.4058 33.4622 13.1637 33.1123 13.912 32.7625L23.9218 28.3116C24.0578 28.226 24.2101 28.1697 24.369 28.1463C24.528 28.1229 24.6901 28.1328 24.845 28.1755C25.0713 28.3128 25.2456 28.5213 25.3406 28.7683L31.7157 41.4019H34.1939C36.306 37.1843 38.4213 32.9731 40.5399 28.7683C40.6856 28.4768 40.8703 28.1464 41.191 28.088C41.4007 28.0866 41.6076 28.1367 41.7935 28.2338L52.6098 33.297C53.7257 33.7518 54.7673 34.3709 55.7002 35.1337C57.0252 36.4567 57.9166 38.1514 58.2561 39.9928C58.4796 40.9646 58.6351 41.8781 58.7809 42.8014C59.053 44.5798 59.3251 46.3582 59.6069 48.1172C59.7102 48.5612 59.69 49.025 59.5486 49.4583Z" fill="#0066B3"/>
</svg>
