<svg width="56" height="42" viewBox="0 0 56 42" fill="none" xmlns="http://www.w3.org/2000/svg">
<path d="M18.6844 1.17822C16.5814 1.17822 14.5258 1.80183 12.7772 2.97015C11.0287 4.13847 9.66588 5.79906 8.86113 7.74191C8.05637 9.68476 7.8458 11.8226 8.25606 13.8851C8.66632 15.9476 9.67902 17.8422 11.166 19.3292C12.653 20.8162 14.5475 21.8288 16.61 22.2391C18.6726 22.6494 20.8105 22.4388 22.7533 21.634C24.6962 20.8293 26.3567 19.4665 27.5251 17.718C28.6934 15.9694 29.317 13.9137 29.317 11.8108C29.3148 8.99156 28.1938 6.28839 26.2003 4.29487C24.2068 2.30136 21.5036 1.18044 18.6844 1.17822ZM18.6844 21.1876C16.8298 21.1876 15.0169 20.6376 13.4749 19.6073C11.9329 18.577 10.731 17.1125 10.0213 15.3991C9.31163 13.6858 9.12596 11.8004 9.48776 9.98149C9.84957 8.16258 10.7426 6.49179 12.054 5.18043C13.3653 3.86906 15.0361 2.97602 16.8551 2.61422C18.674 2.25241 20.5593 2.43809 22.2727 3.1478C23.9861 3.8575 25.4505 5.05934 26.4809 6.60135C27.5112 8.14335 28.0611 9.95627 28.0611 11.8108C28.0589 14.297 27.0703 16.6807 25.3123 18.4387C23.5543 20.1967 21.1706 21.1854 18.6844 21.1876Z" fill="black"/>
<path d="M23.6164 26.1607L23.5159 26.3616L23.4155 26.5542L23.1894 26.9226L23.0889 27.1235L22.9969 27.3245C6.46192 24.9719 2.29257 36.5338 1.60606 38.8863C1.56959 39.0144 1.54994 39.1467 1.5475 39.2798C1.6061 40.4771 3.80794 40.5022 3.82469 40.5022C3.99122 40.5022 4.15093 40.5683 4.26869 40.6861C4.38645 40.8038 4.4526 40.9635 4.4526 41.1301C4.4526 41.2966 4.38645 41.4563 4.26869 41.5741C4.15093 41.6918 3.99122 41.758 3.82469 41.758C3.69073 41.758 0.408887 41.758 0.291678 39.3384C0.281562 39.0553 0.318341 38.7724 0.400519 38.5012C0.886102 36.9691 5.34005 23.3644 23.6164 26.1607Z" fill="black"/>
<path d="M51.7967 22.1588C51.7416 22.0685 51.6641 21.994 51.5716 21.9427C51.4792 21.8913 51.375 21.8648 51.2692 21.8657H26.1529C26.0357 21.8653 25.9208 21.8981 25.8215 21.9604C25.7222 22.0226 25.6426 22.1117 25.592 22.2174L23.6496 26.1606L23.5492 26.3616L23.4487 26.5541L23.1892 26.9225L23.0887 27.1234L22.9966 27.3244L18.2915 36.9691H8.87287C8.54918 36.9686 8.23135 37.0555 7.95288 37.2205C7.67441 37.3856 7.4456 37.6226 7.29053 37.9067C7.12648 38.1874 7.04004 38.5067 7.04004 38.8319C7.04004 39.157 7.12648 39.4763 7.29053 39.757L7.42446 39.9579C7.83217 40.5242 8.37127 40.9831 8.99541 41.2952C9.61954 41.6072 10.3101 41.7631 11.0078 41.7495H42.5874C42.7064 41.7488 42.8229 41.7147 42.9236 41.651C43.0242 41.5874 43.1049 41.4968 43.1567 41.3895L51.8385 22.7365C51.8791 22.644 51.8966 22.5431 51.8893 22.4424C51.882 22.3418 51.8502 22.2444 51.7967 22.1588ZM42.219 40.5272H11.0412C10.5529 40.5325 10.0703 40.4214 9.63354 40.203C9.19674 39.9846 8.81831 39.6652 8.52959 39.2714C8.49685 39.2299 8.46879 39.185 8.44588 39.1374C8.39275 39.0489 8.36469 38.9476 8.36469 38.8444C8.36469 38.7412 8.39275 38.6399 8.44588 38.5514C8.49345 38.462 8.56465 38.3873 8.65176 38.3357C8.73888 38.284 8.83853 38.2572 8.93981 38.2584L18.7436 38.1914C18.8608 38.1918 18.9757 38.159 19.075 38.0968C19.1742 38.0345 19.2538 37.9454 19.3045 37.8398L26.538 23.1216H50.3149L42.219 40.5272Z" fill="#0066B3"/>
<g clip-path="url(#clip0_3106_64652)">
<path d="M44.6369 10.1865C44.5537 10.1873 44.4725 10.1607 44.406 10.1107C44.3394 10.0607 44.2913 9.99016 44.2689 9.91C44.2464 9.82984 44.2511 9.74454 44.2821 9.66729C44.313 9.59004 44.3686 9.52516 44.4402 9.48269L48.2241 7.21234V2.99704C48.2241 2.89669 48.264 2.80045 48.335 2.72949C48.4059 2.65852 48.5022 2.61865 48.6025 2.61865C48.7029 2.61865 48.7991 2.65852 48.8701 2.72949C48.941 2.80045 48.9809 2.89669 48.9809 2.99704V7.46964C48.9813 7.53495 48.9648 7.59923 48.9329 7.65625C48.9011 7.71328 48.855 7.7611 48.7993 7.79505L44.8261 10.1865C44.7639 10.201 44.6992 10.201 44.6369 10.1865Z" fill="#0066B3"/>
<path d="M55.7104 7.42409C55.7082 9.01628 55.1771 10.5626 54.2003 11.82C53.2236 13.0774 51.8567 13.9746 50.3145 14.3705C48.7724 14.7665 47.1423 14.6387 45.6807 14.0073C44.219 13.376 43.0086 12.2768 42.2397 10.8826C42.2029 10.8177 42.1793 10.7462 42.1702 10.6722C42.1612 10.5982 42.1667 10.5231 42.1867 10.4512C42.2327 10.3082 42.3296 10.1869 42.4591 10.1107C42.59 10.0428 42.7423 10.0285 42.8835 10.0709C43.0248 10.1133 43.144 10.209 43.2159 10.3377C43.7291 11.2757 44.4816 12.061 45.3968 12.6139C46.312 13.1667 47.3573 13.4673 48.4264 13.4851C49.4955 13.5029 50.5502 13.2372 51.4833 12.7151C52.4164 12.1931 53.1946 11.4332 53.7387 10.5128C54.2829 9.59243 54.5736 8.54434 54.5812 7.47515C54.5889 6.40596 54.3133 5.3538 53.7825 4.42568C53.2516 3.49756 52.4844 2.72658 51.5589 2.19115C50.6334 1.65572 49.5826 1.37494 48.5134 1.37737C48.3629 1.37737 48.2185 1.31757 48.1121 1.21113C48.0056 1.10469 47.9458 0.960313 47.9458 0.80978C47.9458 0.659246 48.0056 0.514897 48.1121 0.408454C48.2185 0.302011 48.3629 0.242191 48.5134 0.242191C49.4575 0.241197 50.3926 0.426184 51.2653 0.786569C52.1379 1.14695 52.931 1.67569 53.5993 2.34259C54.2676 3.00949 54.7981 3.8015 55.1603 4.67338C55.5225 5.54526 55.7094 6.47996 55.7104 7.42409Z" fill="#0066B3"/>
<path d="M42.9052 4.88881C43.3232 4.88881 43.662 4.54999 43.662 4.13203C43.662 3.71407 43.3232 3.37524 42.9052 3.37524C42.4873 3.37524 42.1484 3.71407 42.1484 4.13203C42.1484 4.54999 42.4873 4.88881 42.9052 4.88881Z" fill="#0066B3"/>
<path d="M45.1748 1.86171C45.5927 1.86171 45.9315 1.52289 45.9315 1.10493C45.9315 0.686968 45.5927 0.348145 45.1748 0.348145C44.7568 0.348145 44.418 0.686968 44.418 1.10493C44.418 1.52289 44.7568 1.86171 45.1748 1.86171Z" fill="#0066B3"/>
<path d="M42.1484 8.67275C42.5663 8.67275 42.9052 8.33392 42.9052 7.91596C42.9052 7.498 42.5663 7.15918 42.1484 7.15918C41.7304 7.15918 41.3916 7.498 41.3916 7.91596C41.3916 8.33392 41.7304 8.67275 42.1484 8.67275Z" fill="#0066B3"/>
</g>
<defs>
<clipPath id="clip0_3106_64652">
<rect width="14.3184" height="14.3562" fill="white" transform="translate(41.3916 0.242188)"/>
</clipPath>
</defs>
</svg>
