<svg width="16" height="16" viewBox="0 0 16 16" fill="none" xmlns="http://www.w3.org/2000/svg">
<g clip-path="url(#clip0_903_37290)">
<path d="M15.4184 3.40386C15.4184 3.3867 15.4302 3.36999 15.4294 3.35303L10.8503 7.76907L15.4239 12.044C15.4266 12.0135 15.4184 11.9827 15.4184 11.9515V3.40386Z" fill="white"/>
<path d="M10.1509 8.44873L8.28116 10.2488C8.18654 10.3399 8.06434 10.3856 7.94208 10.3856C7.82235 10.3856 7.70263 10.3419 7.60867 10.2542L5.74399 8.51555L1.1394 12.9566C1.25137 12.9969 1.37154 13.0282 1.4974 13.0282H14.3868C14.5737 13.0282 14.749 12.9712 14.9014 12.8862L10.1509 8.44873Z" fill="white"/>
<path d="M7.93463 9.22262L14.9246 2.48495C14.7664 2.3908 14.5822 2.32764 14.3847 2.32764H1.4953C1.23818 2.32764 1.00259 2.42753 0.819092 2.57989L7.93463 9.22262Z" fill="white"/>
<path d="M0.420654 3.56787V11.9513C0.420654 12.0475 0.442754 12.1403 0.466745 12.229L5.01308 7.84715L0.420654 3.56787Z" fill="white"/>
</g>
<defs>
<clipPath id="clip0_903_37290">
<rect width="15.0099" height="15.0183" fill="white" transform="translate(0.420654 0.168457)"/>
</clipPath>
</defs>
</svg>
