<svg width="16" height="16" viewBox="0 0 16 16" fill="none" xmlns="http://www.w3.org/2000/svg">
<g clip-path="url(#clip0_903_37298)">
<path d="M12.3672 2.79301C11.4564 1.22007 9.83861 0.259104 8.03962 0.222379C7.96282 0.220795 7.88553 0.220795 7.8087 0.222379C6.00975 0.259104 4.39199 1.22007 3.48117 2.79301C2.55018 4.40079 2.52471 6.33205 3.41302 7.95917L7.13448 14.7757C7.13615 14.7787 7.13782 14.7817 7.13955 14.7847C7.30329 15.0695 7.59661 15.2395 7.92422 15.2395C8.2518 15.2395 8.54512 15.0695 8.70883 14.7847C8.71056 14.7817 8.71223 14.7787 8.7139 14.7757L12.4354 7.95917C13.3236 6.33205 13.2981 4.40079 12.3672 2.79301ZM7.92416 7.02639C6.76047 7.02639 5.81374 6.07897 5.81374 4.91443C5.81374 3.7499 6.76047 2.80248 7.92416 2.80248C9.08785 2.80248 10.0346 3.7499 10.0346 4.91443C10.0346 6.07897 9.08788 7.02639 7.92416 7.02639Z" fill="white"/>
</g>
<defs>
<clipPath id="clip0_903_37298">
<rect width="15.0099" height="15.0183" fill="white" transform="translate(0.420654 0.221191)"/>
</clipPath>
</defs>
</svg>
