<svg width="151" height="47" viewBox="0 0 151 47" fill="none" xmlns="http://www.w3.org/2000/svg">
<path d="M35.6966 17.0779C35.7223 19.3293 33.9342 21.1099 32.266 21.2809C31.1562 21.3945 30.0195 21.4706 28.9575 21.7822C27.4885 22.2132 26.1393 22.9418 25.0834 24.1438C23.8599 25.5377 23.1755 27.0769 23.0558 29.0143C22.9384 30.9224 22.2931 32.7908 20.2264 33.4762C17.055 34.5291 13.5069 33.0134 13.5472 29.1818C13.5644 27.5994 14.6656 25.9137 16.4244 25.2506C17.3678 24.8946 18.2721 24.9391 19.1985 24.8067C21.9753 24.412 24.1691 23.0719 25.5184 20.4913C26.1649 19.2555 26.5353 17.9412 26.4778 16.5157C26.4252 15.2026 25.8533 13.6692 25.0894 12.6512C23.8001 10.9328 22.5106 9.97701 20.5613 9.42294C18.9285 8.95791 17.2248 8.98836 15.5174 9.55414C14.0716 10.0332 12.9924 10.9082 11.9768 11.966C10.8989 13.0906 10.322 14.4318 10.2328 15.9979C10.1472 17.5008 9.80378 18.9463 8.74171 20.0309C7.654 21.1426 6.32794 21.5584 4.71346 21.3416C3.28963 21.1508 2.30946 20.5065 1.46739 19.3961C0.202449 17.7281 0.360109 15.3912 1.92325 13.9562C3.01343 12.9547 4.19037 12.5341 5.77308 12.3982C8.7906 12.1382 12.4375 9.91141 13.1379 6.78031C13.2906 6.09505 13.4544 5.40042 13.4996 4.70344C13.6231 2.77184 14.7487 0.969077 16.7151 0.397443C19.6703 -0.46118 21.9288 0.672718 22.788 3.71948C22.9335 4.23606 23.0619 4.77022 23.1009 5.30436C23.2891 7.91772 24.5578 9.78841 26.7381 11.1203C28.1363 11.9742 29.5992 12.2636 31.2307 12.4311C33.4001 12.6524 35.6 14.2923 35.6966 17.0779Z" fill="white"/>
<path d="M0.634033 29.0342C0.634033 26.7828 2.44284 25.021 4.11354 24.8675C5.22449 24.7656 6.36231 24.7025 7.42804 24.4014C8.90198 23.9855 10.2598 23.272 11.3292 22.0808C12.5685 20.7009 13.2712 19.1688 13.413 17.2324C13.5523 15.3254 14.2196 13.4641 16.2935 12.8011C19.4775 11.782 23.0082 13.3364 22.9228 17.1669C22.8872 18.7493 21.7664 20.4233 20.0005 21.0675C19.0533 21.413 18.1488 21.3592 17.2212 21.4811C14.4397 21.8465 12.2299 23.1632 10.8514 25.7285C10.1901 26.9573 9.80517 28.2668 9.84549 29.6937C9.88338 31.0068 10.4077 32.1417 11.0029 33.2569C12.0258 35.1757 13.7356 36.2733 15.6788 36.8496C17.3068 37.3323 19.0106 37.3194 20.7241 36.7722C22.176 36.3084 23.2649 35.4463 24.2927 34.3979C25.384 33.285 25.9769 31.9509 26.0833 30.3847C26.1858 28.883 26.5465 27.4421 27.6206 26.3681C28.7218 25.2682 30.0516 24.8664 31.6647 25.1006C33.0861 25.3068 34.059 25.9616 34.8877 27.0814C36.1332 28.7624 35.9473 31.0981 34.3682 32.5154C33.2658 33.5053 32.0853 33.9129 30.5001 34.0324C27.4801 34.2597 23.8075 36.4478 23.0707 39.5707C22.9093 40.2548 22.7381 40.9471 22.6855 41.644C22.539 43.5746 21.3938 45.3656 19.4199 45.9161C16.4549 46.7431 14.2098 45.5847 13.3861 42.5295C13.2468 42.0119 13.1245 41.4753 13.0916 40.9412C12.9327 38.3268 11.6873 36.442 9.52284 35.0867C8.13446 34.2175 6.67519 33.9129 5.04484 33.7279C2.87793 33.4843 0.697586 31.8209 0.634033 29.0342Z" fill="white"/>
<path d="M63.8914 25.716V29.7487H45.2043V26.5409L56.9296 12.3959H45.4486V8.36328H63.4334V11.5711L51.7387 25.716H63.8914ZM81.1402 25.1661H71.2165L69.3234 29.7487H64.2547L73.7815 8.36328H78.6669L88.2242 29.7487H83.0333L81.1402 25.1661ZM79.5829 21.4084L76.1936 13.2208L72.8043 21.4084H79.5829ZM99.6936 8.36328C101.586 8.36328 103.225 8.67897 104.609 9.31035C106.014 9.94173 107.093 10.8379 107.847 11.9988C108.599 13.1598 108.976 14.5345 108.976 16.1232C108.976 17.6914 108.599 19.0662 107.847 20.2475C107.093 21.4084 106.014 22.3045 104.609 22.9359C103.225 23.5469 101.586 23.8524 99.6936 23.8524H95.3882V29.7487H90.4416V8.36328H99.6936ZM99.4188 19.8198C100.905 19.8198 102.035 19.5041 102.808 18.8727C103.582 18.221 103.968 17.3045 103.968 16.1232C103.968 14.9215 103.582 14.005 102.808 13.3736C102.035 12.7218 100.905 12.3959 99.4188 12.3959H95.3882V19.8198H99.4188ZM116.338 12.3959H109.499V8.36328H128.125V12.3959H121.285V29.7487H116.338V12.3959ZM143.789 25.1661H133.866L131.972 29.7487H126.904L136.43 8.36328H141.316L150.873 29.7487H145.683L143.789 25.1661ZM142.232 21.4084L138.843 13.2208L135.454 21.4084H142.232Z" fill="white"/>
<path d="M46.2142 35.2417H44.0833V33.9853H49.8863V35.2417H47.7554V40.6481H46.2142V35.2417ZM58.3451 39.4107V40.6481H53.189V33.9853H58.2215V35.2226H54.7206V36.6694H57.8124V37.8688H54.7206V39.4107H58.3451ZM65.2132 40.7623C64.5345 40.7623 63.9194 40.6163 63.3676 40.3245C62.8221 40.0262 62.3908 39.6169 62.0738 39.0966C61.763 38.5698 61.6077 37.9767 61.6077 37.3167C61.6077 36.6567 61.763 36.0666 62.0738 35.5462C62.3908 35.0196 62.8221 34.6103 63.3676 34.3184C63.9194 34.0202 64.5377 33.8711 65.2227 33.8711C65.7998 33.8711 66.3197 33.9725 66.7828 34.1757C67.2521 34.3788 67.6453 34.6706 67.9625 35.0513L66.9731 35.965C66.5228 35.4448 65.9647 35.1846 65.2988 35.1846C64.8865 35.1846 64.5187 35.2765 64.1953 35.4606C63.8718 35.6383 63.6181 35.889 63.4342 36.2126C63.2565 36.5361 63.1679 36.9042 63.1679 37.3167C63.1679 37.7292 63.2565 38.0972 63.4342 38.4208C63.6181 38.7444 63.8718 38.9982 64.1953 39.1823C64.5187 39.3599 64.8865 39.4488 65.2988 39.4488C65.9647 39.4488 66.5228 39.1855 66.9731 38.6587L67.9625 39.5726C67.6453 39.9595 67.2521 40.2546 66.7828 40.4577C66.3135 40.6608 65.7903 40.7623 65.2132 40.7623ZM77.584 33.9853V40.6481H76.0429V37.9163H73.0176V40.6481H71.4766V33.9853H73.0176V36.6123H76.0429V33.9853H77.584ZM87.7405 33.9853V40.6481H86.4753L83.1552 36.6028V40.6481H81.633V33.9853H82.9078L86.2185 38.0306V33.9853H87.7405ZM95.0144 40.7623C94.3232 40.7623 93.6984 40.6132 93.1403 40.315C92.5886 40.0166 92.1543 39.6074 91.837 39.0871C91.5263 38.5603 91.3709 37.9702 91.3709 37.3167C91.3709 36.6631 91.5263 36.0761 91.837 35.5559C92.1543 35.0291 92.5886 34.6167 93.1403 34.3184C93.6984 34.0202 94.3232 33.8711 95.0144 33.8711C95.7057 33.8711 96.3273 34.0202 96.879 34.3184C97.4308 34.6167 97.8652 35.0291 98.1824 35.5559C98.4995 36.0761 98.658 36.6631 98.658 37.3167C98.658 37.9702 98.4995 38.5603 98.1824 39.0871C97.8652 39.6074 97.4308 40.0166 96.879 40.315C96.3273 40.6132 95.7057 40.7623 95.0144 40.7623ZM95.0144 39.4488C95.4077 39.4488 95.7627 39.3599 96.08 39.1823C96.3971 38.9982 96.6444 38.7444 96.822 38.4208C97.006 38.0972 97.0978 37.7292 97.0978 37.3167C97.0978 36.9042 97.006 36.5361 96.822 36.2126C96.6444 35.889 96.3971 35.6383 96.08 35.4606C95.7627 35.2765 95.4077 35.1846 95.0144 35.1846C94.6211 35.1846 94.2661 35.2765 93.949 35.4606C93.6319 35.6383 93.3814 35.889 93.1975 36.2126C93.02 36.5361 92.9311 36.9042 92.9311 37.3167C92.9311 37.7292 93.02 38.0972 93.1975 38.4208C93.3814 38.7444 93.6319 38.9982 93.949 39.1823C94.2661 39.3599 94.6211 39.4488 95.0144 39.4488ZM102.29 33.9853H103.831V39.3916H107.17V40.6481H102.29V33.9853ZM113.618 40.7623C112.927 40.7623 112.301 40.6132 111.744 40.315C111.192 40.0166 110.757 39.6074 110.44 39.0871C110.13 38.5603 109.975 37.9702 109.975 37.3167C109.975 36.6631 110.13 36.0761 110.44 35.5559C110.757 35.0291 111.192 34.6167 111.744 34.3184C112.301 34.0202 112.927 33.8711 113.618 33.8711C114.309 33.8711 114.93 34.0202 115.483 34.3184C116.034 34.6167 116.468 35.0291 116.786 35.5559C117.103 36.0761 117.262 36.6631 117.262 37.3167C117.262 37.9702 117.103 38.5603 116.786 39.0871C116.468 39.6074 116.034 40.0166 115.483 40.315C114.93 40.6132 114.309 40.7623 113.618 40.7623ZM113.618 39.4488C114.012 39.4488 114.366 39.3599 114.683 39.1823C115 38.9982 115.248 38.7444 115.426 38.4208C115.61 38.0972 115.702 37.7292 115.702 37.3167C115.702 36.9042 115.61 36.5361 115.426 36.2126C115.248 35.889 115 35.6383 114.683 35.4606C114.366 35.2765 114.012 35.1846 113.618 35.1846C113.225 35.1846 112.87 35.2765 112.553 35.4606C112.235 35.6383 111.985 35.889 111.801 36.2126C111.623 36.5361 111.535 36.9042 111.535 37.3167C111.535 37.7292 111.623 38.0972 111.801 38.4208C111.985 38.7444 112.235 38.9982 112.553 39.1823C112.87 39.3599 113.225 39.4488 113.618 39.4488ZM125.392 37.212H126.8V39.9152C126.439 40.188 126.021 40.3974 125.545 40.5433C125.069 40.6894 124.591 40.7623 124.109 40.7623C123.417 40.7623 122.796 40.6163 122.244 40.3245C121.692 40.0262 121.258 39.6169 120.94 39.0966C120.63 38.5698 120.474 37.9767 120.474 37.3167C120.474 36.6567 120.63 36.0666 120.94 35.5462C121.258 35.0196 121.695 34.6103 122.253 34.3184C122.812 34.0202 123.439 33.8711 124.137 33.8711C124.721 33.8711 125.25 33.9695 125.726 34.1662C126.201 34.3628 126.601 34.6483 126.925 35.0228L125.935 35.9365C125.46 35.4353 124.885 35.1846 124.214 35.1846C123.788 35.1846 123.411 35.2735 123.081 35.4511C122.752 35.6287 122.494 35.8794 122.31 36.203C122.127 36.5266 122.035 36.8979 122.035 37.3167C122.035 37.7292 122.127 38.0972 122.31 38.4208C122.494 38.7444 122.749 38.9982 123.072 39.1823C123.401 39.3599 123.775 39.4488 124.195 39.4488C124.638 39.4488 125.038 39.3536 125.392 39.1633V37.212ZM130.706 33.9853H132.247V40.6481H130.706V33.9853ZM141.457 39.4107V40.6481H136.301V33.9853H141.333V35.2226H137.832V36.6694H140.924V37.8688H137.832V39.4107H141.457ZM147.345 40.7623C146.818 40.7623 146.308 40.6924 145.813 40.5528C145.324 40.4069 144.932 40.2197 144.634 39.9913L145.157 38.83C145.442 39.0395 145.781 39.2076 146.175 39.3346C146.568 39.4615 146.961 39.5249 147.355 39.5249C147.792 39.5249 148.115 39.4615 148.324 39.3346C148.533 39.2013 148.638 39.0268 148.638 38.811C148.638 38.6524 148.575 38.5223 148.448 38.4208C148.328 38.3129 148.169 38.2272 147.973 38.1638C147.782 38.1004 147.523 38.0306 147.192 37.9544C146.685 37.8339 146.27 37.7132 145.947 37.5927C145.622 37.4722 145.344 37.2787 145.109 37.0121C144.881 36.7456 144.767 36.3902 144.767 35.946C144.767 35.5591 144.871 35.2099 145.081 34.899C145.29 34.5818 145.603 34.3312 146.023 34.1471C146.447 33.963 146.964 33.8711 147.573 33.8711C147.998 33.8711 148.413 33.9219 148.82 34.0234C149.225 34.1248 149.58 34.2709 149.884 34.4612L149.409 35.6319C148.794 35.283 148.178 35.1084 147.564 35.1084C147.132 35.1084 146.812 35.1783 146.603 35.3179C146.4 35.4574 146.298 35.6415 146.298 35.8699C146.298 36.0983 146.416 36.2697 146.65 36.3839C146.891 36.4918 147.255 36.5996 147.744 36.7076C148.251 36.828 148.667 36.9486 148.991 37.0692C149.314 37.1897 149.59 37.3801 149.818 37.6403C150.052 37.9005 150.17 38.2527 150.17 38.6968C150.17 39.0775 150.062 39.4265 149.846 39.7439C149.637 40.0547 149.32 40.3021 148.896 40.4863C148.47 40.6703 147.954 40.7623 147.345 40.7623Z" fill="white"/>
</svg>
