<svg width="58" height="45" viewBox="0 0 58 45" fill="none" xmlns="http://www.w3.org/2000/svg">
<path d="M57.876 29.016C57.876 39.156 51.324 44.928 43.992 44.928C37.284 44.928 31.668 39.312 31.668 32.448C31.668 25.896 36.348 21.216 42.276 21.216C43.524 21.216 44.772 21.528 45.396 21.84C43.992 16.224 38.22 9.67197 33.228 7.01997L41.808 -2.65432e-05C51.48 6.86397 57.876 17.316 57.876 29.016ZM26.208 29.016C26.208 39.156 19.5 44.928 12.168 44.928C5.616 44.928 -4.90966e-07 39.312 -1.09104e-06 32.448C-1.66383e-06 25.896 4.68 21.216 10.608 21.216C11.7 21.216 13.104 21.528 13.572 21.84C12.324 16.224 6.55199 9.67198 1.55999 7.01997L10.14 -2.37747e-05C19.656 6.86397 26.208 17.316 26.208 29.016Z" fill="white"/>
</svg>
