<svg width="58" height="45" viewBox="0 0 58 45" fill="none" xmlns="http://www.w3.org/2000/svg">
<path d="M0 28.86C0 39 6.552 44.772 13.884 44.772C20.592 44.772 26.208 39.156 26.208 32.448C26.208 25.74 21.528 21.216 15.6 21.216C14.352 21.216 12.948 21.372 12.48 21.684C13.884 16.068 19.656 9.516 24.648 6.86401L16.068 0C6.396 6.70801 0 17.16 0 28.86ZM31.824 28.86C31.824 39 38.22 44.772 45.552 44.772C52.416 44.772 57.876 39.156 57.876 32.448C57.876 25.74 53.196 21.216 47.424 21.216C46.176 21.216 44.772 21.372 44.304 21.684C45.552 16.068 51.48 9.516 56.472 6.86401L47.736 0C38.064 6.70801 31.824 17.16 31.824 28.86Z" fill="white"/>
</svg>
