<svg width="16" height="16" viewBox="0 0 16 16" fill="none" xmlns="http://www.w3.org/2000/svg">
<path d="M11.8312 10.056C11.3409 9.57163 10.7287 9.57163 10.2415 10.056C9.86986 10.4248 9.4982 10.7936 9.13278 11.1686C9.03284 11.2717 8.94851 11.2936 8.82671 11.2248C8.58622 11.0936 8.33012 10.9873 8.099 10.8436C7.02149 10.1654 6.11889 9.29349 5.31935 8.31219C4.9227 7.82466 4.56978 7.30276 4.32305 6.71522C4.27307 6.59647 4.28244 6.51834 4.37926 6.42146C4.75092 6.06206 5.11322 5.69329 5.47863 5.32452C5.98771 4.812 5.98771 4.21196 5.47551 3.69631C5.18505 3.40254 4.89459 3.11503 4.60413 2.82126C4.30431 2.52124 4.0076 2.2181 3.70465 1.92121C3.21431 1.44306 2.60216 1.44306 2.11494 1.92434C1.74015 2.29311 1.38099 2.67125 0.999955 3.03377C0.647032 3.36817 0.46901 3.77756 0.431531 4.25571C0.37219 5.03388 0.562706 5.7683 0.831302 6.48396C1.38099 7.96529 2.218 9.28099 3.23305 10.4873C4.60413 12.1186 6.24069 13.4093 8.15522 14.3406C9.01722 14.7594 9.91046 15.0813 10.8818 15.1344C11.5501 15.1719 12.1311 15.0032 12.5964 14.4813C12.915 14.125 13.2742 13.8 13.6115 13.4593C14.1112 12.9531 14.1143 12.3405 13.6177 11.8405C13.0243 11.2436 12.4278 10.6498 11.8312 10.056Z" fill="white"/>
<path d="M11.2351 7.56558L12.3872 7.36869C12.2061 6.30926 11.7065 5.34983 10.9478 4.58729C10.1453 3.78412 9.13054 3.27784 8.01271 3.12158L7.85034 4.28102C8.71526 4.4029 9.50211 4.79355 10.1235 5.41546C10.7105 6.00299 11.0946 6.74678 11.2351 7.56558Z" fill="white"/>
<path d="M13.0329 2.55297C11.7025 1.22164 10.0193 0.380971 8.16117 0.121582L7.99878 1.28102C9.60395 1.50603 11.0592 2.2342 12.2085 3.38114C13.2984 4.47182 14.0135 5.85002 14.2727 7.36573L15.4251 7.16885C15.1221 5.4125 14.2946 3.81866 13.0329 2.55297Z" fill="white"/>
</svg>
