<svg width="61" height="60" viewBox="0 0 61 60" fill="none" xmlns="http://www.w3.org/2000/svg">
<g clip-path="url(#clip0_903_41511)">
<path d="M5.80587 34.6402C5.55723 34.6402 5.31873 34.5415 5.14292 34.3657C4.9671 34.1898 4.86837 33.9514 4.86837 33.7027C4.86105 28.781 6.34378 23.9724 9.12157 19.9094C11.8994 15.8465 15.842 12.7196 20.4309 10.9402C20.5465 10.8992 20.6692 10.8816 20.7917 10.8887C20.9142 10.8959 21.0341 10.9274 21.1442 10.9816C21.2543 11.0358 21.3524 11.1115 21.4328 11.2042C21.5132 11.2969 21.5741 11.4048 21.6121 11.5215C21.6535 11.6384 21.6713 11.7624 21.6644 11.8862C21.6575 12.01 21.6261 12.1312 21.5721 12.2428C21.518 12.3545 21.4424 12.4542 21.3495 12.5364C21.2566 12.6186 21.1482 12.6815 21.0309 12.7215C16.7826 14.3303 13.1361 17.214 10.5916 20.9771C8.04701 24.7403 6.72899 29.1985 6.81833 33.7402C6.81368 33.8667 6.7835 33.991 6.72953 34.1055C6.67556 34.22 6.59892 34.3224 6.50431 34.4065C6.40969 34.4906 6.29911 34.5547 6.17907 34.5948C6.05902 34.635 5.93205 34.6505 5.80587 34.6402Z" fill="#0A2540"/>
<path d="M54.5559 34.6405C54.3072 34.6405 54.0687 34.5418 53.8929 34.3659C53.7171 34.1901 53.6184 33.9517 53.6184 33.703C53.6486 29.1688 52.2978 24.7328 49.7456 20.985C47.1934 17.2371 43.5609 14.3549 39.3309 12.7218C39.0947 12.6422 38.8998 12.4721 38.789 12.2488C38.6782 12.0255 38.6607 11.7674 38.7403 11.5312C38.8198 11.2949 38.99 11.1 39.2132 10.9893C39.4365 10.8785 39.6947 10.861 39.9309 10.9405C44.5257 12.7222 48.4725 15.8548 51.2508 19.9252C54.0291 23.9955 55.5083 28.8124 55.4934 33.7405C55.4934 33.9892 55.3947 34.2276 55.2188 34.4034C55.043 34.5793 54.8045 34.678 54.5559 34.678V34.6405Z" fill="#0A2540"/>
<path d="M30.0309 58.8467C25.2742 58.8429 20.608 57.5467 16.5308 55.0967C16.3245 54.9574 16.1819 54.7419 16.1344 54.4975C16.0869 54.2532 16.1386 53.9999 16.2778 53.7936C16.417 53.5872 16.6325 53.4446 16.8769 53.3971C17.1213 53.3496 17.3746 53.4012 17.5809 53.5404C21.2243 55.8555 25.4517 57.085 29.7684 57.085C34.0851 57.085 38.3125 55.8555 41.9559 53.5404C42.0598 53.4724 42.1763 53.4261 42.2985 53.4044C42.4207 53.3827 42.5459 53.3859 42.6668 53.414C42.7878 53.442 42.9018 53.4942 43.0019 53.5675C43.1021 53.6408 43.1863 53.7337 43.2496 53.8404C43.3835 54.0494 43.4291 54.3029 43.3764 54.5454C43.3237 54.788 43.177 54.9997 42.9684 55.1342C39.1044 57.594 34.6112 58.8833 30.0309 58.8467Z" fill="#0A2540"/>
<path d="M38.0747 33.8525C38.0848 33.9397 38.0848 34.0278 38.0747 34.115V33.2712C38.0859 33.4648 38.0859 33.6589 38.0747 33.8525Z" fill="#0066B3"/>
<g clip-path="url(#clip1_903_41511)">
<path d="M38.5238 34.087C38.455 33.9605 38.3608 33.8497 38.247 33.7615C38.1332 33.6734 38.0024 33.6097 37.8628 33.5747L37.0035 33.3599C36.9715 32.8745 36.8713 32.3961 36.706 31.9387L37.4167 31.4099C37.6429 31.2344 37.7959 30.9812 37.8463 30.6993C37.88 30.4143 37.8096 30.1267 37.648 29.8896L36.2103 28.0057C36.1292 27.8877 36.0238 27.7884 35.9013 27.7143C35.7788 27.6402 35.6419 27.5931 35.4997 27.576C35.3584 27.5535 35.2139 27.5594 35.0749 27.5934C34.9358 27.6275 34.8049 27.689 34.69 27.7743L33.9794 28.3197C33.5233 27.9953 33.0222 27.7392 32.4921 27.5595V26.6837C32.4922 26.3973 32.3795 26.1223 32.1786 25.9182C31.9776 25.7142 31.7044 25.5974 31.418 25.593H29.0384C28.7491 25.593 28.4717 25.7079 28.2671 25.9125C28.0626 26.117 27.9477 26.3944 27.9477 26.6837V27.5595C27.488 27.7205 27.0496 27.937 26.6422 28.204L25.9482 27.6256C25.8395 27.54 25.7148 27.4769 25.5814 27.44C25.4481 27.4031 25.3087 27.3932 25.1715 27.4108C25.0273 27.4162 24.8861 27.4531 24.7577 27.5187C24.6293 27.5844 24.5167 27.6772 24.4278 27.7909L22.9406 29.6417C22.8503 29.7546 22.7833 29.8843 22.7436 30.0233C22.7039 30.1623 22.6922 30.3079 22.7092 30.4514C22.7239 30.5928 22.7665 30.7299 22.8346 30.8547C22.9027 30.9796 22.9949 31.0896 23.1058 31.1785L23.7999 31.7404C23.6302 32.1936 23.5137 32.665 23.4528 33.145L22.5936 33.3268C22.3163 33.3939 22.0756 33.5653 21.9217 33.8055C21.7678 34.0456 21.7125 34.3359 21.7673 34.6158L22.2796 36.9458C22.3088 37.0813 22.3648 37.2095 22.4443 37.323C22.5237 37.4365 22.625 37.533 22.7423 37.6068C22.8626 37.6867 22.9979 37.7411 23.14 37.7667C23.2821 37.7923 23.428 37.7885 23.5685 37.7556L24.4278 37.5738C24.6753 37.9954 24.9752 38.3841 25.3202 38.7306L24.9401 39.5072C24.8799 39.6337 24.8487 39.772 24.8487 39.9121C24.8487 40.0522 24.8799 40.1905 24.9401 40.317C24.9769 40.4584 25.045 40.5897 25.1394 40.7013C25.2338 40.8129 25.3521 40.9018 25.4855 40.9615L27.6007 42.0191C27.73 42.0796 27.871 42.1109 28.0138 42.1109C28.1566 42.1109 28.2976 42.0796 28.4269 42.0191C28.5639 41.9771 28.6906 41.9069 28.7987 41.813C28.9069 41.7191 28.9942 41.6035 29.0549 41.4737L29.4515 40.6805C29.7321 40.7006 30.0137 40.7006 30.2943 40.6805C30.4978 40.6969 30.7022 40.6969 30.9057 40.6805L31.2693 41.4903C31.3289 41.6245 31.4153 41.745 31.5233 41.8445C31.6313 41.944 31.7586 42.0203 31.8972 42.0686C32.0178 42.0858 32.1402 42.0858 32.2608 42.0686C32.4165 42.0657 32.5694 42.026 32.707 41.953L34.8718 40.9615C35.1253 40.8382 35.3251 40.6267 35.4336 40.3665C35.542 40.1018 35.542 39.8051 35.4336 39.5403L34.9709 38.9454C35.3147 38.6118 35.6196 38.2404 35.8798 37.8382L36.7391 38.053C36.8767 38.0973 37.0224 38.1098 37.1655 38.0898C37.3085 38.0698 37.4453 38.0177 37.5654 37.9373C37.6887 37.8628 37.7959 37.7645 37.881 37.6482C37.9661 37.5319 38.0273 37.3999 38.0611 37.2598L38.6561 34.9628C38.6936 34.8154 38.7011 34.6619 38.6784 34.5115C38.6557 34.3611 38.6032 34.2168 38.5238 34.087ZM36.8713 36.731L35.3014 36.3179L35.2188 36.4666C35.0973 36.7247 34.9477 36.9685 34.7726 37.1937C34.6116 37.4548 34.4172 37.6936 34.1942 37.9043C34.0086 38.1006 33.8038 38.2778 33.5828 38.4331L33.4506 38.5323L34.1116 40.0856L32.2608 40.8788L31.5833 39.3916H31.418L30.5752 39.5072H30.2612H29.6663C29.3968 39.5036 29.1293 39.459 28.8731 39.375H28.7078L27.9312 40.8458L26.1299 39.9204L26.857 38.4661L26.7249 38.3505C26.5104 38.1751 26.3113 37.9816 26.1299 37.7721C25.9215 37.563 25.7384 37.33 25.5846 37.078C25.4317 36.8476 25.2989 36.6043 25.188 36.3509V36.2022L23.5354 36.4997L23.1554 34.5332L24.8079 34.1861V33.9878C24.7806 33.7131 24.7806 33.4363 24.8079 33.1616C24.8482 32.8628 24.9203 32.5692 25.0228 32.2857C25.0958 32.0152 25.2012 31.7544 25.3367 31.509V31.3603L24.0643 30.2696L25.3698 28.7163L26.6257 29.7408L26.7579 29.6417C26.9562 29.493 27.2041 29.3277 27.452 29.179C27.7086 29.0108 27.9865 28.8775 28.2782 28.7824C28.5354 28.6781 28.8006 28.5952 29.0714 28.5345H29.2367V26.882H31.2527V28.5345H31.418C31.6933 28.6051 31.9638 28.6935 32.2277 28.7989C32.5654 28.9071 32.8834 29.0689 33.1697 29.2781C33.4162 29.4211 33.6485 29.5871 33.8637 29.7739L33.9794 29.873L35.3345 28.8981L36.5077 30.5506L35.2188 31.5421V31.7073C35.3518 31.952 35.4518 32.2131 35.5162 32.484C35.6059 32.7684 35.6614 33.0624 35.6815 33.3599C35.6973 33.5744 35.6973 33.7898 35.6815 34.0043C35.692 34.0478 35.692 34.0931 35.6815 34.1365V34.3348L37.334 34.7976L36.8713 36.731Z" fill="#0066B3"/>
<path d="M30.228 30.6826C29.5744 30.6826 28.9354 30.8765 28.3918 31.2396C27.8483 31.6028 27.4247 32.119 27.1745 32.7229C26.9244 33.3268 26.859 33.9913 26.9865 34.6324C27.114 35.2736 27.4288 35.8625 27.891 36.3247C28.3532 36.7869 28.9421 37.1017 29.5832 37.2292C30.2243 37.3567 30.8889 37.2913 31.4928 37.0411C32.0967 36.791 32.6129 36.3674 32.9761 35.8238C33.3392 35.2803 33.5331 34.6413 33.5331 33.9877C33.5331 33.1111 33.1849 32.2705 32.5651 31.6506C31.9452 31.0308 31.1046 30.6826 30.228 30.6826ZM30.228 36.2681C29.7763 36.2714 29.3338 36.1404 28.9566 35.8919C28.5794 35.6433 28.2845 35.2883 28.1094 34.8719C27.9342 34.4555 27.8867 33.9964 27.9729 33.553C28.059 33.1095 28.2749 32.7016 28.5931 32.3811C28.9114 32.0605 29.3177 31.8416 29.7605 31.7523C30.2033 31.6629 30.6627 31.7071 31.0804 31.8792C31.498 32.0513 31.8552 32.3436 32.1065 32.719C32.3578 33.0944 32.492 33.5359 32.492 33.9877C32.492 34.5896 32.254 35.1672 31.8299 35.5944C31.4058 36.0216 30.83 36.2638 30.228 36.2681Z" fill="#0066B3"/>
</g>
<path d="M34.4371 9.60916H33.2933C32.9279 9.62189 32.57 9.71602 32.2456 9.8847C31.9212 10.0534 31.6386 10.2923 31.4183 10.5842L30.2933 12.1592L28.9808 10.5092C28.7586 10.225 28.4738 9.9959 28.1486 9.8398C27.8234 9.68369 27.4665 9.60477 27.1058 9.60916H25.9809C25.5538 9.59146 25.1276 9.66033 24.7279 9.81163C24.3281 9.96293 23.9631 10.1935 23.6549 10.4896C23.3466 10.7856 23.1014 11.1409 22.934 11.5342C22.7666 11.9274 22.6805 12.3505 22.6808 12.7779V15.4967C22.6808 15.7601 22.7327 16.021 22.8335 16.2644C22.9343 16.5078 23.0822 16.729 23.2685 16.9153C23.4548 17.1016 23.6759 17.2494 23.9193 17.3502C24.1627 17.451 24.4236 17.5029 24.6871 17.5029H35.5246C35.8004 17.5236 36.0775 17.487 36.3385 17.3955C36.5995 17.304 36.8388 17.1595 37.0412 16.9711C37.2437 16.7827 37.4051 16.5545 37.5151 16.3007C37.6252 16.047 37.6816 15.7732 37.6808 15.4967V12.7779C37.676 12.3569 37.5881 11.9409 37.4224 11.5538C37.2568 11.1666 37.0165 10.8159 36.7153 10.5217C36.4141 10.2274 36.0578 9.99539 35.6669 9.83882C35.276 9.68225 34.8582 9.60421 34.4371 9.60916ZM35.7309 15.4967C35.7269 15.5301 35.7118 15.5612 35.688 15.585C35.6642 15.6088 35.6331 15.6239 35.5996 15.6279H24.7621C24.7273 15.6279 24.6939 15.6141 24.6693 15.5895C24.6446 15.5649 24.6308 15.5315 24.6308 15.4967V12.7779C24.6357 12.4363 24.7735 12.11 25.0151 11.8685C25.2567 11.6269 25.5829 11.489 25.9246 11.4842H27.0496C27.1269 11.4849 27.2028 11.5039 27.2713 11.5398C27.3398 11.5757 27.3987 11.6273 27.4433 11.6904L30.2746 15.2342L32.8433 11.7092C32.8947 11.6382 32.9624 11.5807 33.0407 11.5415C33.1191 11.5023 33.2057 11.4826 33.2933 11.4842H34.4371C34.7787 11.489 35.105 11.6269 35.3466 11.8685C35.5882 12.11 35.726 12.4363 35.7309 12.7779V15.4967Z" fill="#0A2540"/>
<path d="M30.1809 1.15277C29.1863 1.15277 28.2326 1.54785 27.5293 2.25112C26.826 2.95438 26.4309 3.9082 26.4309 4.90277C26.4259 5.31978 26.5023 5.73377 26.6559 6.12152C26.765 6.49305 26.9501 6.83785 27.1996 7.13402C27.4832 7.56104 27.8702 7.90935 28.3247 8.14652C28.8876 8.49503 29.5376 8.67704 30.1997 8.67151C30.806 8.69075 31.405 8.53449 31.9246 8.22152C32.3924 7.99856 32.8029 7.67145 33.1247 7.26527C33.3762 6.97839 33.5732 6.64796 33.7059 6.29027C33.8961 5.85268 33.992 5.37989 33.9872 4.90277C33.9873 4.40554 33.8884 3.91327 33.6964 3.45459C33.5044 2.99591 33.2232 2.57999 32.869 2.23103C32.5148 1.88206 32.0947 1.60702 31.6333 1.42191C31.1718 1.2368 30.6781 1.14531 30.1809 1.15277ZM30.1809 3.02777C30.6782 3.02777 31.1551 3.22531 31.5067 3.57694C31.8583 3.92857 32.0559 4.40548 32.0559 4.90277C32.0541 5.19628 31.9835 5.48529 31.8497 5.74652C31.7002 6.03875 31.4812 6.28984 31.2121 6.47777C30.8946 6.70386 30.5144 6.82536 30.1246 6.82536C29.7348 6.82536 29.3547 6.70386 29.0372 6.47777C28.7794 6.28003 28.5735 6.02266 28.4372 5.72777C28.3054 5.48673 28.2406 5.2148 28.2496 4.94027C28.2444 4.68609 28.291 4.43352 28.3865 4.1979C28.4819 3.96227 28.6242 3.74852 28.8049 3.56963C28.9855 3.39075 29.2007 3.25046 29.4373 3.15731C29.6738 3.06416 29.9268 3.02009 30.1809 3.02777Z" fill="#0A2540"/>
<path d="M12.3731 44.3105H11.2294C10.864 44.3232 10.5061 44.4173 10.1817 44.586C9.85732 44.7547 9.57467 44.9937 9.35441 45.2855L8.22934 46.8605L6.91693 45.2105C6.69474 44.9263 6.40993 44.6972 6.08472 44.5411C5.7595 44.385 5.40265 44.3061 5.04193 44.3105H3.91686C3.50074 44.3105 3.0887 44.3924 2.70425 44.5517C2.3198 44.7109 1.97047 44.9443 1.67622 45.2386C1.38198 45.5328 1.14859 45.8821 0.989349 46.2666C0.830105 46.651 0.748108 47.0631 0.748108 47.4792V50.198C0.748108 50.7301 0.959517 51.2404 1.33576 51.6166C1.71201 51.9929 2.22228 52.2042 2.75437 52.2042H13.5919C13.8554 52.2042 14.1162 52.1523 14.3596 52.0515C14.603 51.9507 14.8242 51.8029 15.0105 51.6166C15.1968 51.4303 15.3446 51.2091 15.4454 50.9657C15.5462 50.7223 15.5981 50.4614 15.5981 50.198V47.4792C15.5882 46.6321 15.2434 45.8234 14.6392 45.2297C14.0349 44.6359 13.2203 44.3055 12.3731 44.3105ZM13.6669 50.198C13.6629 50.2314 13.6478 50.2625 13.624 50.2863C13.6002 50.3101 13.5691 50.3253 13.5356 50.3292H2.69818C2.66337 50.3292 2.62998 50.3154 2.60537 50.2908C2.58076 50.2662 2.56692 50.2328 2.56692 50.198V47.4792C2.57176 47.1376 2.70963 46.8113 2.95121 46.5698C3.19279 46.3282 3.51906 46.1903 3.86067 46.1855H4.98563C5.06291 46.1862 5.13895 46.2052 5.20741 46.2411C5.27587 46.277 5.33483 46.3286 5.37942 46.3917L8.21069 49.9355L10.7794 46.4105C10.8308 46.3395 10.8985 46.282 10.9768 46.2428C11.0552 46.2036 11.1418 46.184 11.2294 46.1855H12.3731C12.7147 46.1903 13.041 46.3282 13.2826 46.5698C13.5242 46.8113 13.662 47.1376 13.6669 47.4792V50.198Z" fill="#0A2540"/>
<path d="M8.13554 35.8542C7.14098 35.8542 6.18721 36.2493 5.48395 36.9525C4.78069 37.6558 4.38554 38.6096 4.38554 39.6042C4.38057 40.0212 4.45698 40.4352 4.61053 40.8229C4.71966 41.1945 4.9049 41.5393 5.15436 41.8354C5.43792 42.2625 5.82489 42.6108 6.27931 42.8479C6.84221 43.1964 7.49228 43.3785 8.15431 43.3729C8.76065 43.3922 9.35961 43.2359 9.87928 42.9229C10.347 42.7 10.7576 42.3729 11.0793 41.9667C11.3308 41.6798 11.5278 41.3494 11.6606 40.9917C11.8508 40.5541 11.9467 40.0813 11.9418 39.6042C11.9419 39.107 11.843 38.6147 11.6511 38.156C11.4591 37.6973 11.1778 37.2814 10.8236 36.9324C10.4694 36.5835 10.0494 36.3084 9.58791 36.1233C9.12643 35.9382 8.63271 35.8467 8.13554 35.8542ZM8.13554 37.7292C8.63282 37.7292 9.10971 37.9267 9.46134 38.2784C9.81297 38.63 10.0105 39.1069 10.0105 39.6042C10.0088 39.8977 9.93817 40.1867 9.80432 40.4479C9.65484 40.7402 9.43589 40.9912 9.16677 41.1792C8.84922 41.4053 8.46917 41.5268 8.07935 41.5268C7.68953 41.5268 7.30937 41.4053 6.99182 41.1792C6.73405 40.9814 6.52813 40.7241 6.39181 40.4292C6.26008 40.1881 6.19538 39.9162 6.20435 39.6417C6.19915 39.3875 6.24565 39.1349 6.34111 38.8993C6.43656 38.6637 6.57898 38.4499 6.75962 38.271C6.94026 38.0922 7.15536 37.9519 7.39191 37.8587C7.62845 37.7656 7.88143 37.7215 8.13554 37.7292Z" fill="#0A2540"/>
<path d="M55.5607 44.3105H54.4168C54.0514 44.3232 53.6935 44.4173 53.3691 44.586C53.0447 44.7547 52.7621 44.9937 52.5418 45.2855L51.4169 46.8605L50.1043 45.2105C49.8822 44.9263 49.5974 44.6972 49.2721 44.5411C48.9469 44.385 48.5901 44.3061 48.2293 44.3105H47.0856C46.2452 44.3105 45.4392 44.6443 44.845 45.2386C44.2507 45.8328 43.9169 46.6388 43.9169 47.4792V50.198C43.9169 50.7301 44.1283 51.2404 44.5045 51.6166C44.8808 51.9929 45.391 52.2042 45.9231 52.2042H56.7606C57.024 52.2042 57.2849 52.1523 57.5284 52.0515C57.7718 51.9507 57.993 51.8029 58.1793 51.6166C58.3656 51.4303 58.5134 51.2091 58.6142 50.9657C58.715 50.7223 58.7668 50.4614 58.7668 50.198V47.4792C58.757 46.6354 58.4148 45.8295 57.8146 45.2363C57.2144 44.6431 56.4046 44.3104 55.5607 44.3105ZM56.8544 50.198C56.8504 50.2314 56.8353 50.2625 56.8115 50.2863C56.7877 50.3101 56.7566 50.3253 56.7232 50.3292H45.8856C45.8508 50.3292 45.8174 50.3154 45.7928 50.2908C45.7682 50.2662 45.7543 50.2328 45.7543 50.198V47.4792C45.7592 47.1376 45.897 46.8113 46.1386 46.5698C46.3802 46.3282 46.7065 46.1903 47.0481 46.1855H48.1732C48.2504 46.1862 48.3264 46.2052 48.3948 46.2411C48.4633 46.277 48.5222 46.3286 48.5668 46.3917L51.3981 49.9355L53.9668 46.4105C54.0182 46.3395 54.0859 46.282 54.1643 46.2428C54.2426 46.2036 54.3292 46.184 54.4168 46.1855H55.5607C55.9023 46.1903 56.2285 46.3282 56.4701 46.5698C56.7117 46.8113 56.8496 47.1376 56.8544 47.4792V50.198Z" fill="#0A2540"/>
<path d="M51.2854 35.8542C50.2909 35.8542 49.3371 36.2493 48.6338 36.9525C47.9306 37.6558 47.5354 38.6096 47.5354 39.6042C47.5305 40.0212 47.6069 40.4352 47.7604 40.8229C47.8696 41.1945 48.0548 41.5393 48.3043 41.8354C48.5878 42.2625 48.9748 42.6108 49.4292 42.8479C49.9921 43.1964 50.6422 43.3785 51.3042 43.3729C51.9105 43.3922 52.5095 43.2359 53.0292 42.9229C53.4969 42.7 53.9075 42.3729 54.2292 41.9667C54.4807 41.6798 54.6777 41.3494 54.8105 40.9917C55.0007 40.5541 55.0966 40.0813 55.0917 39.6042C55.0918 39.107 54.9929 38.6147 54.801 38.156C54.609 37.6973 54.3277 37.2814 53.9735 36.9324C53.6193 36.5835 53.1993 36.3084 52.7378 36.1233C52.2763 35.9382 51.7826 35.8467 51.2854 35.8542ZM51.2854 37.7292C51.7827 37.7292 52.2596 37.9267 52.6112 38.2784C52.9629 38.63 53.1604 39.1069 53.1604 39.6042C53.1587 39.8977 53.0881 40.1867 52.9542 40.4479C52.8047 40.7402 52.5858 40.9912 52.3167 41.1792C51.9991 41.4053 51.6191 41.5268 51.2293 41.5268C50.8394 41.5268 50.4593 41.4053 50.1417 41.1792C49.8839 40.9814 49.678 40.7241 49.5417 40.4292C49.41 40.1881 49.3453 39.9162 49.3543 39.6417C49.3491 39.3875 49.3956 39.1349 49.491 38.8993C49.5865 38.6637 49.7289 38.4499 49.9095 38.271C50.0902 38.0922 50.3053 37.9519 50.5418 37.8587C50.7784 37.7656 51.0313 37.7215 51.2854 37.7292Z" fill="#0A2540"/>
</g>
<defs>
<clipPath id="clip0_903_41511">
<rect width="60" height="60" fill="white" transform="translate(0.208984)"/>
</clipPath>
<clipPath id="clip1_903_41511">
<rect width="16.9446" height="16.5179" fill="white" transform="translate(21.7466 25.593)"/>
</clipPath>
</defs>
</svg>
