<svg width="61" height="61" viewBox="0 0 61 61" fill="none" xmlns="http://www.w3.org/2000/svg">
<g clip-path="url(#clip0_903_41453)">
<path d="M57.3618 5.0957H3.84924C3.41761 5.09812 2.99075 5.18616 2.59339 5.35473C2.19603 5.5233 1.83606 5.76905 1.53436 6.07773C1.23265 6.38641 0.995196 6.7519 0.835752 7.15301C0.676308 7.55412 0.598048 7.98288 0.605497 8.41445V53.4145C0.610418 54.2732 0.953764 55.0954 1.56102 55.7027C2.16828 56.31 2.99046 56.6533 3.84924 56.6582H57.3618C58.2205 56.6533 59.0427 56.31 59.65 55.7027C60.2572 55.0954 60.6006 54.2732 60.6055 53.4145V8.41445C60.6129 7.98288 60.5347 7.55412 60.3752 7.15301C60.2158 6.7519 59.9783 6.38641 59.6766 6.07773C59.3749 5.76905 59.015 5.5233 58.6176 5.35473C58.2202 5.18616 57.7934 5.09812 57.3618 5.0957ZM58.7305 53.4145C58.7305 53.5942 58.6951 53.7722 58.6263 53.9383C58.5575 54.1043 58.4567 54.2552 58.3296 54.3823C58.2025 54.5094 58.0516 54.6102 57.8856 54.679C57.7195 54.7478 57.5415 54.7832 57.3618 54.7832H3.84924C3.66949 54.7832 3.49151 54.7478 3.32544 54.679C3.15938 54.6102 3.00848 54.5094 2.88138 54.3823C2.75428 54.2552 2.65348 54.1043 2.5847 53.9383C2.51591 53.7722 2.4805 53.5942 2.4805 53.4145V8.41445C2.4805 8.05144 2.62469 7.70329 2.88138 7.4466C3.13807 7.18991 3.48622 7.0457 3.84924 7.0457H57.3618C57.7248 7.0457 58.0729 7.18991 58.3296 7.4466C58.5863 7.70329 58.7305 8.05144 58.7305 8.41445V53.4145Z" fill="#0A2540"/>
<path d="M5.81798 12.0142C6.49107 12.0142 7.03673 11.4685 7.03673 10.7954C7.03673 10.1223 6.49107 9.57666 5.81798 9.57666C5.14488 9.57666 4.59923 10.1223 4.59923 10.7954C4.59923 11.4685 5.14488 12.0142 5.81798 12.0142Z" fill="#0066B3"/>
<path d="M9.56798 12.0142C10.2411 12.0142 10.7867 11.4685 10.7867 10.7954C10.7867 10.1223 10.2411 9.57666 9.56798 9.57666C8.89488 9.57666 8.34923 10.1223 8.34923 10.7954C8.34923 11.4685 8.89488 12.0142 9.56798 12.0142Z" fill="#0066B3"/>
<path d="M13.318 12.0142C13.9911 12.0142 14.5367 11.4685 14.5367 10.7954C14.5367 10.1223 13.9911 9.57666 13.318 9.57666C12.6449 9.57666 12.0992 10.1223 12.0992 10.7954C12.0992 11.4685 12.6449 12.0142 13.318 12.0142Z" fill="#0066B3"/>
<path d="M59.668 13.4019H1.54297V15.2769H59.668V13.4019Z" fill="#0A2540"/>
<path d="M40.9747 32.6493C40.9754 32.765 40.9506 32.8795 40.9019 32.9845C40.8533 33.0895 40.782 33.1824 40.6932 33.2567L34.7678 38.0711C34.6313 38.1748 34.4652 38.2319 34.2938 38.234C34.1842 38.2323 34.0762 38.2078 33.9767 38.1618C33.8772 38.1159 33.7884 38.0497 33.7161 37.9674C33.5985 37.8098 33.5408 37.6155 33.5531 37.4193C33.581 37.2256 33.6752 37.0475 33.8198 36.9156L39.0193 32.6937L33.8642 28.8126C33.7103 28.6924 33.6089 28.5173 33.5812 28.324C33.5536 28.1306 33.602 27.9341 33.7161 27.7757C33.8363 27.6217 34.0114 27.5203 34.2047 27.4927C34.398 27.4651 34.5945 27.5134 34.753 27.6275L40.6784 32.0716C40.7693 32.1383 40.8433 32.2252 40.8947 32.3255C40.9462 32.4257 40.9736 32.5366 40.9747 32.6493Z" fill="#0066B3"/>
<g clip-path="url(#clip1_903_41453)">
<path d="M27.6426 37.419C27.6549 37.6152 27.5972 37.8095 27.4796 37.9671C27.4073 38.0494 27.3185 38.1156 27.219 38.1616C27.1195 38.2075 27.0115 38.2321 26.9019 38.2337C26.7346 38.234 26.5724 38.1764 26.4427 38.0708L20.5173 33.2564C20.4285 33.1822 20.3572 33.0892 20.3086 32.9842C20.2599 32.8792 20.2351 32.7648 20.2358 32.649C20.2407 32.5313 20.271 32.4161 20.3247 32.3112C20.3784 32.2064 20.4542 32.1144 20.5469 32.0417L26.4723 27.5976C26.6313 27.4841 26.8259 27.4316 27.0204 27.4495C27.1175 27.464 27.2107 27.4977 27.2946 27.5486C27.3785 27.5994 27.4515 27.6665 27.5093 27.7458C27.6234 27.9042 27.6717 28.1007 27.6441 28.2941C27.6165 28.4874 27.515 28.6625 27.3611 28.7827L22.1912 32.6639L27.3908 36.8857C27.5361 37.0274 27.6255 37.2167 27.6426 37.419Z" fill="#0066B3"/>
</g>
<g clip-path="url(#clip2_903_41453)">
<path d="M33.5679 25.4647L29.1239 41.093C29.079 41.2468 28.9854 41.382 28.8572 41.4781C28.729 41.5743 28.5731 41.6263 28.4128 41.6263C28.3444 41.6407 28.2738 41.6407 28.2054 41.6263C28.0174 41.5743 27.8576 41.4502 27.7605 41.281C27.6634 41.1118 27.637 40.9112 27.687 40.7227L32.131 25.0796C32.158 24.9857 32.2034 24.8981 32.2644 24.8218C32.3254 24.7456 32.4009 24.6821 32.4865 24.6352C32.6669 24.5611 32.8691 24.5611 33.0494 24.6352C33.2219 24.6868 33.3697 24.7995 33.4651 24.9522C33.5605 25.1048 33.5971 25.287 33.5679 25.4647Z" fill="#0066B3"/>
</g>
</g>
<defs>
<clipPath id="clip0_903_41453">
<rect width="60" height="60" fill="white" transform="translate(0.605469 0.876953)"/>
</clipPath>
<clipPath id="clip1_903_41453">
<rect width="7.41587" height="10.7877" fill="white" transform="translate(20.2358 27.446)"/>
</clipPath>
<clipPath id="clip2_903_41453">
<rect width="5.91548" height="17.0575" fill="white" transform="translate(27.6622 24.5796)"/>
</clipPath>
</defs>
</svg>
