<svg width="60" height="60" viewBox="0 0 60 60" fill="none" xmlns="http://www.w3.org/2000/svg">
<path d="M56.7562 7.10645C57.1192 7.10645 57.4674 7.25065 57.7241 7.50734C57.9808 7.76403 58.125 8.11218 58.125 8.47519V43.5189C58.125 43.882 57.9808 44.2301 57.7241 44.4868C57.4674 44.7435 57.1192 44.8877 56.7562 44.8877H3.24377C2.88076 44.8877 2.53258 44.7435 2.27589 44.4868C2.0192 44.2301 1.875 43.882 1.875 43.5189V8.47519C1.875 8.11218 2.0192 7.76403 2.27589 7.50734C2.53258 7.25065 2.88076 7.10645 3.24377 7.10645H56.7562ZM56.7562 5.23145H3.24377C2.38347 5.23145 1.55841 5.5732 0.950089 6.18152C0.341767 6.78984 0 7.6149 0 8.47519V43.5189C0.00492148 44.3777 0.348267 45.1999 0.955524 45.8072C1.56278 46.4144 2.38499 46.7578 3.24377 46.7627H56.7562C57.615 46.7578 58.4372 46.4144 59.0445 45.8072C59.6517 45.1999 59.9951 44.3777 60 43.5189V8.47519C60 7.6149 59.6582 6.78984 59.0499 6.18152C58.4416 5.5732 57.6165 5.23145 56.7562 5.23145Z" fill="#0A2540"/>
<path d="M60 37.7629H0.9375V39.6379H60V37.7629Z" fill="#0A2540"/>
<path d="M36.7124 46.3313H34.8374V53.8313H36.7124V46.3313Z" fill="#0A2540"/>
<path d="M25.1626 46.3313H23.2876V53.8313H25.1626V46.3313Z" fill="#0A2540"/>
<path d="M44.2125 54.7688H15.7876C15.539 54.7688 15.3005 54.67 15.1246 54.4942C14.9488 54.3184 14.8501 54.0799 14.8501 53.8313C14.8501 53.5827 14.9488 53.3442 15.1246 53.1684C15.3005 52.9926 15.539 52.8938 15.7876 52.8938H44.2125C44.4612 52.8938 44.6997 52.9926 44.8755 53.1684C45.0513 53.3442 45.15 53.5827 45.15 53.8313C45.15 54.0799 45.0513 54.3184 44.8755 54.4942C44.6997 54.67 44.4612 54.7688 44.2125 54.7688Z" fill="#0A2540"/>
<g clip-path="url(#clip0_903_41472)">
<path d="M29.0236 20.0411C28.9683 19.9394 28.8925 19.8503 28.8011 19.7795C28.7096 19.7086 28.6045 19.6575 28.4922 19.6293L27.8015 19.4566C27.7757 19.0665 27.6952 18.6819 27.5624 18.3142L28.1336 17.8891C28.3154 17.7481 28.4385 17.5445 28.4789 17.318C28.506 17.0889 28.4494 16.8577 28.3195 16.6671L27.1639 15.1528C27.0987 15.0579 27.014 14.9781 26.9155 14.9185C26.817 14.859 26.707 14.8211 26.5927 14.8074C26.4791 14.7892 26.363 14.794 26.2512 14.8214C26.1394 14.8487 26.0342 14.8982 25.9418 14.9668L25.3706 15.4051C25.004 15.1444 24.6012 14.9385 24.1751 14.7941V14.0901C24.1752 13.8599 24.0846 13.6388 23.9231 13.4748C23.7615 13.3108 23.5419 13.2169 23.3117 13.2134H21.3989C21.1664 13.2134 20.9434 13.3057 20.7789 13.4702C20.6145 13.6346 20.5222 13.8576 20.5222 14.0901V14.7941C20.1527 14.9235 19.8002 15.0975 19.4728 15.3122L18.9149 14.8472C18.8275 14.7784 18.7273 14.7277 18.6201 14.698C18.5129 14.6684 18.4009 14.6604 18.2906 14.6746C18.1747 14.6789 18.0612 14.7085 17.958 14.7613C17.8547 14.8141 17.7642 14.8887 17.6928 14.9801L16.4973 16.4678C16.4247 16.5586 16.3709 16.6628 16.339 16.7746C16.307 16.8863 16.2976 17.0033 16.3113 17.1187C16.3231 17.2324 16.3574 17.3426 16.4121 17.4429C16.4669 17.5432 16.541 17.6317 16.6301 17.7032L17.188 18.1548C17.0516 18.5191 16.958 18.898 16.9091 19.2839L16.2184 19.43C15.9955 19.4839 15.8021 19.6217 15.6783 19.8148C15.5546 20.0078 15.5101 20.2411 15.5542 20.4661L15.966 22.3391C15.9895 22.448 16.0345 22.551 16.0984 22.6423C16.1622 22.7335 16.2437 22.8111 16.3379 22.8704C16.4346 22.9346 16.5434 22.9784 16.6576 22.9989C16.7719 23.0195 16.8891 23.0164 17.0021 22.99L17.6928 22.8439C17.8918 23.1828 18.1328 23.4952 18.4101 23.7737L18.1046 24.398C18.0562 24.4997 18.0311 24.6109 18.0311 24.7235C18.0311 24.8361 18.0562 24.9472 18.1046 25.0489C18.1342 25.1626 18.1889 25.2682 18.2648 25.3578C18.3407 25.4475 18.4357 25.519 18.543 25.567L20.2432 26.4171C20.3472 26.4657 20.4606 26.4909 20.5753 26.4909C20.6901 26.4909 20.8035 26.4657 20.9074 26.4171C21.0175 26.3834 21.1193 26.327 21.2063 26.2514C21.2932 26.1759 21.3634 26.083 21.4122 25.9788L21.731 25.3411C21.9565 25.3572 22.1829 25.3572 22.4084 25.3411C22.572 25.3543 22.7364 25.3543 22.8999 25.3411L23.1922 25.992C23.2401 26.0999 23.3095 26.1968 23.3964 26.2768C23.4832 26.3568 23.5855 26.4181 23.6969 26.457C23.7939 26.4708 23.8922 26.4708 23.9891 26.457C24.1143 26.4546 24.2372 26.4227 24.3478 26.364L26.0879 25.567C26.2917 25.4679 26.4523 25.2979 26.5396 25.0888C26.6267 24.8759 26.6267 24.6374 26.5396 24.4246L26.1676 23.9464C26.444 23.6782 26.6891 23.3797 26.8982 23.0564L27.589 23.2291C27.6995 23.2646 27.8167 23.2747 27.9317 23.2586C28.0467 23.2425 28.1566 23.2007 28.2531 23.1361C28.3523 23.0761 28.4385 22.9971 28.5069 22.9037C28.5753 22.8102 28.6245 22.7041 28.6516 22.5915L29.1299 20.7451C29.16 20.6266 29.1661 20.5032 29.1479 20.3823C29.1296 20.2614 29.0873 20.1454 29.0236 20.0411ZM27.6952 22.1664L26.4333 21.8343L26.3669 21.9539C26.2693 22.1613 26.149 22.3573 26.0082 22.5383C25.8788 22.7482 25.7225 22.9402 25.5433 23.1095C25.3941 23.2673 25.2295 23.4097 25.0518 23.5346L24.9455 23.6143L25.4769 24.8629L23.9891 25.5005L23.4446 24.305H23.3117L22.6342 24.398H22.3819H21.9037C21.687 24.3951 21.472 24.3593 21.2661 24.2918H21.1332L20.5089 25.474L19.061 24.7301L19.6455 23.5612L19.5392 23.4682C19.3668 23.3272 19.2068 23.1716 19.061 23.0033C18.8934 22.8352 18.7463 22.6479 18.6227 22.4454C18.4997 22.2601 18.393 22.0645 18.3038 21.8609V21.7413L16.9755 21.9804L16.67 20.3997L17.9983 20.1208V19.9614C17.9764 19.7405 17.9764 19.518 17.9983 19.2972C18.0308 19.057 18.0886 18.821 18.171 18.5932C18.2298 18.3757 18.3145 18.1661 18.4234 17.9688V17.8493L17.4006 16.9726L18.45 15.7239L19.4595 16.5475L19.5658 16.4678C19.7252 16.3483 19.9244 16.2154 20.1237 16.0959C20.33 15.9607 20.5534 15.8535 20.7879 15.7771C20.9946 15.6933 21.2078 15.6266 21.4254 15.5778H21.5583V14.2495H23.1789V15.5778H23.3117C23.533 15.6346 23.7504 15.7056 23.9626 15.7904C24.234 15.8773 24.4897 16.0074 24.7198 16.1756C24.9179 16.2905 25.1047 16.4239 25.2776 16.5741L25.3706 16.6538L26.4599 15.8701L27.403 17.1984L26.3669 17.9954V18.1282C26.4738 18.3249 26.5542 18.5348 26.606 18.7526C26.6781 18.9811 26.7227 19.2175 26.7388 19.4566C26.7515 19.629 26.7515 19.8022 26.7388 19.9746C26.7473 20.0096 26.7473 20.046 26.7388 20.0809V20.2403L28.0672 20.6122L27.6952 22.1664Z" fill="#0066B3"/>
<path d="M22.3552 17.3044C21.8298 17.3044 21.3161 17.4603 20.8792 17.7522C20.4423 18.0441 20.1018 18.459 19.9007 18.9445C19.6997 19.4299 19.6471 19.9641 19.7496 20.4794C19.8521 20.9948 20.1051 21.4681 20.4767 21.8397C20.8482 22.2112 21.3216 22.4643 21.8369 22.5668C22.3522 22.6693 22.8864 22.6167 23.3719 22.4156C23.8573 22.2145 24.2722 21.874 24.5642 21.4371C24.8561 21.0002 25.0119 20.4866 25.0119 19.9611C25.0119 19.2565 24.732 18.5808 24.2338 18.0826C23.7356 17.5843 23.0598 17.3044 22.3552 17.3044ZM22.3552 21.7942C21.9921 21.7969 21.6364 21.6916 21.3332 21.4918C21.03 21.292 20.793 21.0066 20.6522 20.6719C20.5114 20.3372 20.4732 19.9682 20.5424 19.6117C20.6117 19.2553 20.7852 18.9274 21.041 18.6697C21.2969 18.412 21.6234 18.2361 21.9794 18.1643C22.3353 18.0925 22.7046 18.128 23.0403 18.2663C23.3761 18.4047 23.6632 18.6396 23.8652 18.9413C24.0672 19.2431 24.175 19.598 24.175 19.9611C24.1751 20.445 23.9837 20.9093 23.6428 21.2527C23.3019 21.5961 22.8391 21.7907 22.3552 21.7942Z" fill="#0066B3"/>
</g>
<g clip-path="url(#clip1_903_41472)">
<path d="M44.0158 24.1321C43.9605 24.0305 43.8847 23.9414 43.7932 23.8705C43.7018 23.7997 43.5966 23.7485 43.4844 23.7203L42.7937 23.5477C42.7679 23.1575 42.6874 22.773 42.5546 22.4053L43.1258 21.9802C43.3076 21.8391 43.4307 21.6356 43.4711 21.409C43.4982 21.1799 43.4416 20.9488 43.3117 20.7581L42.1561 19.2438C42.0909 19.149 42.0062 19.0691 41.9077 19.0096C41.8092 18.95 41.6992 18.9122 41.5849 18.8985C41.4713 18.8803 41.3552 18.8851 41.2434 18.9124C41.1316 18.9398 41.0264 18.9892 40.934 19.0579L40.3628 19.4962C39.9962 19.2354 39.5934 19.0296 39.1673 18.8852V18.1811C39.1673 17.9509 39.0768 17.7299 38.9152 17.5659C38.7537 17.4018 38.5341 17.3079 38.3039 17.3044H36.3911C36.1586 17.3044 35.9356 17.3968 35.7711 17.5612C35.6067 17.7256 35.5144 17.9486 35.5144 18.1811V18.8852C35.1448 19.0146 34.7924 19.1886 34.465 19.4032L33.9071 18.9383C33.8197 18.8695 33.7195 18.8188 33.6123 18.7891C33.5051 18.7595 33.3931 18.7515 33.2828 18.7656C33.1669 18.77 33.0534 18.7996 32.9502 18.8524C32.8469 18.9051 32.7564 18.9798 32.685 19.0711L31.4895 20.5589C31.4169 20.6496 31.3631 20.7539 31.3312 20.8657C31.2992 20.9774 31.2898 21.0944 31.3035 21.2098C31.3153 21.3234 31.3496 21.4336 31.4043 21.534C31.4591 21.6343 31.5332 21.7228 31.6223 21.7942L32.1802 22.2459C32.0438 22.6102 31.9502 22.9891 31.9013 23.375L31.2106 23.5211C30.9877 23.575 30.7942 23.7128 30.6705 23.9058C30.5468 24.0989 30.5023 24.3322 30.5464 24.5572L30.9582 26.4302C30.9817 26.539 31.0267 26.6421 31.0906 26.7333C31.1544 26.8246 31.2359 26.9021 31.3301 26.9615C31.4268 27.0257 31.5356 27.0694 31.6498 27.09C31.764 27.1106 31.8813 27.1075 31.9943 27.081L32.685 26.9349C32.884 27.2739 33.125 27.5863 33.4023 27.8648L33.0968 28.4891C33.0484 28.5908 33.0233 28.7019 33.0233 28.8145C33.0233 28.9271 33.0484 29.0383 33.0968 29.14C33.1264 29.2537 33.1811 29.3592 33.257 29.4489C33.3329 29.5386 33.4279 29.61 33.5352 29.658L35.2354 30.5082C35.3394 30.5568 35.4527 30.582 35.5675 30.582C35.6823 30.582 35.7956 30.5568 35.8996 30.5082C36.0097 30.4745 36.1115 30.418 36.1984 30.3425C36.2854 30.267 36.3556 30.1741 36.4044 30.0698L36.7232 29.4322C36.9487 29.4483 37.1751 29.4483 37.4006 29.4322C37.5642 29.4454 37.7286 29.4454 37.8921 29.4322L38.1844 30.0831C38.2322 30.191 38.3017 30.2879 38.3885 30.3679C38.4754 30.4478 38.5777 30.5091 38.6891 30.548C38.7861 30.5618 38.8844 30.5618 38.9813 30.548C39.1065 30.5456 39.2294 30.5138 39.34 30.455L41.0801 29.658C41.2839 29.559 41.4445 29.3889 41.5318 29.1798C41.6189 28.967 41.6189 28.7285 41.5318 28.5157L41.1598 28.0374C41.4362 27.7693 41.6812 27.4707 41.8904 27.1475L42.5812 27.3201C42.6917 27.3557 42.8089 27.3658 42.9239 27.3497C43.0389 27.3336 43.1488 27.2917 43.2453 27.2272C43.3444 27.1672 43.4307 27.0882 43.4991 26.9947C43.5675 26.9012 43.6167 26.7951 43.6438 26.6825L44.122 24.8361C44.1522 24.7176 44.1583 24.5943 44.14 24.4734C44.1218 24.3525 44.0795 24.2364 44.0158 24.1321ZM42.6874 26.2575L41.4255 25.9254L41.3591 26.0449C41.2614 26.2524 41.1412 26.4484 41.0004 26.6294C40.871 26.8392 40.7147 27.0313 40.5355 27.2006C40.3863 27.3584 40.2217 27.5008 40.044 27.6257L39.9377 27.7054L40.4691 28.954L38.9813 29.5916L38.4367 28.3961H38.3039L37.6264 28.4891H37.374H36.8959C36.6792 28.4862 36.4642 28.4503 36.2582 28.3828H36.1254L35.5011 29.565L34.0532 28.8212L34.6377 27.6522L34.5314 27.5592C34.359 27.4182 34.199 27.2627 34.0532 27.0943C33.8856 26.9263 33.7385 26.739 33.6149 26.5364C33.4919 26.3512 33.3852 26.1556 33.296 25.952V25.8324L31.9677 26.0715L31.6622 24.4908L32.9905 24.2118V24.0524C32.9686 23.8316 32.9686 23.6091 32.9905 23.3883C33.0229 23.1481 33.0808 22.9121 33.1632 22.6842C33.222 22.4667 33.3067 22.2571 33.4156 22.0599V21.9404L32.3928 21.0637L33.4422 19.815L34.4517 20.6386L34.558 20.5589C34.7174 20.4393 34.9166 20.3065 35.1159 20.1869C35.3222 20.0518 35.5455 19.9446 35.7801 19.8681C35.9868 19.7843 36.2 19.7177 36.4176 19.6689H36.5505V18.3406H38.1711V19.6689H38.3039C38.5252 19.7257 38.7426 19.7967 38.9548 19.8814C39.2262 19.9684 39.4818 20.0985 39.7119 20.2666C39.9101 20.3816 40.0969 20.515 40.2698 20.6652L40.3628 20.7449L41.4521 19.9611L42.3952 21.2895L41.3591 22.0865V22.2193C41.466 22.416 41.5463 22.6259 41.5982 22.8436C41.6703 23.0722 41.7149 23.3085 41.731 23.5477C41.7437 23.7201 41.7437 23.8933 41.731 24.0657C41.7395 24.1006 41.7395 24.1371 41.731 24.172V24.3314L43.0593 24.7033L42.6874 26.2575Z" fill="#0066B3"/>
<path d="M37.3473 21.3955C36.8219 21.3955 36.3083 21.5513 35.8714 21.8432C35.4345 22.1352 35.0939 22.5501 34.8929 23.0355C34.6918 23.521 34.6392 24.0551 34.7417 24.5705C34.8442 25.0858 35.0972 25.5592 35.4688 25.9308C35.8403 26.3023 36.3137 26.5553 36.829 26.6578C37.3444 26.7603 37.8785 26.7077 38.364 26.5066C38.8494 26.3056 39.2644 25.9651 39.5563 25.5282C39.8482 25.0913 40.004 24.5776 40.004 24.0522C40.004 23.3476 39.7241 22.6719 39.2259 22.1736C38.7277 21.6754 38.0519 21.3955 37.3473 21.3955ZM37.3473 25.8853C36.9842 25.8879 36.6285 25.7827 36.3253 25.5828C36.0221 25.383 35.7851 25.0977 35.6443 24.7629C35.5035 24.4282 35.4654 24.0592 35.5346 23.7028C35.6038 23.3463 35.7773 23.0185 36.0331 22.7608C36.289 22.5031 36.6156 22.3271 36.9715 22.2553C37.3275 22.1835 37.6967 22.219 38.0325 22.3574C38.3682 22.4957 38.6553 22.7307 38.8573 23.0324C39.0593 23.3341 39.1672 23.6891 39.1672 24.0522C39.1672 24.5361 38.9759 25.0003 38.6349 25.3437C38.294 25.6871 37.8312 25.8818 37.3473 25.8853Z" fill="#0066B3"/>
</g>
<defs>
<clipPath id="clip0_903_41472">
<rect width="13.6205" height="13.2776" fill="white" transform="translate(15.5376 13.2134)"/>
</clipPath>
<clipPath id="clip1_903_41472">
<rect width="13.6205" height="13.2776" fill="white" transform="translate(30.5298 17.3044)"/>
</clipPath>
</defs>
</svg>
