<svg width="61" height="61" viewBox="0 0 61 61" fill="none" xmlns="http://www.w3.org/2000/svg">
<g clip-path="url(#clip0_7389_43111)">
<path d="M56.8334 8.09277C57.1964 8.09277 57.5446 8.23698 57.8013 8.49367C58.058 8.75036 58.2021 9.09851 58.2021 9.46152V44.5053C58.2021 44.8683 58.058 45.2164 57.8013 45.4731C57.5446 45.7298 57.1964 45.874 56.8334 45.874H3.32092C2.9579 45.874 2.60973 45.7298 2.35303 45.4731C2.09634 45.2164 1.95215 44.8683 1.95215 44.5053V9.46152C1.95215 9.09851 2.09634 8.75036 2.35303 8.49367C2.60973 8.23698 2.9579 8.09277 3.32092 8.09277H56.8334ZM56.8334 6.21777H3.32092C2.46062 6.21777 1.63556 6.55952 1.02724 7.16785C0.418916 7.77617 0.0771484 8.60123 0.0771484 9.46152V44.5053C0.0820699 45.3641 0.425415 46.1863 1.03267 46.7935C1.63993 47.4008 2.46214 47.7441 3.32092 47.749H56.8334C57.6922 47.7441 58.5144 47.4008 59.1216 46.7935C59.7289 46.1863 60.0722 45.3641 60.0771 44.5053V9.46152C60.0771 8.60123 59.7354 7.77617 59.1271 7.16785C58.5187 6.55952 57.6937 6.21777 56.8334 6.21777Z" fill="#012842"/>
<path d="M60.0771 38.7493H1.01465V40.6243H60.0771V38.7493Z" fill="#012842"/>
<path d="M36.7896 47.3176H34.9146V54.8176H36.7896V47.3176Z" fill="#012842"/>
<path d="M25.2397 47.3176H23.3647V54.8176H25.2397V47.3176Z" fill="#012842"/>
<path d="M44.2897 55.7551H15.8647C15.6161 55.7551 15.3776 55.6564 15.2018 55.4805C15.026 55.3047 14.9272 55.0663 14.9272 54.8176C14.9272 54.569 15.026 54.3305 15.2018 54.1547C15.3776 53.9789 15.6161 53.8801 15.8647 53.8801H44.2897C44.5383 53.8801 44.7768 53.9789 44.9527 54.1547C45.1285 54.3305 45.2272 54.569 45.2272 54.8176C45.2272 55.0663 45.1285 55.3047 44.9527 55.4805C44.7768 55.6564 44.5383 55.7551 44.2897 55.7551Z" fill="#012842"/>
<path d="M35.2995 24.1558L33.5913 23.8133C33.5096 23.5659 33.4096 23.3251 33.2921 23.0927L33.4758 22.8177L31.9205 22.8203C31.8816 22.9145 31.8654 23.0164 31.873 23.1179C31.8806 23.2195 31.912 23.3178 31.9645 23.4051C32.1791 23.7548 32.3366 24.1342 32.4324 24.5318C32.4616 24.6536 32.5251 24.7645 32.6153 24.8514C32.7056 24.9382 32.8188 24.9975 32.9416 25.0221L34.5146 25.3371V25.5733L32.9416 25.8883C32.8188 25.9129 32.7056 25.9721 32.6153 26.059C32.5251 26.1459 32.4616 26.2567 32.4324 26.3785C32.3363 26.7763 32.1785 27.1565 31.9645 27.5053C31.899 27.6121 31.8654 27.7354 31.8677 27.8606C31.8701 27.9859 31.9082 28.1078 31.9776 28.2121L32.8688 29.5476L32.7008 29.7149L31.3653 28.825C31.2612 28.7553 31.1392 28.717 31.0138 28.7147C30.8885 28.7124 30.7652 28.7461 30.6585 28.8119C30.3096 29.0258 29.9291 29.1833 29.5311 29.2785C29.2824 29.3389 29.0914 29.5377 29.0415 29.7884L28.7265 31.3614H28.4903L28.1753 29.7884C28.1508 29.6656 28.0917 29.5523 28.0049 29.462C27.9182 29.3716 27.8074 29.308 27.6857 29.2785C27.2874 29.1831 26.9067 29.0254 26.5576 28.8113C26.4508 28.7459 26.3275 28.7124 26.2023 28.7148C26.0771 28.7171 25.9552 28.7551 25.8508 28.8244L24.516 29.7149L24.348 29.5476L25.2386 28.2121C25.308 28.1078 25.3461 27.9859 25.3484 27.8606C25.3507 27.7354 25.3172 27.6121 25.2517 27.5053C25.0379 27.1565 24.8802 26.7763 24.7844 26.3785C24.7552 26.2567 24.6917 26.1459 24.6014 26.059C24.5112 25.9721 24.398 25.9129 24.2752 25.8883L22.7021 25.5733V25.3371L24.2752 25.0221C24.398 24.9975 24.5112 24.9382 24.6014 24.8514C24.6917 24.7645 24.7552 24.6536 24.7844 24.5318C24.8803 24.134 25.0382 23.7538 25.2523 23.4051C25.3178 23.2983 25.3514 23.175 25.3491 23.0498C25.3467 22.9245 25.3086 22.8026 25.2392 22.6983L25.0883 22.4732C25.0784 22.4633 25.066 22.4561 25.0555 22.4463C24.9236 22.3129 24.8219 22.1526 24.7575 21.9764L24.348 21.3628L24.516 21.1955L24.6709 21.2985V19.7498C24.5533 19.7012 24.424 19.6883 24.2992 19.7127C24.1743 19.7371 24.0594 19.7977 23.9687 19.8869L23.0401 20.8148C22.933 20.9221 22.8662 21.0631 22.8513 21.214C22.8363 21.3648 22.8741 21.5162 22.9581 21.6424L23.9247 23.0927C23.8066 23.3257 23.7069 23.5665 23.6255 23.8133L21.9173 24.1558C21.7686 24.1855 21.6347 24.2659 21.5385 24.3831C21.4424 24.5003 21.3897 24.6473 21.3896 24.7989V26.1114C21.3897 26.2631 21.4424 26.41 21.5385 26.5273C21.6347 26.6445 21.7686 26.7248 21.9173 26.7546L23.6255 27.0971C23.7069 27.3439 23.8073 27.5847 23.9247 27.8177L22.9581 29.268C22.8741 29.3942 22.8363 29.5456 22.8513 29.6964C22.8662 29.8473 22.933 29.9883 23.0401 30.0955L23.9681 31.0235C24.0751 31.1312 24.2163 31.1984 24.3674 31.2133C24.5185 31.2283 24.6702 31.1902 24.7962 31.1055L26.2466 30.1395C26.4789 30.2563 26.7197 30.3561 26.9671 30.4381L27.3084 32.1463C27.3381 32.2951 27.4185 32.4291 27.5359 32.5253C27.6533 32.6215 27.8004 32.674 27.9521 32.6739H29.2646C29.4163 32.6738 29.5632 32.6212 29.6805 32.525C29.7977 32.4289 29.878 32.295 29.9078 32.1463L30.2497 30.4381C30.4972 30.3566 30.7383 30.2568 30.9709 30.1395L32.4212 31.1055C32.5473 31.1896 32.6986 31.2274 32.8493 31.2124C33.0001 31.1974 33.141 31.1307 33.2481 31.0235L34.1767 30.0955C34.2838 29.9883 34.3505 29.8473 34.3655 29.6964C34.3805 29.5456 34.3427 29.3942 34.2587 29.268L33.2921 27.8177C33.4102 27.5847 33.5099 27.3439 33.5913 27.0971L35.2995 26.7546C35.4482 26.7248 35.5821 26.6445 35.6783 26.5273C35.7744 26.41 35.8271 26.2631 35.8271 26.1114V24.7989C35.8271 24.6473 35.7744 24.5003 35.6783 24.3831C35.5821 24.2659 35.4482 24.1855 35.2995 24.1558Z" fill="#005BAA"/>
<path d="M27.2992 22.1719H27.2966C26.7745 22.1713 26.274 21.9638 25.9048 21.5947C25.5356 21.2256 25.3278 20.7252 25.3271 20.2031V16.2676C25.3271 15.1821 26.2105 14.2988 27.2959 14.2988H37.7959C38.8813 14.2988 39.7646 15.1821 39.7646 16.2676V20.1854C39.7641 20.7069 39.5569 21.207 39.1884 21.576C38.8198 21.945 38.3201 22.1529 37.7985 22.1541L27.2992 22.1719ZM27.2959 15.6113C26.9343 15.6113 26.6396 15.9053 26.6396 16.2676V20.2031C26.6396 20.564 26.9343 20.8594 27.2959 20.8594L37.7972 20.8416C37.971 20.8413 38.1376 20.772 38.2604 20.649C38.3832 20.5259 38.4521 20.3592 38.4521 20.1854V16.2676C38.4521 15.9053 38.1575 15.6113 37.7959 15.6113H27.2959Z" fill="#005BAA"/>
<path d="M29.9202 20.2051C29.7908 20.2051 29.6643 20.1667 29.5567 20.0949L27.5879 18.7824C27.4981 18.7224 27.4244 18.6412 27.3734 18.546C27.3224 18.4507 27.2958 18.3444 27.2958 18.2364C27.2958 18.1283 27.3224 18.022 27.3734 17.9267C27.4244 17.8315 27.4981 17.7503 27.5879 17.6904L29.5567 16.3779C29.6284 16.33 29.7088 16.2968 29.7933 16.28C29.8779 16.2633 29.9649 16.2634 30.0494 16.2802C30.134 16.2971 30.2143 16.3305 30.286 16.3784C30.3576 16.4264 30.4191 16.4879 30.4669 16.5596C30.5147 16.6313 30.548 16.7118 30.5647 16.7963C30.5815 16.8809 30.5814 16.9679 30.5645 17.0524C30.5476 17.1369 30.5143 17.2173 30.4663 17.2889C30.4184 17.3605 30.3568 17.422 30.2851 17.4699L29.1354 18.2364L30.2851 19.0029C30.4024 19.081 30.4913 19.1949 30.5388 19.3275C30.5864 19.4602 30.5899 19.6046 30.549 19.7394C30.5081 19.8743 30.4249 19.9924 30.3116 20.0762C30.1984 20.1601 30.0612 20.2053 29.9202 20.2051ZM35.1716 20.2051C35.0306 20.2053 34.8934 20.1601 34.7802 20.0762C34.6669 19.9924 34.5837 19.8743 34.5428 19.7394C34.5019 19.6046 34.5054 19.4602 34.553 19.3275C34.6005 19.1949 34.6894 19.081 34.8067 19.0029L35.9564 18.2364L34.8067 17.4699C34.6619 17.3733 34.5614 17.2231 34.5273 17.0524C34.4932 16.8817 34.5283 16.7044 34.6249 16.5596C34.7215 16.4148 34.8717 16.3143 35.0424 16.2802C35.2131 16.2461 35.3903 16.2813 35.5351 16.3779L37.5039 17.6904C37.5937 17.7503 37.6674 17.8315 37.7184 17.9267C37.7694 18.022 37.796 18.1283 37.796 18.2364C37.796 18.3444 37.7694 18.4507 37.7184 18.546C37.6674 18.6412 37.5937 18.7224 37.5039 18.7824L35.5351 20.0949C35.4273 20.1668 35.3012 20.2052 35.1716 20.2051ZM28.6084 28.0801C27.1607 28.0801 25.9834 26.9028 25.9834 25.4551C25.9834 24.0074 27.1607 22.8301 28.6084 22.8301C30.0561 22.8301 31.2334 24.0074 31.2334 25.4551C31.2334 26.9028 30.0561 28.0801 28.6084 28.0801ZM28.6084 24.1426C27.8846 24.1426 27.2959 24.7313 27.2959 25.4551C27.2959 26.179 27.8846 26.7676 28.6084 26.7676C29.3322 26.7676 29.9209 26.179 29.9209 25.4551C29.9209 24.7313 29.3322 24.1426 28.6084 24.1426ZM31.889 20.2051C31.7772 20.205 31.6672 20.1764 31.5696 20.1219C31.4719 20.0674 31.3898 19.9889 31.3311 19.8938C31.2723 19.7987 31.2388 19.6901 31.2338 19.5784C31.2287 19.4667 31.2523 19.3555 31.3023 19.2555L32.6148 16.6305C32.6926 16.4747 32.8291 16.3563 32.9943 16.3011C33.1594 16.246 33.3397 16.2587 33.4955 16.3365C33.6513 16.4143 33.7698 16.5508 33.8249 16.716C33.88 16.8811 33.8673 17.0614 33.7895 17.2172L32.477 19.8422C32.4224 19.9514 32.3385 20.0432 32.2346 20.1073C32.1308 20.1714 32.0111 20.2053 31.889 20.2051Z" fill="#005BAA"/>
</g>
<defs>
<clipPath id="clip0_7389_43111">
<rect width="60" height="60" fill="white" transform="translate(0.0771484 0.986328)"/>
</clipPath>
</defs>
</svg>
