<svg width="61" height="60" viewBox="0 0 61 60" fill="none" xmlns="http://www.w3.org/2000/svg">
<g clip-path="url(#clip0_903_41490)">
<path d="M57.3618 7.10645C57.7248 7.10645 58.0729 7.25065 58.3296 7.50734C58.5863 7.76403 58.7305 8.11218 58.7305 8.47519V43.5189C58.7305 43.882 58.5863 44.2301 58.3296 44.4868C58.0729 44.7435 57.7248 44.8877 57.3618 44.8877H3.84918C3.48617 44.8877 3.13805 44.7435 2.88136 44.4868C2.62466 44.2301 2.48047 43.882 2.48047 43.5189V8.47519C2.48047 8.11218 2.62466 7.76403 2.88136 7.50734C3.13805 7.25065 3.48617 7.10645 3.84918 7.10645H57.3618ZM57.3618 5.23145H3.84918C2.98889 5.23145 2.16388 5.5732 1.55556 6.18152C0.947236 6.78984 0.605469 7.6149 0.605469 8.47519V43.5189C0.61039 44.3777 0.953678 45.1999 1.56094 45.8072C2.16819 46.4144 2.9904 46.7578 3.84918 46.7627H57.3618C58.2205 46.7578 59.0427 46.4144 59.65 45.8072C60.2573 45.1999 60.6005 44.3777 60.6055 43.5189V8.47519C60.6055 7.6149 60.2637 6.78984 59.6554 6.18152C59.0471 5.5732 58.222 5.23145 57.3618 5.23145Z" fill="#0A2540"/>
<path d="M60.6055 37.7629H1.54297V39.6379H60.6055V37.7629Z" fill="#0A2540"/>
<path d="M37.3179 46.3313H35.4429V53.8313H37.3179V46.3313Z" fill="#0A2540"/>
<path d="M25.7681 46.3313H23.8931V53.8313H25.7681V46.3313Z" fill="#0A2540"/>
<path d="M44.8179 54.7688H16.3928C16.1442 54.7688 15.9058 54.67 15.73 54.4942C15.5542 54.3184 15.4553 54.0799 15.4553 53.8313C15.4553 53.5827 15.5542 53.3442 15.73 53.1684C15.9058 52.9926 16.1442 52.8938 16.3928 52.8938H44.8179C45.0665 52.8938 45.3049 52.9926 45.4807 53.1684C45.6565 53.3442 45.7554 53.5827 45.7554 53.8313C45.7554 54.0799 45.6565 54.3184 45.4807 54.4942C45.3049 54.67 45.0665 54.7688 44.8179 54.7688Z" fill="#0A2540"/>
<g clip-path="url(#clip1_903_41490)">
<path d="M41.1828 30.9205H38.5958C38.394 30.9205 38.2004 30.8404 38.0577 30.6977C37.915 30.555 37.8349 30.3614 37.8349 30.1596C37.8349 29.9578 37.915 29.7643 38.0577 29.6216C38.2004 29.4789 38.394 29.3988 38.5958 29.3988H41.061V12.9485H38.5958C38.394 12.9485 38.2004 12.8684 38.0577 12.7257C37.915 12.583 37.8349 12.3894 37.8349 12.1876C37.8349 11.9858 37.915 11.7923 38.0577 11.6496C38.2004 11.5069 38.394 11.4268 38.5958 11.4268H41.1828C41.5541 11.4268 41.9102 11.5743 42.1727 11.8368C42.4353 12.0994 42.5828 12.4555 42.5828 12.8268V29.5662C42.5709 29.9295 42.4182 30.274 42.1569 30.5267C41.8956 30.7795 41.5463 30.9207 41.1828 30.9205Z" fill="#0066B3"/>
</g>
<g clip-path="url(#clip2_903_41490)">
<path d="M22.039 30.9432H19.452C19.0807 30.9432 18.7246 30.7957 18.4621 30.5332C18.1995 30.2706 18.052 29.9145 18.052 29.5432V12.8038C18.052 12.4325 18.1995 12.0764 18.4621 11.8139C18.7246 11.5513 19.0807 11.4038 19.452 11.4038H22.039C22.2408 11.4038 22.4344 11.484 22.5771 11.6267C22.7198 11.7694 22.7999 11.9629 22.7999 12.1647C22.7999 12.3665 22.7198 12.56 22.5771 12.7027C22.4344 12.8454 22.2408 12.9256 22.039 12.9256H19.5738V29.4215H22.039C22.2408 29.4215 22.4344 29.5016 22.5771 29.6443C22.7198 29.787 22.7999 29.9805 22.7999 30.1823C22.7999 30.3841 22.7198 30.5777 22.5771 30.7204C22.4344 30.8631 22.2408 30.9432 22.039 30.9432Z" fill="#0066B3"/>
</g>
<g clip-path="url(#clip3_903_41490)">
<path d="M37.1833 21.3623C37.128 21.2607 37.0523 21.1716 36.9608 21.1008C36.8693 21.0299 36.7642 20.9787 36.652 20.9506L35.9613 20.7779C35.9355 20.3878 35.855 20.0032 35.7221 19.6355L36.2933 19.2104C36.4752 19.0693 36.5982 18.8658 36.6387 18.6392C36.6658 18.4102 36.6092 18.179 36.4793 17.9884L35.3236 16.474C35.2584 16.3792 35.1738 16.2994 35.0753 16.2398C34.9768 16.1803 34.8667 16.1424 34.7525 16.1287C34.6388 16.1105 34.5227 16.1153 34.4109 16.1427C34.2992 16.17 34.1939 16.2195 34.1015 16.2881L33.5304 16.7264C33.1637 16.4657 32.761 16.2598 32.3349 16.1154V15.4114C32.3349 15.1811 32.2444 14.9601 32.0828 14.7961C31.9213 14.6321 31.7017 14.5382 31.4715 14.5347H29.5586C29.3261 14.5347 29.1031 14.627 28.9387 14.7914C28.7743 14.9559 28.6819 15.1789 28.6819 15.4114V16.1154C28.3124 16.2448 27.96 16.4188 27.6325 16.6334L27.0746 16.1685C26.9873 16.0997 26.8871 16.049 26.7799 16.0193C26.6727 15.9897 26.5606 15.9817 26.4503 15.9958C26.3345 16.0002 26.221 16.0298 26.1177 16.0826C26.0145 16.1354 25.924 16.21 25.8526 16.3014L24.6571 17.7891C24.5845 17.8799 24.5306 17.9841 24.4987 18.0959C24.4668 18.2076 24.4574 18.3246 24.4711 18.44C24.4829 18.5537 24.5172 18.6639 24.5719 18.7642C24.6266 18.8645 24.7007 18.953 24.7899 19.0245L25.3478 19.4761C25.2114 19.8404 25.1178 20.2193 25.0688 20.6052L24.3781 20.7513C24.1553 20.8052 23.9618 20.943 23.8381 21.1361C23.7143 21.3291 23.6699 21.5624 23.7139 21.7874L24.1257 23.6604C24.1492 23.7692 24.1943 23.8723 24.2581 23.9635C24.322 24.0548 24.4034 24.1324 24.4977 24.1917C24.5943 24.2559 24.7032 24.2997 24.8174 24.3202C24.9316 24.3408 25.0488 24.3377 25.1618 24.3113L25.8526 24.1652C26.0515 24.5041 26.2925 24.8165 26.5699 25.095L26.2643 25.7193C26.2159 25.821 26.1908 25.9322 26.1908 26.0448C26.1908 26.1574 26.2159 26.2685 26.2643 26.3702C26.2939 26.4839 26.3487 26.5895 26.4245 26.6791C26.5004 26.7688 26.5955 26.8403 26.7027 26.8883L28.403 27.7384C28.5069 27.787 28.6203 27.8122 28.7351 27.8122C28.8498 27.8122 28.9632 27.787 29.0672 27.7384C29.1773 27.7047 29.2791 27.6482 29.366 27.5727C29.4529 27.4972 29.5231 27.4043 29.5719 27.3L29.8907 26.6624C30.1163 26.6785 30.3427 26.6785 30.5682 26.6624C30.7318 26.6756 30.8961 26.6756 31.0597 26.6624L31.3519 27.3133C31.3998 27.4212 31.4693 27.5181 31.5561 27.5981C31.6429 27.6781 31.7452 27.7394 31.8567 27.7782C31.9536 27.792 32.052 27.792 32.1489 27.7782C32.2741 27.7759 32.397 27.744 32.5076 27.6853L34.2477 26.8883C34.4515 26.7892 34.6121 26.6192 34.6993 26.4101C34.7864 26.1972 34.7864 25.9587 34.6993 25.7459L34.3274 25.2677C34.6037 24.9995 34.8488 24.701 35.058 24.3777L35.7487 24.5504C35.8593 24.5859 35.9764 24.596 36.0914 24.5799C36.2064 24.5638 36.3163 24.5219 36.4129 24.4574C36.512 24.3974 36.5982 24.3184 36.6666 24.225C36.735 24.1315 36.7842 24.0254 36.8114 23.9128L37.2896 22.0664C37.3197 21.9479 37.3259 21.8245 37.3076 21.7036C37.2893 21.5827 37.2471 21.4667 37.1833 21.3623ZM35.855 23.4877L34.5931 23.1556L34.5266 23.2752C34.429 23.4826 34.3087 23.6786 34.168 23.8596C34.0386 24.0695 33.8823 24.2615 33.7031 24.4308C33.5539 24.5886 33.3892 24.731 33.2116 24.8559L33.1053 24.9356L33.6367 26.1842L32.1489 26.8218L31.6043 25.6263H31.4715L30.794 25.7193H30.5416H30.0634C29.8467 25.7164 29.6317 25.6806 29.4258 25.613H29.293L28.6686 26.7953L27.2207 26.0514L27.8052 24.8825L27.699 24.7895C27.5266 24.6485 27.3665 24.4929 27.2207 24.3246C27.0532 24.1565 26.9061 23.9692 26.7824 23.7666C26.6595 23.5814 26.5528 23.3858 26.4636 23.1822V23.0626L25.1352 23.3017L24.8297 21.721L26.1581 21.442V21.2826C26.1362 21.0618 26.1362 20.8393 26.1581 20.6185C26.1905 20.3783 26.2484 20.1423 26.3308 19.9145C26.3895 19.697 26.4743 19.4873 26.5832 19.2901V19.1706L25.5603 18.2939L26.6097 17.0452L27.6193 17.8688L27.7255 17.7891C27.8849 17.6696 28.0842 17.5367 28.2834 17.4172C28.4898 17.282 28.7131 17.1748 28.9476 17.0984C29.1543 17.0146 29.3675 16.9479 29.5852 16.8991H29.718V15.5708H31.3386V16.8991H31.4715C31.6928 16.9559 31.9102 17.0269 32.1223 17.1117C32.3937 17.1986 32.6494 17.3287 32.8795 17.4969C33.0776 17.6118 33.2644 17.7452 33.4374 17.8954L33.5304 17.9751L34.6196 17.1914L35.5627 18.5197L34.5266 19.3167V19.4495C34.6335 19.6462 34.7139 19.8561 34.7657 20.0739C34.8378 20.3024 34.8824 20.5388 34.8986 20.7779C34.9112 20.9503 34.9112 21.1235 34.8986 21.2959C34.907 21.3308 34.907 21.3673 34.8986 21.4022V21.5616L36.2269 21.9335L35.855 23.4877Z" fill="#0066B3"/>
<path d="M30.515 18.6257C29.9895 18.6257 29.4759 18.7815 29.039 19.0735C28.6021 19.3654 28.2616 19.7803 28.0605 20.2657C27.8594 20.7512 27.8068 21.2854 27.9093 21.8007C28.0118 22.3161 28.2649 22.7894 28.6364 23.161C29.008 23.5325 29.4813 23.7855 29.9967 23.8881C30.512 23.9906 31.0462 23.938 31.5316 23.7369C32.0171 23.5358 32.432 23.1953 32.7239 22.7584C33.0158 22.3215 33.1717 21.8079 33.1717 21.2824C33.1717 20.5778 32.8918 19.9021 32.3935 19.4039C31.8953 18.9056 31.2196 18.6257 30.515 18.6257ZM30.515 23.1155C30.1519 23.1182 29.7961 23.0129 29.4929 22.8131C29.1897 22.6133 28.9527 22.3279 28.8119 21.9932C28.6712 21.6585 28.633 21.2895 28.7022 20.933C28.7714 20.5765 28.945 20.2487 29.2008 19.991C29.4566 19.7333 29.7832 19.5574 30.1392 19.4856C30.4951 19.4137 30.8644 19.4493 31.2001 19.5876C31.5358 19.726 31.8229 19.9609 32.0249 20.2626C32.2269 20.5644 32.3348 20.9193 32.3348 21.2824C32.3348 21.7663 32.1435 22.2306 31.8026 22.5739C31.4617 22.9173 30.9988 23.112 30.515 23.1155Z" fill="#0066B3"/>
</g>
</g>
<defs>
<clipPath id="clip0_903_41490">
<rect width="60" height="60" fill="white" transform="translate(0.605469)"/>
</clipPath>
<clipPath id="clip1_903_41490">
<path d="M37.8349 11.4268H41.3654C42.0377 11.4268 42.5828 11.9718 42.5828 12.6442V29.7031C42.5828 30.3755 42.0377 30.9205 41.3654 30.9205H37.8349V11.4268Z" fill="white"/>
</clipPath>
<clipPath id="clip2_903_41490">
<path d="M18.052 12.6212C18.052 11.9489 18.5971 11.4038 19.2694 11.4038H22.7999V30.9432H19.2694C18.5971 30.9432 18.052 30.3982 18.052 29.7258V12.6212Z" fill="white"/>
</clipPath>
<clipPath id="clip3_903_41490">
<rect width="13.6205" height="13.2776" fill="white" transform="translate(23.6973 14.5347)"/>
</clipPath>
</defs>
</svg>
