<svg width="61" height="61" viewBox="0 0 61 61" fill="none" xmlns="http://www.w3.org/2000/svg">
<g clip-path="url(#clip0_7389_20799)">
<path d="M57.2948 8.09277C57.6578 8.09277 58.006 8.23698 58.2627 8.49367C58.5194 8.75036 58.6636 9.09851 58.6636 9.46152V44.5053C58.6636 44.8683 58.5194 45.2164 58.2627 45.4731C58.006 45.7298 57.6578 45.874 57.2948 45.874H3.78234C3.41933 45.874 3.07115 45.7298 2.81446 45.4731C2.55777 45.2164 2.41357 44.8683 2.41357 44.5053V9.46152C2.41357 9.09851 2.55777 8.75036 2.81446 8.49367C3.07115 8.23698 3.41933 8.09277 3.78234 8.09277H57.2948ZM57.2948 6.21777H3.78234C2.92205 6.21777 2.09698 6.55952 1.48866 7.16785C0.880342 7.77617 0.538574 8.60123 0.538574 9.46152V44.5053C0.543496 45.3641 0.886841 46.1863 1.4941 46.7935C2.10136 47.4008 2.92357 47.7441 3.78234 47.749H57.2948C58.1536 47.7441 58.9758 47.4008 59.583 46.7935C60.1903 46.1863 60.5337 45.3641 60.5386 44.5053V9.46152C60.5386 8.60123 60.1968 7.77617 59.5885 7.16785C58.9802 6.55952 58.1551 6.21777 57.2948 6.21777Z" fill="#012842"/>
<path d="M60.5386 38.7493H1.47607V40.6243H60.5386V38.7493Z" fill="#012842"/>
<path d="M37.251 47.3176H35.376V54.8176H37.251V47.3176Z" fill="#012842"/>
<path d="M25.7012 47.3176H23.8262V54.8176H25.7012V47.3176Z" fill="#012842"/>
<path d="M44.7511 55.7551H16.3262C16.0775 55.7551 15.839 55.6564 15.6632 55.4805C15.4874 55.3047 15.3887 55.0663 15.3887 54.8176C15.3887 54.569 15.4874 54.3305 15.6632 54.1547C15.839 53.9789 16.0775 53.8801 16.3262 53.8801H44.7511C44.9998 53.8801 45.2383 53.9789 45.4141 54.1547C45.5899 54.3305 45.6886 54.569 45.6886 54.8176C45.6886 55.0663 45.5899 55.3047 45.4141 55.4805C45.2383 55.6564 44.9998 55.7551 44.7511 55.7551Z" fill="#012842"/>
<g clip-path="url(#clip1_7389_20799)">
<path d="M40.4886 22.4363C40.2721 22.437 40.0612 22.5047 39.8847 22.63C39.7083 22.7553 39.5749 22.9322 39.503 23.1363H37.3386V21.7363H39.4386C39.5314 21.7363 39.6204 21.6995 39.6861 21.6338C39.7517 21.5682 39.7886 21.4792 39.7886 21.3863C39.7886 21.2935 39.7517 21.2045 39.6861 21.1388C39.6204 21.0732 39.5314 21.0363 39.4386 21.0363H37.3386V19.6363H39.7886C40.1746 19.6363 40.4886 19.3224 40.4886 18.9363V18.1719C40.6927 18.1 40.8696 17.9666 40.9949 17.7902C41.1202 17.6137 41.1879 17.4028 41.1886 17.1863C41.1886 16.6074 40.7175 16.1363 40.1386 16.1363C39.5597 16.1363 39.0886 16.6074 39.0886 17.1863C39.0886 17.642 39.3822 18.027 39.7886 18.1719V18.9363H37.3386V18.5863C37.3386 17.8142 36.7107 17.1863 35.9386 17.1863H35.5886V14.7363H36.353C36.4249 14.9405 36.5583 15.1173 36.7347 15.2427C36.9112 15.368 37.1221 15.4356 37.3386 15.4363C37.9175 15.4363 38.3886 14.9652 38.3886 14.3863C38.3886 13.8074 37.9175 13.3363 37.3386 13.3363C37.1221 13.337 36.9112 13.4047 36.7347 13.53C36.5583 13.6553 36.4249 13.8322 36.353 14.0363H35.5886C35.2025 14.0363 34.8886 14.3503 34.8886 14.7363V17.1863H33.4886V15.0863C33.4886 14.9935 33.4517 14.9045 33.3861 14.8388C33.3204 14.7732 33.2314 14.7363 33.1386 14.7363C33.0457 14.7363 32.9567 14.7732 32.8911 14.8388C32.8254 14.9045 32.7886 14.9935 32.7886 15.0863V17.1863H31.3886V15.0219C31.5927 14.95 31.7696 14.8166 31.8949 14.6402C32.0202 14.4637 32.0879 14.2528 32.0886 14.0363C32.0886 13.4574 31.6175 12.9863 31.0386 12.9863C30.4597 12.9863 29.9886 13.4574 29.9886 14.0363C29.9886 14.492 30.2822 14.877 30.6886 15.0219V17.1863H29.2886V15.0863C29.2886 14.9935 29.2517 14.9045 29.1861 14.8388C29.1204 14.7732 29.0314 14.7363 28.9386 14.7363C28.8457 14.7363 28.7567 14.7732 28.6911 14.8388C28.6254 14.9045 28.5886 14.9935 28.5886 15.0863V17.1863H27.1886V14.7363C27.1886 14.3503 26.8746 14.0363 26.4886 14.0363H25.7242C25.6522 13.8322 25.5189 13.6553 25.3424 13.53C25.1659 13.4047 24.955 13.337 24.7386 13.3363C24.1597 13.3363 23.6886 13.8074 23.6886 14.3863C23.6886 14.9652 24.1597 15.4363 24.7386 15.4363C24.955 15.4356 25.1659 15.368 25.3424 15.2427C25.5189 15.1173 25.6522 14.9405 25.7242 14.7363H26.4886V17.1863H26.1386C25.3665 17.1863 24.7386 17.8142 24.7386 18.5863V18.9363H22.2886V18.1719C22.4927 18.1 22.6696 17.9666 22.7949 17.7902C22.9202 17.6137 22.9879 17.4028 22.9886 17.1863C22.9886 16.6074 22.5175 16.1363 21.9386 16.1363C21.3597 16.1363 20.8886 16.6074 20.8886 17.1863C20.8886 17.642 21.1822 18.027 21.5886 18.1719V18.9363C21.5886 19.3224 21.9025 19.6363 22.2886 19.6363H24.7386V21.0363H22.6386C22.5457 21.0363 22.4567 21.0732 22.3911 21.1388C22.3254 21.2045 22.2886 21.2935 22.2886 21.3863C22.2886 21.4792 22.3254 21.5682 22.3911 21.6338C22.4567 21.6995 22.5457 21.7363 22.6386 21.7363H24.7386V23.1363H22.5742C22.5022 22.9322 22.3689 22.7553 22.1924 22.63C22.0159 22.5047 21.805 22.437 21.5886 22.4363C21.0097 22.4363 20.5386 22.9074 20.5386 23.4863C20.5386 24.0652 21.0097 24.5363 21.5886 24.5363C21.805 24.5356 22.0159 24.468 22.1924 24.3427C22.3689 24.2173 22.5022 24.0405 22.5742 23.8363H24.7386V25.2363H22.6386C22.5457 25.2363 22.4567 25.2732 22.3911 25.3388C22.3254 25.4045 22.2886 25.4935 22.2886 25.5863C22.2886 25.6792 22.3254 25.7682 22.3911 25.8338C22.4567 25.8995 22.5457 25.9363 22.6386 25.9363H24.7386V27.3363H22.2886C21.9025 27.3363 21.5886 27.6503 21.5886 28.0363V28.8007C21.3844 28.8727 21.2076 29.006 21.0822 29.1825C20.9569 29.359 20.8893 29.5699 20.8886 29.7863C20.8886 30.3652 21.3597 30.8363 21.9386 30.8363C22.5175 30.8363 22.9886 30.3652 22.9886 29.7863C22.9879 29.5699 22.9202 29.359 22.7949 29.1825C22.6696 29.006 22.4927 28.8727 22.2886 28.8007V28.0363H24.7386V28.3863C24.7386 29.1584 25.3665 29.7863 26.1386 29.7863H26.4886V32.2363H25.7242C25.6522 32.0322 25.5189 31.8553 25.3424 31.73C25.1659 31.6047 24.955 31.537 24.7386 31.5363C24.1597 31.5363 23.6886 32.0074 23.6886 32.5863C23.6886 33.1652 24.1597 33.6363 24.7386 33.6363C24.955 33.6356 25.1659 33.568 25.3424 33.4427C25.5189 33.3173 25.6522 33.1405 25.7242 32.9363H26.4886C26.8746 32.9363 27.1886 32.6224 27.1886 32.2363V29.7863H28.5886V31.8863C28.5886 31.9792 28.6254 32.0682 28.6911 32.1338C28.7567 32.1995 28.8457 32.2363 28.9386 32.2363C29.0314 32.2363 29.1204 32.1995 29.1861 32.1338C29.2517 32.0682 29.2886 31.9792 29.2886 31.8863V29.7863H30.6886V31.9507C30.4844 32.0227 30.3076 32.156 30.1823 32.3325C30.0569 32.509 29.9893 32.7199 29.9886 32.9363C29.9886 33.5152 30.4597 33.9863 31.0386 33.9863C31.6175 33.9863 32.0886 33.5152 32.0886 32.9363C32.0879 32.7199 32.0202 32.509 31.8949 32.3325C31.7696 32.156 31.5927 32.0227 31.3886 31.9507V29.7863H32.7886V31.8863C32.7886 31.9792 32.8254 32.0682 32.8911 32.1338C32.9567 32.1995 33.0457 32.2363 33.1386 32.2363C33.2314 32.2363 33.3204 32.1995 33.3861 32.1338C33.4517 32.0682 33.4886 31.9792 33.4886 31.8863V29.7863H34.8886V32.2363C34.8886 32.6224 35.2025 32.9363 35.5886 32.9363H36.353C36.4249 33.1405 36.5583 33.3173 36.7347 33.4427C36.9112 33.568 37.1221 33.6356 37.3386 33.6363C37.9175 33.6363 38.3886 33.1652 38.3886 32.5863C38.3886 32.0074 37.9175 31.5363 37.3386 31.5363C37.1221 31.537 36.9112 31.6047 36.7347 31.73C36.5583 31.8553 36.4249 32.0322 36.353 32.2363H35.5886V29.7863H35.9386C36.7107 29.7863 37.3386 29.1584 37.3386 28.3863V28.0363H39.7886V28.8007C39.5844 28.8727 39.4076 29.006 39.2822 29.1825C39.1569 29.359 39.0893 29.5699 39.0886 29.7863C39.0886 30.3652 39.5597 30.8363 40.1386 30.8363C40.7175 30.8363 41.1886 30.3652 41.1886 29.7863C41.1879 29.5699 41.1202 29.359 40.9949 29.1825C40.8696 29.006 40.6927 28.8727 40.4886 28.8007V28.0363C40.4886 27.6503 40.1746 27.3363 39.7886 27.3363H37.3386V25.9363H39.4386C39.5314 25.9363 39.6204 25.8995 39.6861 25.8338C39.7517 25.7682 39.7886 25.6792 39.7886 25.5863C39.7886 25.4935 39.7517 25.4045 39.6861 25.3388C39.6204 25.2732 39.5314 25.2363 39.4386 25.2363H37.3386V23.8363H39.503C39.5749 24.0405 39.7083 24.2173 39.8847 24.3427C40.0612 24.468 40.2721 24.5356 40.4886 24.5363C41.0675 24.5363 41.5386 24.0652 41.5386 23.4863C41.5386 22.9074 41.0675 22.4363 40.4886 22.4363ZM40.1386 16.8363C40.2314 16.8363 40.3204 16.8732 40.3861 16.9388C40.4517 17.0045 40.4886 17.0935 40.4886 17.1863C40.4886 17.2792 40.4517 17.3682 40.3861 17.4338C40.3204 17.4995 40.2314 17.5363 40.1386 17.5363C40.0457 17.5363 39.9567 17.4995 39.8911 17.4338C39.8254 17.3682 39.7886 17.2792 39.7886 17.1863C39.7886 17.0935 39.8254 17.0045 39.8911 16.9388C39.9567 16.8732 40.0457 16.8363 40.1386 16.8363ZM37.3386 14.0363C37.4314 14.0363 37.5204 14.0732 37.5861 14.1388C37.6517 14.2045 37.6886 14.2935 37.6886 14.3863C37.6886 14.4792 37.6517 14.5682 37.5861 14.6338C37.5204 14.6995 37.4314 14.7363 37.3386 14.7363C37.2457 14.7363 37.1567 14.6995 37.0911 14.6338C37.0254 14.5682 36.9886 14.4792 36.9886 14.3863C36.9886 14.2935 37.0254 14.2045 37.0911 14.1388C37.1567 14.0732 37.2457 14.0363 37.3386 14.0363ZM31.0386 13.6863C31.1314 13.6863 31.2204 13.7232 31.2861 13.7888C31.3517 13.8545 31.3886 13.9435 31.3886 14.0363C31.3886 14.1292 31.3517 14.2182 31.2861 14.2838C31.2204 14.3495 31.1314 14.3863 31.0386 14.3863C30.9457 14.3863 30.8567 14.3495 30.7911 14.2838C30.7254 14.2182 30.6886 14.1292 30.6886 14.0363C30.6886 13.9435 30.7254 13.8545 30.7911 13.7888C30.8567 13.7232 30.9457 13.6863 31.0386 13.6863ZM24.7386 14.7363C24.6457 14.7363 24.5567 14.6995 24.4911 14.6338C24.4254 14.5682 24.3886 14.4792 24.3886 14.3863C24.3886 14.2935 24.4254 14.2045 24.4911 14.1388C24.5567 14.0732 24.6457 14.0363 24.7386 14.0363C24.8314 14.0363 24.9204 14.0732 24.9861 14.1388C25.0517 14.2045 25.0886 14.2935 25.0886 14.3863C25.0886 14.4792 25.0517 14.5682 24.9861 14.6338C24.9204 14.6995 24.8314 14.7363 24.7386 14.7363ZM21.9386 16.8363C22.0314 16.8363 22.1204 16.8732 22.1861 16.9388C22.2517 17.0045 22.2886 17.0935 22.2886 17.1863C22.2886 17.2792 22.2517 17.3682 22.1861 17.4338C22.1204 17.4995 22.0314 17.5363 21.9386 17.5363C21.8457 17.5363 21.7567 17.4995 21.6911 17.4338C21.6254 17.3682 21.5886 17.2792 21.5886 17.1863C21.5886 17.0935 21.6254 17.0045 21.6911 16.9388C21.7567 16.8732 21.8457 16.8363 21.9386 16.8363ZM21.5886 23.8363C21.4957 23.8363 21.4067 23.7995 21.3411 23.7338C21.2754 23.6682 21.2386 23.5792 21.2386 23.4863C21.2386 23.3935 21.2754 23.3045 21.3411 23.2388C21.4067 23.1732 21.4957 23.1363 21.5886 23.1363C21.6814 23.1363 21.7704 23.1732 21.8361 23.2388C21.9017 23.3045 21.9386 23.3935 21.9386 23.4863C21.9386 23.5792 21.9017 23.6682 21.8361 23.7338C21.7704 23.7995 21.6814 23.8363 21.5886 23.8363ZM21.9386 30.1363C21.8457 30.1363 21.7567 30.0995 21.6911 30.0338C21.6254 29.9682 21.5886 29.8792 21.5886 29.7863C21.5886 29.6935 21.6254 29.6045 21.6911 29.5388C21.7567 29.4732 21.8457 29.4363 21.9386 29.4363C22.0314 29.4363 22.1204 29.4732 22.1861 29.5388C22.2517 29.6045 22.2886 29.6935 22.2886 29.7863C22.2886 29.8792 22.2517 29.9682 22.1861 30.0338C22.1204 30.0995 22.0314 30.1363 21.9386 30.1363ZM24.7386 32.9363C24.6457 32.9363 24.5567 32.8995 24.4911 32.8338C24.4254 32.7682 24.3886 32.6792 24.3886 32.5863C24.3886 32.4935 24.4254 32.4045 24.4911 32.3388C24.5567 32.2732 24.6457 32.2363 24.7386 32.2363C24.8314 32.2363 24.9204 32.2732 24.9861 32.3388C25.0517 32.4045 25.0886 32.4935 25.0886 32.5863C25.0886 32.6792 25.0517 32.7682 24.9861 32.8338C24.9204 32.8995 24.8314 32.9363 24.7386 32.9363ZM31.0386 33.2863C30.9457 33.2863 30.8567 33.2495 30.7911 33.1838C30.7254 33.1182 30.6886 33.0292 30.6886 32.9363C30.6886 32.8435 30.7254 32.7545 30.7911 32.6888C30.8567 32.6232 30.9457 32.5863 31.0386 32.5863C31.1314 32.5863 31.2204 32.6232 31.2861 32.6888C31.3517 32.7545 31.3886 32.8435 31.3886 32.9363C31.3886 33.0292 31.3517 33.1182 31.2861 33.1838C31.2204 33.2495 31.1314 33.2863 31.0386 33.2863ZM37.3386 32.2363C37.4314 32.2363 37.5204 32.2732 37.5861 32.3388C37.6517 32.4045 37.6886 32.4935 37.6886 32.5863C37.6886 32.6792 37.6517 32.7682 37.5861 32.8338C37.5204 32.8995 37.4314 32.9363 37.3386 32.9363C37.2457 32.9363 37.1567 32.8995 37.0911 32.8338C37.0254 32.7682 36.9886 32.6792 36.9886 32.5863C36.9886 32.4935 37.0254 32.4045 37.0911 32.3388C37.1567 32.2732 37.2457 32.2363 37.3386 32.2363ZM40.1386 30.1363C40.0457 30.1363 39.9567 30.0995 39.8911 30.0338C39.8254 29.9682 39.7886 29.8792 39.7886 29.7863C39.7886 29.6935 39.8254 29.6045 39.8911 29.5388C39.9567 29.4732 40.0457 29.4363 40.1386 29.4363C40.2314 29.4363 40.3204 29.4732 40.3861 29.5388C40.4517 29.6045 40.4886 29.6935 40.4886 29.7863C40.4886 29.8792 40.4517 29.9682 40.3861 30.0338C40.3204 30.0995 40.2314 30.1363 40.1386 30.1363ZM36.6386 28.3863C36.6386 28.7724 36.3246 29.0863 35.9386 29.0863H26.1386C25.7525 29.0863 25.4386 28.7724 25.4386 28.3863V18.5863C25.4386 18.2003 25.7525 17.8863 26.1386 17.8863H35.9386C36.3246 17.8863 36.6386 18.2003 36.6386 18.5863V28.3863ZM40.4886 23.8363C40.3957 23.8363 40.3067 23.7995 40.2411 23.7338C40.1754 23.6682 40.1386 23.5792 40.1386 23.4863C40.1386 23.3935 40.1754 23.3045 40.2411 23.2388C40.3067 23.1732 40.3957 23.1363 40.4886 23.1363C40.5814 23.1363 40.6704 23.1732 40.7361 23.2388C40.8017 23.3045 40.8386 23.3935 40.8386 23.4863C40.8386 23.5792 40.8017 23.6682 40.7361 23.7338C40.6704 23.7995 40.5814 23.8363 40.4886 23.8363Z" fill="#005BAA"/>
<path d="M29.4675 20.7599C29.4119 20.5107 29.1945 20.3364 28.9387 20.3364C28.6828 20.3364 28.4655 20.5107 28.4095 20.7606L27.1967 26.2105C27.1767 26.3011 27.1935 26.396 27.2433 26.4743C27.2932 26.5526 27.3721 26.6079 27.4627 26.628C27.5533 26.6477 27.648 26.6307 27.7262 26.5809C27.8044 26.5311 27.8598 26.4524 27.8803 26.362L28.2866 24.5361H29.5904L29.9967 26.362C30.0168 26.4527 30.0721 26.5317 30.1505 26.5816C30.2288 26.6315 30.3238 26.6483 30.4144 26.6282C30.5051 26.6081 30.5841 26.5528 30.634 26.4745C30.684 26.3961 30.7007 26.3012 30.6806 26.2105L29.4675 20.7599ZM28.4427 23.8364L28.939 21.6062L29.4353 23.8364H28.4427ZM33.8387 21.0364C33.9315 21.0364 34.0205 20.9996 34.0862 20.9339C34.1518 20.8683 34.1887 20.7793 34.1887 20.6864C34.1887 20.5936 34.1518 20.5046 34.0862 20.4389C34.0205 20.3733 33.9315 20.3364 33.8387 20.3364H31.7387C31.6458 20.3364 31.5568 20.3733 31.4912 20.4389C31.4255 20.5046 31.3887 20.5936 31.3887 20.6864C31.3887 20.7793 31.4255 20.8683 31.4912 20.9339C31.5568 20.9996 31.6458 21.0364 31.7387 21.0364H32.4387V25.9364H31.7387C31.6458 25.9364 31.5568 25.9733 31.4912 26.0389C31.4255 26.1046 31.3887 26.1936 31.3887 26.2864C31.3887 26.3793 31.4255 26.4683 31.4912 26.5339C31.5568 26.5996 31.6458 26.6364 31.7387 26.6364H33.8387C33.9315 26.6364 34.0205 26.5996 34.0862 26.5339C34.1518 26.4683 34.1887 26.3793 34.1887 26.2864C34.1887 26.1936 34.1518 26.1046 34.0862 26.0389C34.0205 25.9733 33.9315 25.9364 33.8387 25.9364H33.1387V21.0364H33.8387Z" fill="#005BAA"/>
</g>
</g>
<defs>
<clipPath id="clip0_7389_20799">
<rect width="60" height="60" fill="white" transform="translate(0.538574 0.986328)"/>
</clipPath>
<clipPath id="clip1_7389_20799">
<rect width="21" height="21" fill="white" transform="translate(20.5386 12.9863)"/>
</clipPath>
</defs>
</svg>
