<svg width="60" height="61" viewBox="0 0 60 61" fill="none" xmlns="http://www.w3.org/2000/svg">
<path d="M56.7562 8.09277C57.1192 8.09277 57.4674 8.23698 57.7241 8.49367C57.9808 8.75036 58.125 9.09851 58.125 9.46152V44.5053C58.125 44.8683 57.9808 45.2164 57.7241 45.4731C57.4674 45.7298 57.1192 45.874 56.7562 45.874H3.24377C2.88076 45.874 2.53258 45.7298 2.27589 45.4731C2.0192 45.2164 1.875 44.8683 1.875 44.5053V9.46152C1.875 9.09851 2.0192 8.75036 2.27589 8.49367C2.53258 8.23698 2.88076 8.09277 3.24377 8.09277H56.7562ZM56.7562 6.21777H3.24377C2.38347 6.21777 1.55841 6.55952 0.950089 7.16785C0.341767 7.77617 0 8.60123 0 9.46152V44.5053C0.00492148 45.3641 0.348267 46.1863 0.955524 46.7935C1.56278 47.4008 2.38499 47.7441 3.24377 47.749H56.7562C57.615 47.7441 58.4372 47.4008 59.0445 46.7935C59.6517 46.1863 59.9951 45.3641 60 44.5053V9.46152C60 8.60123 59.6582 7.77617 59.0499 7.16785C58.4416 6.55952 57.6165 6.21777 56.7562 6.21777Z" fill="#012842"/>
<path d="M60 38.7493H0.9375V40.6243H60V38.7493Z" fill="#012842"/>
<path d="M36.7124 47.3176H34.8374V54.8176H36.7124V47.3176Z" fill="#012842"/>
<path d="M25.1626 47.3176H23.2876V54.8176H25.1626V47.3176Z" fill="#012842"/>
<path d="M44.2125 55.7551H15.7876C15.539 55.7551 15.3005 55.6564 15.1246 55.4805C14.9488 55.3047 14.8501 55.0663 14.8501 54.8176C14.8501 54.569 14.9488 54.3305 15.1246 54.1547C15.3005 53.9789 15.539 53.8801 15.7876 53.8801H44.2125C44.4612 53.8801 44.6997 53.9789 44.8755 54.1547C45.0513 54.3305 45.15 54.569 45.15 54.8176C45.15 55.0663 45.0513 55.3047 44.8755 55.4805C44.6997 55.6564 44.4612 55.7551 44.2125 55.7551Z" fill="#012842"/>
<path d="M27.0559 27.4078H33.2717C34.9857 27.4078 36.3796 26.0139 36.3796 24.2999C36.3796 22.7475 35.2328 21.4694 33.7441 21.2402C33.1551 19.844 31.7721 18.8611 30.1638 18.8611C28.5554 18.8611 27.1724 19.844 26.5835 21.2402C25.0948 21.4694 23.948 22.7475 23.948 24.2999C23.948 26.0139 25.3419 27.4078 27.0559 27.4078ZM26.3178 22.9402C26.4063 23.2735 26.6954 23.5229 27.0559 23.5229C27.262 23.5229 27.4596 23.4411 27.6053 23.2954C27.751 23.1496 27.8329 22.952 27.8329 22.7459C27.8329 21.4608 28.8787 20.415 30.1638 20.415C31.4489 20.415 32.4947 21.4608 32.4947 22.7459C32.4947 22.952 32.5766 23.1496 32.7223 23.2954C32.868 23.4411 33.0656 23.5229 33.2717 23.5229C33.442 23.5217 33.607 23.4637 33.7407 23.3581C33.8743 23.2526 33.969 23.1056 34.0098 22.9402C34.4923 23.2044 34.8256 23.7125 34.8256 24.2999C34.8256 25.1569 34.1287 25.8538 33.2717 25.8538H27.0559C26.1989 25.8538 25.5019 25.1569 25.5019 24.2999C25.5019 23.7117 25.8345 23.2044 26.3178 22.9402Z" fill="#005BAA"/>
<path d="M42.9146 23.2116C43.1842 22.7493 43.6799 22.4347 44.2525 22.4347C45.1095 22.4347 45.8065 23.1316 45.8065 23.9886C45.8065 24.8456 45.1095 25.5426 44.2525 25.5426C43.6799 25.5426 43.1842 25.2279 42.9146 24.7656H38.0367C37.8307 24.7656 37.633 24.6837 37.4873 24.538C37.3416 24.3923 37.2598 24.1947 37.2598 23.9886C37.2598 23.7826 37.3416 23.5849 37.4873 23.4392C37.633 23.2935 37.8307 23.2116 38.0367 23.2116H42.9146Z" fill="#005BAA"/>
<path d="M40.3677 22.4347H37.2598C37.0537 22.4347 36.8561 22.3528 36.7104 22.2071C36.5646 22.0614 36.4828 21.8638 36.4828 21.6577C36.4828 21.4516 36.5646 21.254 36.7104 21.1083C36.8561 20.9626 37.0537 20.8807 37.2598 20.8807H40.046L41.3723 19.5544C41.518 19.4087 41.7156 19.3268 41.9216 19.3268H42.9146C43.1842 18.8645 43.6799 18.5498 44.2525 18.5498C45.1095 18.5498 45.8065 19.2467 45.8065 20.1038C45.8065 20.9608 45.1095 21.6577 44.2525 21.6577C43.6799 21.6577 43.1842 21.343 42.9146 20.8807H42.2433L40.917 22.207C40.7713 22.3527 40.5737 22.4346 40.3677 22.4347Z" fill="#005BAA"/>
<path d="M42.9146 27.0965C43.1842 26.6342 43.6799 26.3195 44.2525 26.3195C45.1095 26.3195 45.8065 27.0165 45.8065 27.8735C45.8065 28.7305 45.1095 29.4274 44.2525 29.4274C43.6799 29.4274 43.1842 29.1128 42.9146 28.6505H41.9216C41.7156 28.6504 41.518 28.5685 41.3723 28.4228L40.046 27.0965H37.2598C37.0537 27.0965 36.8561 27.0147 36.7104 26.8689C36.5646 26.7232 36.4828 26.5256 36.4828 26.3195C36.4828 26.1135 36.5646 25.9158 36.7104 25.7701C36.8561 25.6244 37.0537 25.5426 37.2598 25.5426H40.3677C40.5737 25.5426 40.7713 25.6245 40.917 25.7702L42.2433 27.0965H42.9146Z" fill="#005BAA"/>
<path d="M17.0856 24.7656C16.816 25.2279 16.3203 25.5426 15.7477 25.5426C14.8907 25.5426 14.1937 24.8456 14.1937 23.9886C14.1937 23.1316 14.8907 22.4347 15.7477 22.4347C16.3203 22.4347 16.816 22.7493 17.0856 23.2116H21.9635C22.1695 23.2116 22.3671 23.2935 22.5129 23.4392C22.6586 23.5849 22.7404 23.7826 22.7404 23.9886C22.7404 24.1947 22.6586 24.3923 22.5129 24.538C22.3671 24.6837 22.1695 24.7656 21.9635 24.7656H17.0856Z" fill="#005BAA"/>
<path d="M17.0856 20.8807C16.816 21.343 16.3203 21.6577 15.7477 21.6577C14.8907 21.6577 14.1937 20.9608 14.1937 20.1038C14.1937 19.2467 14.8907 18.5498 15.7477 18.5498C16.3203 18.5498 16.816 18.8645 17.0856 19.3268H18.8556C19.0616 19.3268 19.2592 19.4087 19.4049 19.5544L20.7312 20.8807H22.7404C22.9465 20.8807 23.1441 20.9626 23.2898 21.1083C23.4355 21.254 23.5174 21.4516 23.5174 21.6577C23.5174 21.8638 23.4355 22.0614 23.2898 22.2071C23.1441 22.3528 22.9465 22.4347 22.7404 22.4347H20.4095C20.2035 22.4346 20.0059 22.3527 19.8602 22.207L18.5339 20.8807H17.0856Z" fill="#005BAA"/>
<path d="M20.4095 25.5426H22.7404C22.9465 25.5426 23.1441 25.6244 23.2898 25.7701C23.4355 25.9158 23.5174 26.1135 23.5174 26.3195C23.5174 26.5256 23.4355 26.7232 23.2898 26.8689C23.1441 27.0147 22.9465 27.0965 22.7404 27.0965H20.7312L19.4049 28.4228C19.2592 28.5685 19.0616 28.6504 18.8556 28.6505H17.0856C16.816 29.1128 16.3203 29.4274 15.7477 29.4274C14.8907 29.4274 14.1937 28.7305 14.1937 27.8735C14.1937 27.0165 14.8907 26.3195 15.7477 26.3195C16.3203 26.3195 16.816 26.6342 17.0856 27.0965H18.5339L19.8602 25.7702C20.0059 25.6245 20.2035 25.5426 20.4095 25.5426Z" fill="#005BAA"/>
</svg>
