<svg width="61" height="61" viewBox="0 0 61 61" fill="none" xmlns="http://www.w3.org/2000/svg">
<g clip-path="url(#clip0_7389_43167)">
<path d="M57.2948 4.69849H3.78231C3.35068 4.7009 2.92383 4.78895 2.52647 4.95752C2.12911 5.12609 1.76914 5.37183 1.46743 5.68051C1.16572 5.98919 0.928271 6.35468 0.768827 6.75579C0.609383 7.1569 0.531123 7.58566 0.538572 8.01724V53.0172C0.543493 53.876 0.886839 54.6982 1.4941 55.3055C2.10135 55.9127 2.92354 56.2561 3.78231 56.261H30.5386H43.9167H47.2612L49.0386 56.2434L50.6058 56.261H57.2948C58.1536 56.2561 58.9758 55.9127 59.583 55.3055C60.1903 54.6982 60.5336 53.876 60.5386 53.0172V8.01724C60.546 7.58566 60.4678 7.1569 60.3083 6.75579C60.1489 6.35468 59.9114 5.98919 59.6097 5.68051C59.308 5.37183 58.948 5.12609 58.5507 4.95752C58.1533 4.78895 57.7265 4.7009 57.2948 4.69849ZM58.6636 53.0172C58.6636 53.197 58.6282 53.375 58.5594 53.541C58.4906 53.7071 58.3898 53.858 58.2627 53.9851C58.1356 54.1122 57.9847 54.213 57.8186 54.2818C57.6526 54.3506 57.4746 54.386 57.2948 54.386H50.6058H48.9335H47.2612H43.9167H30.5386H3.78231C3.60257 54.386 3.42458 54.3506 3.25852 54.2818C3.09245 54.213 2.94156 54.1122 2.81446 53.9851C2.68736 53.858 2.58656 53.7071 2.51777 53.541C2.44898 53.375 2.41357 53.197 2.41357 53.0172V8.01724C2.41357 7.65422 2.55777 7.30607 2.81446 7.04938C3.07115 6.79269 3.4193 6.64849 3.78231 6.64849H57.2948C57.6578 6.64849 58.006 6.79269 58.2627 7.04938C58.5194 7.30607 58.6636 7.65422 58.6636 8.01724V53.0172Z" fill="#012842"/>
<path d="M5.75098 11.6169C6.42407 11.6169 6.96973 11.0713 6.96973 10.3982C6.96973 9.7251 6.42407 9.17944 5.75098 9.17944C5.07788 9.17944 4.53223 9.7251 4.53223 10.3982C4.53223 11.0713 5.07788 11.6169 5.75098 11.6169Z" fill="#0066B3"/>
<path d="M9.50098 11.6169C10.1741 11.6169 10.7197 11.0713 10.7197 10.3982C10.7197 9.7251 10.1741 9.17944 9.50098 9.17944C8.82788 9.17944 8.28223 9.7251 8.28223 10.3982C8.28223 11.0713 8.82788 11.6169 9.50098 11.6169Z" fill="#0066B3"/>
<path d="M13.251 11.6169C13.9241 11.6169 14.4697 11.0713 14.4697 10.3982C14.4697 9.7251 13.9241 9.17944 13.251 9.17944C12.5779 9.17944 12.0322 9.7251 12.0322 10.3982C12.0322 11.0713 12.5779 11.6169 13.251 11.6169Z" fill="#0066B3"/>
<path d="M59.6011 13.0046H1.47607V14.8796H59.6011V13.0046Z" fill="#012842"/>
<g clip-path="url(#clip1_7389_43167)">
<path d="M45.0498 46.3409L39.2007 40.4918C39.5079 39.9433 39.7536 39.3626 39.9333 38.7602H40.9138V37.5268H40.1984C40.4307 36.0341 40.2516 34.5063 39.6804 33.1078V27.0435H38.4471V30.9704C38.0809 30.5026 37.6676 30.0736 37.2138 29.6902V24.5768H35.9804V28.8281C35.5856 28.5993 35.1732 28.4024 34.7471 28.2392V22.1101H33.5137V27.8649C33.1074 27.7772 32.6952 27.7192 32.2804 27.6916V23.3434H31.0471V27.6916C30.6323 27.7192 30.2201 27.7772 29.8137 27.8649V25.8101H28.5804V28.2392C28.1543 28.4024 27.7419 28.5993 27.3471 28.8281V25.1935H26.1137V29.6902C25.6599 30.0736 25.2466 30.5026 24.8804 30.9704V26.4268H23.647V33.1078C23.0759 34.5063 22.8968 36.0341 23.129 37.5268H15.0137V38.7602H23.3942C24.7467 43.3221 29.5413 45.9239 34.1032 44.5714C35.0022 44.3048 35.8516 43.8933 36.6181 43.3531L42.3278 49.0629C42.4434 49.1785 42.6003 49.2434 42.7638 49.2434C42.9273 49.2434 43.0841 49.1785 43.1998 49.0629L45.0498 47.2129C45.1654 47.0972 45.2303 46.9404 45.2303 46.7769C45.2303 46.6134 45.1654 46.4565 45.0498 46.3409ZM31.6637 43.6935C27.5786 43.6891 24.2681 40.3786 24.2637 36.2935C24.2637 32.2066 27.5768 28.8935 31.6637 28.8935C35.7506 28.8935 39.0638 32.2066 39.0638 36.2935C39.0638 40.3804 35.7506 43.6935 31.6637 43.6935ZM42.7638 47.7549L37.5764 42.5675C37.9124 42.2499 38.2228 41.9062 38.5044 41.5395L43.7418 46.7769L42.7638 47.7549Z" fill="#005BAA"/>
<path d="M31.6638 30.1267C28.258 30.1267 25.4971 32.8876 25.4971 36.2934C25.4971 39.6992 28.258 42.4601 31.6638 42.4601C35.0696 42.4601 37.8305 39.6992 37.8305 36.2934C37.8268 32.8892 35.068 30.1304 31.6638 30.1267ZM31.6638 41.2268C30.7988 41.2257 29.9494 40.9972 29.2007 40.5642C28.4519 40.1313 27.8301 39.5091 27.3976 38.7601H35.9299C35.4974 39.5091 34.8756 40.1313 34.1269 40.5642C33.3781 40.9972 32.5287 41.2257 31.6638 41.2268ZM26.8926 37.5267C26.3964 35.649 27.0589 33.6556 28.5804 32.4485V36.2934H29.8138V31.7233C30.2092 31.5633 30.6238 31.4555 31.0471 31.4026V36.2934H32.2804V31.4026C32.7037 31.4555 33.1183 31.5633 33.5138 31.7233V36.2934H34.7471V32.4485C36.2686 33.6556 36.9311 35.649 36.4349 37.5267H26.8926Z" fill="#005BAA"/>
<path d="M16.2468 32.5936H17.4802V36.2936H16.2468V32.5936ZM18.7135 28.8936H19.9468V36.2936H18.7135V28.8936ZM21.1802 30.7436H22.4135V36.2936H21.1802V30.7436Z" fill="#005BAA"/>
</g>
</g>
<defs>
<clipPath id="clip0_7389_43167">
<rect width="60" height="60" fill="white" transform="translate(0.538574 0.479736)"/>
</clipPath>
<clipPath id="clip1_7389_43167">
<rect width="37" height="37" fill="white" transform="translate(8.53857 12.2434)"/>
</clipPath>
</defs>
</svg>
