<svg width="60" height="61" viewBox="0 0 60 61" fill="none" xmlns="http://www.w3.org/2000/svg">
<g clip-path="url(#clip0_7389_34601)">
<path d="M56.7563 4.69849H3.24374C2.81211 4.7009 2.38526 4.78895 1.98789 4.95752C1.59053 5.12609 1.23056 5.37183 0.928857 5.68051C0.627151 5.98919 0.389697 6.35468 0.230253 6.75579C0.0708083 7.1569 -0.00745119 7.58566 -2.3843e-06 8.01724V53.0172C0.0049191 53.876 0.348265 54.6982 0.955522 55.3055C1.56278 55.9127 2.38496 56.2561 3.24374 56.261H56.7563C57.615 56.2561 58.4372 55.9127 59.0445 55.3055C59.6517 54.6982 59.9951 53.876 60 53.0172V8.01724C60.0074 7.58566 59.9292 7.1569 59.7697 6.75579C59.6103 6.35468 59.3728 5.98919 59.0711 5.68051C58.7694 5.37183 58.4095 5.12609 58.0121 4.95752C57.6147 4.78895 57.1879 4.7009 56.7563 4.69849ZM58.125 53.0172C58.125 53.197 58.0896 53.375 58.0208 53.541C57.952 53.7071 57.8512 53.858 57.7241 53.9851C57.597 54.1122 57.4461 54.213 57.2801 54.2818C57.114 54.3506 56.936 54.386 56.7563 54.386H3.24374C3.06399 54.386 2.88601 54.3506 2.71994 54.2818C2.55388 54.213 2.40298 54.1122 2.27588 53.9851C2.14878 53.858 2.04798 53.7071 1.9792 53.541C1.91041 53.375 1.875 53.197 1.875 53.0172V8.01724C1.875 7.65422 2.01919 7.30607 2.27588 7.04938C2.53257 6.79269 2.88072 6.64849 3.24374 6.64849H56.7563C57.1193 6.64849 57.4674 6.79269 57.7241 7.04938C57.9808 7.30607 58.125 7.65422 58.125 8.01724V53.0172Z" fill="#012842"/>
<path d="M5.21252 11.6169C5.88562 11.6169 6.43127 11.0713 6.43127 10.3982C6.43127 9.7251 5.88562 9.17944 5.21252 9.17944C4.53943 9.17944 3.99377 9.7251 3.99377 10.3982C3.99377 11.0713 4.53943 11.6169 5.21252 11.6169Z" fill="#0066B3"/>
<path d="M8.96252 11.6169C9.63562 11.6169 10.1813 11.0713 10.1813 10.3982C10.1813 9.7251 9.63562 9.17944 8.96252 9.17944C8.28943 9.17944 7.74377 9.7251 7.74377 10.3982C7.74377 11.0713 8.28943 11.6169 8.96252 11.6169Z" fill="#0066B3"/>
<path d="M12.7125 11.6169C13.3856 11.6169 13.9313 11.0713 13.9313 10.3982C13.9313 9.7251 13.3856 9.17944 12.7125 9.17944C12.0394 9.17944 11.4938 9.7251 11.4938 10.3982C11.4938 11.0713 12.0394 11.6169 12.7125 11.6169Z" fill="#0066B3"/>
<path d="M59.0625 13.0046H0.9375V14.8796H59.0625V13.0046Z" fill="#012842"/>
<path d="M36.1948 34.6749C36.1948 36.3179 35.5421 37.8937 34.3802 39.0555C33.2184 40.2173 31.6427 40.87 29.9996 40.87C28.3565 40.87 26.7808 40.2173 25.619 39.0555C24.4571 37.8937 23.8044 36.3179 23.8044 34.6749C23.8044 33.0318 24.4571 31.4561 25.619 30.2943C26.7808 29.1324 28.3565 28.4797 29.9996 28.4797C31.6427 28.4797 33.2184 29.1324 34.3802 30.2943C35.5421 31.4561 36.1948 33.0318 36.1948 34.6749ZM27.5684 31.9892C26.2334 33.2483 25.9878 35.0756 26.9645 36.673C26.968 36.6786 26.9728 36.6833 26.9786 36.6867C26.9843 36.69 26.9908 36.6919 26.9974 36.6921C27.0041 36.6923 27.0106 36.6909 27.0166 36.6879C27.0225 36.685 27.0277 36.6806 27.0315 36.6752L30.8569 31.2123C30.8623 31.2046 30.8656 31.1956 30.8666 31.1862C30.8676 31.1768 30.8662 31.1673 30.8625 31.1586C30.8588 31.1499 30.853 31.1423 30.8456 31.1364C30.8382 31.1306 30.8294 31.1267 30.82 31.1252C29.4992 30.9027 28.4153 31.1907 27.5684 31.9892ZM29.1825 38.2078C32.3471 38.9624 34.814 35.4217 33.0291 32.6779C33.0259 32.6727 33.0215 32.6683 33.0162 32.6653C33.0109 32.6623 33.0048 32.6606 32.9986 32.6605C32.9924 32.6604 32.9863 32.6618 32.9807 32.6647C32.9751 32.6675 32.9702 32.6717 32.9666 32.6768L29.1513 38.1241C29.1207 38.1672 29.1312 38.1952 29.1825 38.2078Z" fill="#005BAA"/>
<path d="M44.5343 34.6422L38.1393 31.3705C38.1336 31.3676 38.1287 31.3631 38.1254 31.3576C38.122 31.3521 38.1203 31.3457 38.1204 31.3393V28.533C38.1203 28.5271 38.1218 28.5212 38.1246 28.516C38.1275 28.5108 38.1316 28.5064 38.1367 28.5033C38.1417 28.5001 38.1475 28.4983 38.1534 28.4981C38.1594 28.4978 38.1653 28.4991 38.1706 28.5018L47.9813 33.5238C47.987 33.5267 47.9919 33.5312 47.9952 33.5367C47.9986 33.5422 48.0003 33.5486 48.0002 33.555L47.9991 35.7942C47.9992 35.8007 47.9975 35.807 47.9941 35.8125C47.9907 35.8181 47.9859 35.8225 47.9802 35.8255L38.1706 40.8474C38.1653 40.8501 38.1594 40.8514 38.1534 40.8511C38.1475 40.8509 38.1417 40.8491 38.1367 40.8459C38.1316 40.8428 38.1275 40.8384 38.1246 40.8332C38.1218 40.828 38.1203 40.8221 38.1204 40.8162V38.0099C38.1203 38.0035 38.122 37.9971 38.1254 37.9916C38.1287 37.9861 38.1336 37.9816 38.1393 37.9787L44.5343 34.7047C44.5402 34.7019 44.5452 34.6975 44.5487 34.692C44.5522 34.6864 44.5541 34.68 44.5541 34.6735C44.5541 34.6669 44.5522 34.6605 44.5487 34.655C44.5452 34.6495 44.5402 34.645 44.5343 34.6422Z" fill="#005BAA"/>
<path d="M21.8788 38.0114V40.8166C21.8788 40.8225 21.8774 40.8284 21.8745 40.8336C21.8716 40.8388 21.8675 40.8432 21.8624 40.8463C21.8574 40.8495 21.8516 40.8513 21.8457 40.8515C21.8397 40.8518 21.8338 40.8505 21.8285 40.8478L12.019 35.8258C12.0132 35.8229 12.0084 35.8184 12.005 35.8129C12.0017 35.8074 11.9999 35.801 12 35.7946V33.5554C11.9999 33.5489 12.0017 33.5426 12.005 33.5371C12.0084 33.5315 12.0132 33.5271 12.019 33.5241L21.8285 28.501C21.8338 28.4984 21.8397 28.4971 21.8457 28.4973C21.8516 28.4976 21.8574 28.4994 21.8624 28.5025C21.8675 28.5057 21.8716 28.5101 21.8745 28.5153C21.8774 28.5205 21.8788 28.5264 21.8788 28.5323V31.3397C21.8788 31.3461 21.8771 31.3525 21.8737 31.358C21.8704 31.3635 21.8656 31.368 21.8598 31.3709L15.4648 34.6437C15.4589 34.6465 15.4539 34.651 15.4504 34.6565C15.4469 34.662 15.4451 34.6684 15.4451 34.675C15.4451 34.6815 15.4469 34.6879 15.4504 34.6935C15.4539 34.699 15.4589 34.7034 15.4648 34.7062L21.8598 37.9802C21.8656 37.9831 21.8704 37.9876 21.8737 37.9931C21.8771 37.9986 21.8788 38.005 21.8788 38.0114Z" fill="#005BAA"/>
</g>
<defs>
<clipPath id="clip0_7389_34601">
<rect width="60" height="60" fill="white" transform="translate(0 0.479736)"/>
</clipPath>
</defs>
</svg>
